<svg version="1.2" xmlns="http://www.w3.org/2000/svg" viewBox="0 0 936 936" width="500" height="500"><style>.a{fill:#6c9894}</style><path fill-rule="evenodd" class="a" d="m860.6 835.3c-3.2 8.8-12.8 12.8-21.6 9.6l-114.4-45.6-17.6 122.4c-0.8 4.8-3.2 9.6-8 12-8 4-18.4 1.6-23.2-6.4l-144.8-250.4c-20.8 4-42.4 6.4-64.8 6.4-21.6 0-44-2.4-64.8-6.4l-144.8 250.4c-4.8 8-15.2 11.2-23.2 6.4-4.8-2.4-7.2-7.2-8-12l-17.6-122.4-114.4 45.6c-8.8 3.2-18.4-0.8-21.6-9.6-1.6-5.6-0.8-11.2 1.6-15.2l143.2-248c-56-60.8-89.6-141.6-89.6-230.4 0-94.4 38.4-179.2 100-240.8 61.6-61.6 146.4-100 240.8-100 94.4 0 179.2 38.4 240.8 100 61.6 61.6 100 146.4 100 240.8 0 88.8-33.6 169.6-89.6 230.4l143.2 248c2.4 4 3.2 9.6-1.6 15.2zm-492-168c-48-14.4-91.2-39.2-127.2-71.2l-115.2 199.2 88.8-35.2c1.6-0.8 3.2-1.6 4.8-1.6 9.6-0.8 17.6 5.6 19.2 14.4l14.4 95.2zm316-109.6c55.2-55.2 89.6-132 89.6-216.8 0-84.8-34.4-161.6-89.6-216.8-55.2-55.2-132-89.6-216.8-89.6-84.8 0-161.6 34.4-216.8 91.2-55.2 55.2-89.6 132-89.6 216.8 0 84.8 34.4 161.6 89.6 216.8 55.2 55.2 132 89.6 216.8 89.6 84.8 0 161.6-34.4 216.8-91.2zm124.8 237.6l-115.2-199.2c-36 32-79.2 56.8-127.2 71.2l115.2 200.8 14.4-95.2c1.6-9.6 10.4-16 19.2-14.4 1.6 0 3.2 0.8 4.8 1.6z"/><path fill-rule="evenodd" class="a" d="m634.2 310.5c-1.6 9.6-6.4 18.4-15.2 24.8l-56 40 21.6 65.6c0.8 0 0.8 0.8 0.8 1.6 1.6 5.6 1.6 10.4 0.8 16-1.6 5.6-3.2 11.2-7.2 16-6.4 8.8-15.2 13.6-24.8 15.2-9.6 0.8-19.2-0.8-28-7.2l-56-40.8-56 40.8c-8 6.4-18.4 8.8-28 7.2-9.6-1.6-18.4-6.4-24.8-15.2-4-4.8-6.4-10.4-7.2-16-0.8-5.6-0.8-11.2 0.8-16 0.8 0 0.8-0.8 0.8-1.6l21.6-65.6-56-40c-8.8-6.4-13.6-15.2-15.2-24.8-1.6-9.6 0-19.2 6.4-28q6-8.4 14.4-12c5.6-2.4 12-4 18.4-3.2h66.4l20.8-65.6c3.2-10.4 9.6-17.6 18.4-22.4 5.6-2.4 11.2-4 17.6-4 6.4 0 12 1.6 17.6 4 8 4.8 15.2 12.8 18.4 22.4l20.8 65.6h66.4c6.4-0.8 12.8 0.8 18.4 3.2q8.4 3.6 14.4 12c6.4 8.8 8.8 19.2 9.6 28zm-34.4-4.8c0-1.6 0-2.4-0.8-3.2-0.8 0-0.8-0.8-0.8-0.8-0.8 0-0.8-0.8-1.6-0.8-0.8-0.8-1.6-0.8-2.4-0.8-0.8 0-80 0-80.8 0-7.2 0-13.6-5.6-16-12l-24.8-76.8q-1.2-1.2-2.4-2.4c0-0.8-0.8-0.8-1.6-0.8 0 0-0.8 0.8-1.6 0.8-1.6 0-2.4 1.6-2.4 2.4l-24.8 76.8c-2.4 7.2-8.8 12-16 12-0.8 0-80 0-80.8 0-0.8 0-1.6 0.8-2.4 0.8-0.8 0-0.8 0-1.6 0.8-0.8 0-0.8 0.8-0.8 0.8-0.8 0.8-0.8 2.4-0.8 3.2 0 0.8 0.8 1.6 1.6 2.4l0.8 0.8 61.6 47.2c6.4 4 8.8 11.2 6.4 18.4l-24.8 76c0 0.8 0 2.4 0 3.2 0 0 0 0.8 0.8 1.6 0.8 0.8 2.4 1.6 3.2 1.6 0.8 0 2.4 0 3.2-0.8l65.6-48c3.2-2.4 7.2-3.2 10.4-3.2 4 0 7.2 0.8 10.4 3.2l65.6 48c0.8 0.8 2.4 0.8 3.2 0.8 1.6 0 2.4-0.8 3.2-1.6 0.8 0 0.8-0.8 0.8-1.6 0-0.8 0-2.4 0-3.2l-24.8-76c-2.4-6.4 0.8-14.4 6.4-18.4l64.8-47.2 0.8-0.8c0.8-0.8 1.6-1.6 3.2-2.4z"/><path fill-rule="evenodd" class="a" d="m733.4 341.7c0 73.6-29.6 140-77.6 188-48 48-114.4 77.6-188 77.6-73.6 0-140-29.6-188-77.6-48-48-77.6-114.4-77.6-188 0-73.6 29.6-140 77.6-188 48-48 114.4-77.6 188-77.6 73.6 0 140 29.6 188 77.6 48 48 77.6 114.4 77.6 188zm-33.6-0.8c0-64-25.6-121.6-68-164-41.6-41.6-100-68-164-68-64 0-122.4 26.4-164 68.8-41.6 41.6-68 100-68 164 0 64 25.6 121.6 68 164 41.6 41.6 100 68 164 68 64 0 122.4-25.6 164.8-68 41.6-41.6 67.2-100.8 67.2-164.8z"/></svg>