<svg version="1.2" xmlns="http://www.w3.org/2000/svg" viewBox="0 0 882 906" width="506" height="520"><style>.a{fill:#bed2ce}</style><path fill-rule="evenodd" class="a" d="m651.2 394.7c-21.4 0-44.7-4.6-71.3-13.8-4.4-1.5-8.6-3.1-12.7-4.6-24.4-9-45.5-16.7-72.9-8.2-11.3 3.6-25.4 8-33.4 17-0.7 0.8-1.8 0.8-2.5 0.2-0.8-0.7-0.8-1.8-0.2-2.5 8.7-9.8 23.3-14.4 35-18.1 28.6-8.9 50.2-0.9 75.3 8.3 4 1.5 8.2 3 12.5 4.5 39.5 13.8 71.5 17 100.6 10.2 1-0.2 2 0.4 2.2 1.3 0.2 1-0.4 2-1.4 2.2-10 2.3-20.4 3.5-31.2 3.5zm-49.7 45.3c-20.5 0-37.2-8.1-54.7-16.7-5.4-2.7-10.9-5.4-16.7-7.9-20.7-9.1-37.4-10.2-49.7-3.2-0.9 0.4-2 0.1-2.5-0.7-0.4-0.9-0.1-2 0.7-2.4 13.3-7.6 31.1-6.6 52.9 3 5.9 2.6 11.5 5.3 16.9 8 20.4 10 39.6 19.4 64.9 15.5 26.7-4.2 40.6-18.9 56.7-36 3.2-3.4 6.5-6.9 10.1-10.5 0.6-0.7 1.8-0.7 2.5 0 0.7 0.7 0.7 1.9 0 2.6-3.5 3.5-6.8 7-10 10.3-16.6 17.6-30.9 32.8-58.8 37.1q-6.3 1-12.3 0.9zm35.4-33.7c-15.3 0-33.3-3.9-53.6-11.7-4.7-1.9-9.4-3.8-13.9-5.7-6.4-2.6-12.9-5.4-19.6-7.7-10.6-3.8-26.4-7.8-41.6-5.8-11.7 1.5-35.3 8.4-40.5 16.6-0.6 0.8-1.7 1.1-2.5 0.5-0.8-0.5-1-1.6-0.5-2.4 6.7-10.5 33.9-17.1 43-18.2 15.9-2.1 32.3 2 43.3 5.9 6.8 2.4 13.4 5.1 19.7 7.8 4.5 1.9 9.2 3.8 13.9 5.6 30.4 11.7 55.1 14.5 73.4 8.4 0.9-0.3 1.9 0.2 2.3 1.1 0.3 1-0.2 2-1.2 2.3q-9.9 3.3-22.2 3.3zm-32.3 21.9c-5.5 0-10.9-0.7-16.1-1.5-17.6-2.7-31.4-9.3-44.6-15.6-8.6-4-17.4-8.2-27.1-11.3-7.7-2.4-26.4-4.7-42.5 4-0.8 0.4-1.9 0.1-2.4-0.7-0.5-0.9-0.1-2 0.7-2.5 17.1-9.2 37.1-6.8 45.3-4.2 9.9 3.1 18.8 7.4 27.5 11.5 13 6.2 26.5 12.6 43.7 15.3 10.8 1.7 22.5 2.6 34.6-1.8 11.2-4.2 24.1-12.2 33.6-21.1 0.7-0.6 1.8-0.6 2.5 0.1 0.7 0.7 0.6 1.9-0.1 2.5-10 9.3-23 17.5-34.8 21.8-6.9 2.6-13.7 3.5-20.3 3.5zm20.3-4.7c-0.7 0-1.4-0.5-1.6-1.3q-0.6-1.6-1.1-3.2c-1.4-4.3-2.8-8.8-4.5-12.9-0.4-0.9 0.1-2 1-2.3 0.9-0.4 1.9 0 2.3 0.9 1.8 4.3 3.2 8.8 4.6 13.2q0.5 1.6 1 3.3c0.3 0.9-0.2 1.9-1.1 2.2q-0.3 0.1-0.6 0.1zm-25 3.9c-0.9 0-1.7-0.7-1.8-1.6-1.2-10-3.9-20.8-7.3-28.8-0.4-0.9 0.1-2 1-2.4 0.9-0.3 1.9 0.1 2.3 1 3.5 8.3 6.3 19.5 7.6 29.8 0.1 1-0.6 1.9-1.6 2q-0.1 0-0.2 0zm-22.9-3.3c-1 0-1.8-0.8-1.8-1.7-0.1-2.8 0.1-5.6 0.2-8.5 0.3-7.8 0.7-15.8-2-22.5-0.4-0.9 0-1.9 0.9-2.3 0.9-0.3 2 0.1 2.4 1 3 7.3 2.6 15.8 2.3 24-0.2 2.8-0.3 5.6-0.3 8.2 0.1 1-0.7 1.8-1.7 1.8q0 0 0 0zm-25.7-10q-0.4 0-0.7-0.1c-0.9-0.4-1.3-1.5-0.9-2.4 2.7-6 2.2-13.2 1.8-20-0.3-3.7-0.5-7.4-0.3-10.9 0.1-1 0.9-1.8 1.9-1.7 1 0 1.7 0.9 1.7 1.9-0.2 3.3 0 6.8 0.2 10.4 0.5 7.3 1 14.9-2.1 21.8-0.3 0.6-0.9 1-1.6 1zm-20-9.2q-0.4 0-0.7-0.2c-0.9-0.4-1.3-1.5-0.9-2.4 2.6-5.5 2.3-12.3 2-18.8-0.1-2.8-0.2-5.7-0.1-8.4 0-0.9 0.9-1.7 1.9-1.7 0.9 0.1 1.7 0.9 1.7 1.9-0.1 2.5 0 5.2 0.1 8 0.3 7 0.6 14.2-2.4 20.6-0.3 0.6-0.9 1-1.6 1zm-22.3-6.8q-0.3 0-0.7-0.2c-0.9-0.4-1.3-1.5-0.9-2.4 2-3.9 1.8-11-0.4-19.9-0.2-0.9 0.3-1.9 1.3-2.1 0.9-0.2 1.9 0.3 2.1 1.3 1.8 6.8 3.2 16.2 0.3 22.3-0.4 0.6-1 1-1.7 1zm-20.1-0.6q-0.1 0-0.1 0c-1 0-1.8-0.9-1.7-1.8 0.2-5.7-1.7-10.7-3.9-16-0.4-0.9 0-2 0.9-2.3 0.9-0.4 2 0 2.3 0.9 2.5 5.8 4.5 11.1 4.2 17.5 0 0.9-0.8 1.7-1.7 1.7zm-9.4 16.7c-0.6 0-1.2-0.3-1.5-0.8-1.3-2.1-2.7-4.5-4.2-7.2-4.1-7.1-9.2-16.1-14.7-20.3-0.8-0.6-0.9-1.8-0.3-2.5 0.6-0.8 1.7-1 2.5-0.4 6.1 4.7 11.1 13.6 15.6 21.5 1.5 2.6 2.8 5 4.1 7 0.5 0.8 0.3 1.9-0.5 2.4q-0.5 0.3-1 0.3zm-27.4-36.8q-0.3 0-0.5 0-0.3-0.1-0.6-0.2c-0.9-0.4-1.3-1.5-0.9-2.4 5-10.4 11.6-17.7 20.8-22.9 12.6-7.1 17.7-8.8 30-1l3.5 2.3-4.1 0.9q-2.1 0.5-4.4 1c-14.4 3.3-36.1 8.2-42.2 21.3-0.3 0.6-1 1-1.6 1zm35-28.1c-4.2 0-8.2 2.1-14.5 5.7-3.7 2.1-6.9 4.5-9.8 7.4 9.8-5.7 22.6-8.6 32.3-10.7-3-1.6-5.6-2.4-8-2.4zm77.1 12.6q-3.4 0-6.8-0.3c-16.2-1.8-38.7-10.6-54.7-17.7-0.9-0.4-1.3-1.4-0.9-2.3 0.4-0.9 1.4-1.3 2.3-0.9 15.8 6.9 38 15.6 53.7 17.3 28.5 3.2 52.8-15.3 68.2-31.4q2.2-2.3 4.5-4.7c6-6.2 12.3-12.6 17.4-19.5 0.6-0.8 1.7-1 2.5-0.4 0.8 0.6 0.9 1.7 0.4 2.5-5.3 7.1-11.6 13.6-17.7 19.9q-2.3 2.3-4.5 4.7c-14.8 15.3-37.4 32.8-64.4 32.8zm-2.4-53.8c-0.7 0-1.3-0.4-1.6-1-0.5-0.9-0.1-2 0.8-2.4 25.5-12 60.1-13.2 88.2-3.1 1 0.3 1.4 1.4 1.1 2.3-0.3 0.9-1.3 1.4-2.3 1.1-27.3-9.8-60.8-8.7-85.5 2.9q-0.4 0.2-0.7 0.2zm-53.9 35.7q-2.8 0-5.5-0.6c-0.9-0.2-1.5-1.2-1.3-2.1 0.2-1 1.2-1.6 2.1-1.4 10 2.2 23.9-3.4 33.6-9.4 7.3-4.5 21.6-16.8 22.8-24 0.2-1 1.1-1.6 2-1.5 1 0.2 1.7 1.1 1.5 2.1-1.6 9.6-18.4 22.7-24.4 26.4-8.7 5.4-20.7 10.5-30.8 10.5zm35.2 14.4c-0.6 0-1.1-0.3-1.5-0.8-1.7-2.7-3.5-6.2-5.2-9.6-2.2-4.4-4.5-9-6.6-11.4-0.6-0.7-0.5-1.9 0.3-2.5 0.7-0.6 1.8-0.5 2.5 0.2 2.3 2.7 4.6 7.3 7 12.1 1.7 3.3 3.4 6.7 5 9.2 0.6 0.9 0.3 2-0.5 2.5q-0.5 0.3-1 0.3zm27.9 2c-0.5 0-1.1-0.2-1.5-0.7-3.2-4.8-5.9-9.9-8.5-14.8-3.3-6.2-6.7-12.6-11.2-18.3-0.6-0.8-0.4-1.9 0.3-2.5 0.8-0.6 1.9-0.5 2.5 0.3 4.7 6 8.2 12.5 11.6 18.9 2.5 4.8 5.2 9.8 8.3 14.4 0.5 0.8 0.3 1.9-0.5 2.4q-0.4 0.3-1 0.3zm29.5-9.9c-0.8 0-1.5-0.6-1.7-1.4-2.7-10.5-9.4-19.6-14.9-26.3-2.2-2.6-4.2-5.5-6.2-8.3-2.4-3.5-4.8-6.8-7.3-9.6-0.7-0.8-0.6-1.9 0.1-2.5 0.8-0.7 1.9-0.6 2.5 0.1 2.7 3 5.2 6.5 7.6 9.9 2 2.8 4 5.6 6 8.1 5.8 7 12.8 16.5 15.6 27.8 0.2 0.9-0.3 1.9-1.3 2.1q-0.2 0.1-0.4 0.1zm5.7-20.6q-1.8 0-3.6-0.6c-3-1.1-5.3-3.3-6.3-6.2-1.4-3.6-1.4-7.2-0.1-9.9q1.5-3.3 5.1-5 0.3-0.2 0.7-0.3 0.4-0.2 0.7-0.3 0.2 0 0.3 0c6.3-1.5 10.9 2 12.8 6.3 2.1 4.7 1.2 11.2-4.5 14.6-1.5 0.9-3.3 1.4-5.1 1.4zm-2.4-18.8q-3.2 1.1-4.4 3.6c-0.9 1.9-0.8 4.4 0.2 7.2 0.7 1.8 2.2 3.3 4.2 4 1.9 0.7 4 0.5 5.7-0.5 4.1-2.4 4.5-6.9 3.1-10.1-1.3-2.8-4.2-5.3-8.8-4.2zm-22.7 30.3q0.3 0 0.6 0.1-0.8-0.2-1.5 0.1c-0.6 0.2-1.3 0.7-1.6 1.4-0.5 1.3-0.2 2.5 0.9 3.5 1.4 1.3 3.7 0.8 4.5-0.9 0.9-1.9-0.6-4.5-2.9-4.2zm-7.5-10.4c-1 0.3-1.7 1.3-1.9 2.3q-0.2 0.8 0.1 1.6c0.2 1.3 1.2 2.4 2.5 2.7 2.1 0.3 4-1.4 3.8-3.5 0-0.9-0.4-1.8-1.2-2.4-0.9-0.8-2.1-1-3.3-0.7zm-8.5-6.6c-0.8 4.2 5.7 5.4 6.5 1.2 0.8-4.2-5.7-5.4-6.5-1.2zm-14.3 22.4c-1 0.1-1.7 0.7-2.1 1.4q0.2 0.2 0 0.4c-0.1 0.2-0.2 0.6-0.2 1 0 0.6 0.2 1.3 0.8 1.8q-0.4-0.4-0.7-0.7 0 0 0 0.1c0.3 0.9 1.2 1.7 2.2 1.8 1 0.2 2-0.1 2.7-0.9 0.7-0.8 0.8-1.8 0.5-2.8-0.4-1.4-1.8-2.3-3.2-2.1zm-2.1 1.4c-0.3-0.3-2.2 0.2-0.1 2.5q-0.2-0.5-0.1-1.1-0.1-0.7 0.2-1.4zm-5.6-11.1c-0.9 0.7-1.7 1.7-1.7 2.7q0 0.1 0 0.2c0 2.9 5 3.8 6 1.1 0.1-0.1 0.3-0.1 0.3-0.2 0.3-0.7 0.6-1.5 0.3-2.3-0.4-1-1.4-1.7-2.4-1.9-0.8-0.2-1.8 0-2.5 0.4zm59.2-18.7c-0.3 1.7 0.8 3.4 2.5 3.7 1.7 0.3 3.4-0.8 3.8-2.5 0.3-1.7-0.9-3.4-2.6-3.8-1.7-0.3-3.4 0.9-3.7 2.6zm9.2 94.8q0 0.2 0 0.4c0.1 1.2 1.5 1.9 2.6 1.2 1-0.7 0.8-2.2-0.2-2.8q-0.2-0.1-0.4-0.2c-1-0.5-2.2 0.3-2 1.4zm-6.4 0.4c-0.2 1 2.7 1.6 2.9 0.5 0.4-2.1-2.5-2.6-2.9-0.5zm-15.4-3.4c-0.8 0.8-0.1 2.3 0.8 2.6 0.7 0.2 1.3 0.2 1.8-0.3 0.4-0.5 0.4-1.2 0.1-1.8-0.2-0.3-0.5-0.5-0.8-0.7q-0.1-0.1-0.2-0.1c-0.6-0.3-1.1-0.2-1.7 0.3zm-7.3 1.2c-0.2 1.1 2.5 1.6 2.7 0.5 0.4-2.1-2.3-2.6-2.7-0.5zm-14.2-7.2c-0.1 0.3 0.1 0.7 0.3 0.9 0.3 0.3 0.6 0.4 1 0.5q0.3 0 0.7 0c0 0 0.7-0.1 0.4-0.1 1.1-0.1 1.4-1.3 0.7-2-1-1-2.7-0.6-3.1 0.7zm-5.2-1.9c-0.4 2.1 1.8 2.5 2.2 0.4 0.2-1-2-1.5-2.2-0.4zm-4.8-3q-0.2 0-0.4 0.1 0 0-0.1 0c-0.6 0.1-1 0.5-1.2 1.1-0.1 1 0.6 1.6 1.5 1.7 0.4 0 0.7-0.2 1-0.4q0.2-0.1 0.3-0.2c0.6-0.6 0.1-0.2 0-0.1 0.6-0.5 0.7-1.3 0.1-1.8-0.2-0.2-0.5-0.4-0.8-0.4q-0.2 0-0.4 0zm-13.7-3.8c-0.2 1 2.4 1.5 2.6 0.5 0.4-2.1-2.2-2.6-2.6-0.5zm-4-3.8c-0.3 1.1 0.7 2 1.8 1.9 1.2-0.2 1.5-1.6 0.5-2.2q-0.1-0.1-0.2-0.1c-0.5-0.8-1.9-0.7-2.1 0.4zm-12.2-2.2q0.1 0 0.2 0c1.6 0.2 2-2 0.5-2.4q-0.1 0-0.2-0.1c-1.6-0.4-2.1 2.3-0.5 2.5zm-9.2-2.1c-0.2 1 2.6 1.6 2.8 0.5 0.4-2.1-2.4-2.6-2.8-0.5zm-5.3-1c-0.2 1 2.1 1.4 2.3 0.4 0.4-2.1-1.9-2.5-2.3-0.4zm-10.8-1q0.1 0.2 0.1 0.5c0.3 0.7 1.2 1 1.9 0.5 0.6-0.4 0.7-1.4 0.1-1.9q-0.2-0.1-0.4-0.3c-0.8-0.7-2.1 0.2-1.7 1.2zm-6.4-0.2c-0.2 1.1 2.1 1.5 2.3 0.5 0.4-2.1-1.9-2.6-2.3-0.5zm-5 1.3c-0.2 1 2.1 1.5 2.3 0.4 0.4-2.1-1.9-2.5-2.3-0.4zm-11 2.5q0.1 0.3 0.2 0.5c0.2 0.7 1 1 1.6 0.5 0.6-0.4 0.7-1.2 0.1-1.7q-0.1-0.2-0.3-0.3c-0.8-0.7-2 0.1-1.6 1zm-5.5 1.9c-0.2 1.1 2.2 1.6 2.4 0.5 0.4-2.1-2-2.6-2.4-0.5zm179.1-10c-1.6 0-3.1-0.2-4.5-0.7-4.8-1.7-7.8-6-8.1-11.9-0.2-4.1 3.6-7.5 7.2-8.2 3.1-0.6 6.9 0.4 8.7 5.2 0.3 0.9-0.1 1.9-1.1 2.3-0.9 0.3-1.9-0.2-2.3-1.1-1-3-3.1-3.2-4.6-2.9-2.4 0.5-4.4 2.6-4.3 4.5 0.2 4.5 2.2 7.5 5.6 8.7 4.5 1.5 10.5-0.4 13.9-4.4 3.4-4.1 3.7-9.5 0.6-15.3-5.2-9.6-19-5.3-29.1-2.1q-1.5 0.5-2.8 0.9c-4.6 1.4-9.3 3.5-14.4 5.8-11.4 5.1-24.3 11-37.8 8.7-1-0.2-1.7-1.1-1.5-2.1 0.2-0.9 1.1-1.6 2-1.4 12.5 2.1 24.4-3.3 35.9-8.5 5.1-2.3 10-4.5 14.7-5.9q1.4-0.4 2.9-0.9c10.6-3.3 26.6-8.4 33.2 3.8 3.8 7.1 3.4 14.1-1 19.3-3.3 3.9-8.4 6.2-13.2 6.2zm-27.7-22.2c-0.7 0-1.4-0.4-1.7-1.1-0.4-0.9 0.1-1.9 1-2.3 8.1-3.6 21.4-10.9 19.4-19.4-0.7-2.6-2.8-3.3-4-3.5-2.1-0.5-4.4 0.2-5.4 1.6q-1.1 1.5 0.4 4c0.5 0.9 0.2 1.9-0.7 2.4-0.8 0.5-1.9 0.2-2.4-0.6-2.3-3.9-1.1-6.6-0.2-7.9 1.8-2.5 5.5-3.7 9-3 3.4 0.6 5.9 2.9 6.7 6.1 2 8.4-5.4 16.5-21.4 23.5q-0.4 0.2-0.7 0.2zm-2.1 24.1q-0.9 0-1.9-0.2c-3.3-0.7-5.8-3.2-6.7-7q-0.9-3.9 1.1-6c2.3-2.4 6.3-1.7 6.7-1.6 1 0.2 1.6 1.1 1.4 2.1-0.1 0.9-1.1 1.6-2 1.4-0.8-0.2-2.8-0.2-3.5 0.6-0.6 0.6-0.4 1.8-0.2 2.7 0.6 2.4 1.9 3.9 3.9 4.3 2.8 0.5 6.1-0.9 7.9-3.5 1.8-2.5 1.8-5.6 0.1-8.6-1.4-2.3-3.2-3.7-5.7-4.4-7.7-2-18.5 4.2-18.6 4.3-0.8 0.5-1.9 0.2-2.4-0.7-0.5-0.8-0.2-1.9 0.6-2.4 0.5-0.3 12.2-7 21.3-4.6 3.4 0.9 6 2.9 7.8 6 2.5 4.2 2.4 8.8-0.2 12.5-2.3 3.1-6 5.1-9.6 5.1zm-218.9-14.1c-1 0-1.8-0.7-1.8-1.6-0.8-13.1 6.3-26.7 12-37.6 13.9-26.4 34.8-36.1 59-47.3 3.9-1.8 8-3.7 12.1-5.7 37.7-18.2 62.6-38.5 78.4-63.9 0.5-0.9 1.6-1.1 2.4-0.6 0.8 0.5 1.1 1.6 0.6 2.4-16.2 26-41.6 46.8-79.8 65.3-4.2 2-8.2 3.9-12.2 5.7-23.6 10.9-44 20.4-57.4 45.8-5.5 10.5-12.3 23.5-11.6 35.7 0.1 0.9-0.6 1.8-1.6 1.8q-0.1 0-0.1 0zm32.9 4.8q-0.2 0-0.5-0.1c-0.9-0.2-1.5-1.2-1.2-2.2 4.1-14.7 17.4-26.6 39.6-35.2 5.9-2.4 11.8-4.4 17.5-6.3 21.5-7.4 41.7-14.3 56.9-35 15.9-21.8 15.3-42 14.6-65.5-0.1-4.7-0.2-9.5-0.3-14.5 0-1 0.8-1.8 1.8-1.8q0 0 0 0c1 0 1.8 0.8 1.8 1.8 0 4.9 0.2 9.7 0.3 14.4 0.7 24.1 1.3 44.9-15.4 67.7-15.7 21.6-36.5 28.7-58.5 36.2-5.7 2-11.6 4-17.4 6.3-21.1 8.2-33.7 19.3-37.5 32.9-0.2 0.8-0.9 1.3-1.7 1.3zm-23.3-4.4c-0.8 0-1.5-0.6-1.7-1.4-2.7-12.2 11.9-36 17.6-43.4 9.7-12.7 24.3-21.3 34.8-26.4 6.4-3 13-5.8 19.4-8.4 4.6-1.8 9.2-3.8 13.8-5.8 29.8-13.2 49.2-28.7 57.9-46 0.4-0.9 1.5-1.3 2.3-0.8 0.9 0.4 1.3 1.5 0.8 2.4-9 18-29 34.1-59.5 47.6-4.7 2.1-9.4 4-13.9 5.9-6.4 2.6-12.9 5.3-19.3 8.4-10.1 4.8-24.2 13.1-33.5 25.3-7.2 9.4-19 30.9-16.9 40.4 0.2 1-0.4 1.9-1.4 2.1q-0.2 0.1-0.4 0.1zm13.1 2.7q-0.2 0-0.5-0.1c-0.9-0.3-1.5-1.2-1.2-2.2 5.6-18.6 21.4-31 29-35 9.2-4.8 18.6-8.1 27.6-11.3 13.6-4.8 27.7-9.8 41.7-20.1 8.8-6.5 17.8-14.1 23.2-25.8 5-10.8 8.4-25.6 8.9-38.6 0-1 0.8-1.7 1.8-1.7 1 0 1.8 0.8 1.7 1.8-0.5 13.7-3.9 28.6-9.2 40-5.7 12.5-15.1 20.4-24.3 27.2-14.4 10.5-28.8 15.6-42.6 20.6-8.9 3.1-18.1 6.4-27.1 11.1-7.2 3.7-22.1 15.4-27.3 32.8-0.2 0.8-0.9 1.3-1.7 1.3zm120.9-93.3q-0.4 0-0.8-0.2-1.5-0.8-3.1-1.6c-4-2.1-8.1-4.2-12.3-5.9-0.9-0.4-1.3-1.5-0.9-2.4 0.4-0.9 1.4-1.3 2.3-0.9 4.3 1.7 8.5 3.9 12.6 6q1.5 0.8 3 1.6c0.9 0.4 1.2 1.5 0.8 2.4-0.3 0.6-1 1-1.6 1zm-14.9 20.5q-0.6 0-1.1-0.4c-8-6.2-17.6-11.9-25.6-15.3-0.9-0.3-1.4-1.4-1-2.3 0.4-0.9 1.4-1.3 2.3-1 8.4 3.5 18.2 9.4 26.5 15.8 0.7 0.6 0.9 1.7 0.3 2.5-0.4 0.4-0.9 0.7-1.4 0.7zm-18.6 13.8c-0.4 0-0.9-0.1-1.2-0.5-2-1.9-3.9-3.9-5.8-6.1-5.3-5.7-10.8-11.7-17.4-14.4-0.9-0.4-1.3-1.4-0.9-2.4 0.4-0.9 1.4-1.3 2.3-0.9 7.3 3.1 13 9.3 18.6 15.3 1.9 2.1 3.8 4.2 5.7 6 0.7 0.7 0.7 1.8 0 2.5-0.4 0.4-0.8 0.5-1.3 0.5zm-25.2 11.1c-0.7 0-1.4-0.4-1.6-1.1-2.4-6.2-7.8-10.9-13-15.5-2.7-2.4-5.5-4.8-7.9-7.5-0.6-0.7-0.5-1.9 0.2-2.5 0.7-0.7 1.9-0.6 2.5 0.2 2.2 2.4 4.8 4.7 7.6 7.2 5.5 4.8 11.2 9.8 13.9 16.8 0.3 0.9-0.1 2-1 2.3q-0.4 0.1-0.7 0.1zm-20.7 7.6c-0.7 0-1.4-0.4-1.6-1.2-2.1-5.7-7.1-10.3-11.9-14.7-2.1-1.9-4.2-3.8-6-5.8-0.7-0.7-0.6-1.9 0.1-2.5 0.7-0.7 1.8-0.7 2.5 0.1 1.7 1.8 3.7 3.6 5.8 5.5 5.1 4.8 10.5 9.6 12.8 16.3 0.4 0.9-0.1 1.9-1.1 2.2q-0.3 0.1-0.6 0.1zm-20.5 11c-0.7 0-1.4-0.5-1.7-1.2-1.4-4.2-6.5-9.1-14.4-13.8-0.8-0.5-1.1-1.6-0.6-2.4 0.5-0.9 1.6-1.1 2.5-0.6 6 3.6 13.7 9.3 15.9 15.6 0.3 0.9-0.2 1.9-1.1 2.3q-0.3 0.1-0.6 0.1zm-14.7 13.8c-0.5 0-1-0.2-1.3-0.5-3.9-4.2-8.7-6.4-14.1-8.6-0.9-0.3-1.3-1.4-0.9-2.3 0.3-0.9 1.4-1.3 2.3-1 5.8 2.4 10.9 4.7 15.3 9.4 0.7 0.8 0.6 1.9-0.1 2.6-0.3 0.3-0.8 0.4-1.2 0.4zm5.2 18.5q-0.2 0-0.4-0.1c-2.4-0.5-5.1-1.3-8-2.1-8-2.1-17.9-4.9-24.8-4-1 0.2-1.9-0.5-2-1.5-0.1-1 0.6-1.9 1.5-2 7.7-1 17.5 1.7 26.2 4.1 2.9 0.8 5.6 1.5 7.9 2 0.9 0.3 1.6 1.2 1.3 2.2-0.1 0.8-0.9 1.4-1.7 1.4zm-45.7-6.4c-0.7 0-1.4-0.5-1.7-1.2-3.8-11-4.3-20.8-1.5-30.9 3.9-14 6.3-18.8 20.5-21.9l4.1-0.9-2.2 3.6q-1.1 1.8-2.4 3.8c-7.9 12.4-19.8 31.3-14.8 44.9 0.3 0.8-0.1 1.7-0.8 2.1q-0.3 0.2-0.6 0.3-0.3 0.2-0.6 0.2zm13.8-49.4c-8.9 2.8-10.5 7.1-13.6 18.3-1.1 4.1-1.7 8.1-1.7 12.1 2.9-10.9 10-22 15.3-30.4zm-0.8-10.7c-0.7 0-1.4-0.5-1.6-1.2-0.4-0.9 0.1-1.9 1-2.3 16.1-6.2 37.8-15.8 50.2-25.6 22.4-18 26.5-48.2 26-70.5q-0.1-3.2-0.1-6.5c-0.1-8.6-0.2-17.6-1.5-26.1-0.2-1 0.5-1.9 1.4-2 1-0.2 1.9 0.5 2.1 1.4 1.3 8.8 1.4 17.9 1.6 26.7q0 3.2 0.1 6.4c0.5 23.1-3.9 54.5-27.4 73.3-12.7 10.2-34.8 19.9-51.1 26.2q-0.4 0.2-0.7 0.2zm15.8-66.8q-0.3 0-0.6-0.1c-0.9-0.3-1.4-1.3-1.1-2.2 9.6-26.5 33.2-51.8 60.3-64.6 0.9-0.4 1.9 0 2.3 0.9 0.5 0.8 0.1 1.9-0.8 2.3-26.2 12.4-49.2 37-58.4 62.6-0.3 0.7-0.9 1.1-1.7 1.1zm-16.8 66.6c-0.6 0-1.1-0.3-1.5-0.8-0.5-0.9-0.3-2 0.6-2.5 8.6-5.5 14.4-19.3 17.1-30.4 1.9-8.4 3.4-27.1-0.9-33.1-0.6-0.8-0.4-1.9 0.4-2.5 0.8-0.6 1.9-0.4 2.5 0.4 5.7 8 3 29.2 1.4 36-2.8 11.8-9.1 26.6-18.6 32.6q-0.5 0.3-1 0.3zm39.1-17.9q-0.2 0-0.4-0.1c-3.1-0.7-6.8-1.9-10.4-3.1-4.7-1.5-9.6-3.1-12.7-3.4-1-0.1-1.7-0.9-1.7-1.9 0.1-1 1-1.7 2-1.6 3.5 0.3 8.3 1.9 13.5 3.6 3.5 1.1 7.1 2.3 10.1 2.9 0.9 0.2 1.5 1.2 1.3 2.2-0.2 0.8-0.9 1.4-1.7 1.4zm21.2-18.3q-0.2 0-0.4 0c-5.6-1.1-11.1-2.8-16.4-4.4-6.7-2.1-13.7-4.2-20.9-5.1-1-0.1-1.7-1-1.5-2 0.1-0.9 1-1.6 2-1.5 7.4 0.9 14.5 3.1 21.4 5.2 5.2 1.6 10.7 3.2 16.1 4.3 1 0.1 1.6 1.1 1.4 2-0.2 0.9-0.9 1.5-1.7 1.5zm13.7-27.9q-0.4 0-0.9-0.2c-9.3-5.6-20.4-7.3-29.1-8.2-3.4-0.3-6.9-0.9-10.3-1.5-4.2-0.7-8.1-1.4-11.9-1.6-1 0-1.7-0.9-1.7-1.9 0.1-0.9 0.9-1.7 1.9-1.6 4 0.2 8.2 0.9 12.3 1.6 3.4 0.6 6.8 1.2 10 1.5 9.1 0.9 20.7 2.7 30.7 8.6 0.8 0.5 1.1 1.6 0.6 2.4-0.4 0.6-1 0.9-1.6 0.9zm-16.8-16c-1.4 0-2.9-0.3-4.2-0.9-3.5-1.6-6.1-4.1-7.1-7q-1.2-3.4 0.1-7.1 0.1-0.4 0.2-0.7 0.2-0.4 0.4-0.7 0.1-0.1 0.1-0.2c3.4-5.5 9.2-6.4 13.6-4.7 4.8 1.9 8.8 7.1 7.1 13.6-0.7 2.9-2.8 5.4-5.6 6.7-1.5 0.7-3 1-4.6 1zm-7.4-14.7q-1.5 3.1-0.6 5.6c0.8 2 2.6 3.8 5.3 5 1.8 0.8 3.9 0.8 5.8-0.1 1.8-0.9 3.2-2.5 3.7-4.4 1.2-4.6-1.8-8.1-5-9.3-2.9-1.2-6.8-0.8-9.2 3.2zm5.4 37.5q0.2-0.2 0.4-0.4-0.6 0.5-0.9 1.1c-0.3 0.6-0.5 1.5-0.2 2.1 0.6 1.4 1.7 2 3.1 2 1.9-0.1 3.2-2.1 2.6-3.9-0.7-2-3.6-2.7-5-0.9zm-12.7-2.1c-0.5 0.9-0.3 2.2 0.3 3q0.4 0.7 1.2 1.1c1 0.7 2.5 0.8 3.7 0 1.7-1.1 1.8-3.7 0.2-5.1-0.7-0.6-1.6-0.9-2.5-0.9-1.3 0.1-2.3 0.9-2.9 1.9zm-11 0.9c2.4 3.5 7.9-0.2 5.5-3.8-2.4-3.5-7.9 0.2-5.5 3.8zm6.1 26.4c-0.7 0.8-0.7 1.7-0.5 2.5q0.2 0 0.3 0.2c0 0.3 0.2 0.7 0.5 0.9 0.4 0.5 1.1 0.8 1.9 0.7q-0.6 0-1.1 0 0.1 0.1 0.1 0.1c1 0.4 2.1 0.3 2.9-0.2 0.8-0.6 1.3-1.6 1.2-2.6 0-1.1-0.7-1.9-1.6-2.4-1.2-0.7-2.9-0.3-3.7 0.8zm-0.5 2.5c-0.5 0-1.4 1.7 1.6 1.8q-0.4-0.2-0.8-0.7-0.5-0.4-0.8-1.1zm-11.4-4.2c-0.3 1.1 0.2 2 1 2.8q0 0.1 0.1 0.1c2 2.1 5.8-0.5 4.7-3.2q0-0.1-0.1-0.1c-0.3-0.8-0.8-1.4-1.5-1.8-1-0.4-2.1-0.3-3 0.3-0.6 0.4-1.1 1.1-1.2 1.9zm28.2-54.8c1 1.4 3 1.8 4.4 0.8 1.5-0.9 1.8-2.9 0.9-4.4-1-1.4-3-1.8-4.5-0.8-1.4 0.9-1.8 3-0.8 4.4zm73.5 60.6q0.2 0.1 0.3 0.2c1 0.8 2.5 0.3 2.7-0.9 0.2-1.2-1-2.2-2.1-1.9q-0.2 0.1-0.5 0.2c-1 0.3-1.2 1.7-0.4 2.4zm-4.5 4.3c1 1.6 3.5-0.1 2.4-1.7-1.1-1.5-3.5 0.1-2.4 1.7zm-12.5 10c0 1.2 1.5 1.8 2.4 1.3 0.6-0.3 1-0.7 1-1.4-0.1-0.7-0.5-1.2-1.2-1.4-0.3 0-0.7 0-1 0.1q-0.1 0-0.3 0c-0.6 0.3-0.9 0.7-0.9 1.4zm-5.1 4.5c0.6 0.9 2.9-0.6 2.3-1.5-1.2-1.8-3.5-0.3-2.3 1.5zm-14.8 5.4c0.1 0.3 0.5 0.4 0.8 0.4 0.4 0 0.8-0.1 1-0.4q0.3-0.2 0.5-0.4c0.1-0.1 0.5-0.6 0.3-0.4 0.6-0.8 0-1.8-0.9-1.9-1.4 0-2.4 1.5-1.7 2.7zm-5.4 1.9c1.2 1.8 3.1 0.5 1.9-1.3-0.6-0.9-2.5 0.4-1.9 1.3zm-5.2 1.7q-0.1 0.2-0.2 0.3c0 0.1 0 0.1 0 0.1-0.4 0.5-0.5 1.1-0.1 1.6 0.5 0.8 1.6 0.8 2.2 0.1 0.3-0.2 0.4-0.5 0.5-0.9q0-0.2 0-0.4c0-0.8 0-0.2 0 0 0.1-0.8-0.5-1.4-1.2-1.4-0.3 0-0.7 0.1-0.9 0.3q-0.2 0.1-0.3 0.3zm-12.6 6.5c0.6 0.9 2.7-0.5 2.1-1.4-1.2-1.8-3.3-0.3-2.1 1.4zm-4.8 1.8c0.6 1 2 0.9 2.6 0 0.7-1-0.1-2.1-1.2-1.9q-0.1 0-0.2 0.1c-0.9-0.2-1.9 0.9-1.2 1.8zm-10.6 5.9q0-0.1 0.1-0.1c1.2-1 0-2.8-1.4-2.1q-0.1 0.1-0.1 0.1c-1.4 0.8 0.1 3.1 1.4 2.1zm-8.3 4.6c0.6 0.8 2.9-0.8 2.3-1.6-1.2-1.8-3.5-0.2-2.3 1.6zm-4.5 3c0.8 1.3 2.8 0 1.9-1.3-0.8-1.3-2.8 0.1-1.9 1.3zm-8.1 7.4q0.3 0.1 0.5 0.2c0.7 0.4 1.5-0.1 1.7-0.8 0.1-0.8-0.5-1.5-1.3-1.5q-0.2 0.1-0.5 0.1c-1 0.1-1.3 1.5-0.4 2zm-4.9 4c0.9 1.3 2.9 0 2-1.3-0.9-1.3-2.9 0-2 1.3zm-2.6 4.4c0.8 1.2 2.8-0.1 1.9-1.4-0.8-1.2-2.8 0.1-1.9 1.4zm-5.7 10q0.2 0.1 0.4 0.2c0.7 0.3 1.5 0 1.6-0.8 0.1-0.7-0.4-1.3-1.2-1.3q-0.2 0.1-0.4 0.1c-1 0-1.3 1.4-0.4 1.8zm-2.8 4.8c0.9 1.3 2.9-0.1 2-1.4-0.9-1.3-2.9 0.1-2 1.4zm59.7-88.7c-0.6 0-1.1-0.3-1.5-0.8-0.5-0.8-0.4-1.9 0.4-2.5 10.4-7.3 15-19.5 19.4-31.3 2-5.2 3.9-10.2 6.2-14.6q0.7-1.3 1.4-2.6c5.2-9.9 13-24.8 26.2-20.8 7.7 2.3 12.4 7.5 12.9 14.3 0.6 6.7-3 13.6-8.6 16.4-4.6 2.2-9.7 1.3-14.1-2.7-3.1-2.8-2.8-7.8-0.7-10.9 1.7-2.6 5.2-4.6 9.8-2.5 0.9 0.4 1.3 1.5 0.8 2.4-0.4 0.9-1.4 1.3-2.3 0.9-2.9-1.4-4.5-0.1-5.4 1.2-1.3 2-1.3 5 0.2 6.3 3.3 3 6.8 3.7 10.1 2.1 4.3-2.1 7.1-7.6 6.7-12.9-0.5-5.4-4.1-9.4-10.4-11.2-10.4-3.2-17.1 9.6-22 19q-0.7 1.4-1.4 2.7c-2.2 4.1-4.1 9-6 14.2-4.5 11.7-9.5 25-20.7 32.9q-0.5 0.4-1 0.4zm23.5-40.2q-0.3 0-0.6-0.1c-0.9-0.3-1.4-1.4-1-2.3 7.5-19.3 3.2-25.5 0-27.4-2.3-1.4-4.3-0.4-5.3 0.2-1.8 1.3-3 3.4-2.7 5q0.3 1.9 3.1 2.6c1 0.3 1.5 1.3 1.3 2.2-0.3 1-1.3 1.5-2.2 1.3-4.4-1.2-5.5-4-5.7-5.5-0.5-3 1.2-6.5 4.2-8.5 2.9-2 6.3-2.1 9.1-0.4 7.3 4.5 7.9 15.5 1.5 31.8-0.3 0.7-1 1.1-1.7 1.1zm10.9 20.6c-1.7 0-3.5-0.6-5.2-1.6q-3.4-2.1-3.4-5c-0.1-3.3 3.2-5.7 3.5-5.9 0.9-0.6 2-0.4 2.5 0.5 0.6 0.8 0.4 1.9-0.5 2.4-0.6 0.5-2 1.8-2 2.9 0 0.8 1 1.6 1.8 2.1 2.1 1.3 4.1 1.4 5.8 0.2 2.3-1.5 3.6-4.9 3.1-8-0.5-3.1-2.7-5.2-6-6.1-2.6-0.7-4.9-0.4-7.1 0.9-6.9 4-10.1 16-10.2 16.1-0.2 1-1.2 1.6-2.1 1.3-1-0.2-1.6-1.2-1.3-2.2 0.1-0.5 3.6-13.5 11.8-18.3 3-1.8 6.3-2.2 9.8-1.3 4.7 1.3 7.9 4.6 8.6 9 0.8 4.5-1.1 9.3-4.6 11.6-1.4 0.9-2.9 1.4-4.5 1.4zm-160 142.8c-0.5 0-0.9-0.1-1.2-0.4-9.8-8.7-14.4-23.3-18.1-35-8.9-28.6-0.9-50.2 8.3-75.3 1.5-4 3-8.2 4.5-12.5 13.8-39.6 17-71.5 10.2-100.7-0.2-0.9 0.4-1.9 1.3-2.1 1-0.2 2 0.4 2.2 1.3 6.9 29.8 3.7 62.4-10.3 102.6-1.5 4.4-3.1 8.6-4.6 12.7-9 24.4-16.7 45.5-8.2 72.9 3.6 11.3 8 25.4 17 33.4 0.8 0.7 0.8 1.8 0.2 2.5-0.4 0.4-0.8 0.6-1.3 0.6zm26.6-19.9c-0.6 0-1.2-0.3-1.5-0.9-7.6-13.3-6.6-31.1 3-52.9 2.6-5.9 5.3-11.5 8-16.9 10-20.4 19.4-39.6 15.5-64.9-4.2-26.7-18.9-40.6-36-56.7-3.4-3.2-6.9-6.5-10.5-10.1-0.7-0.7-0.7-1.8 0-2.5 0.7-0.7 1.9-0.7 2.6 0 3.5 3.5 7 6.8 10.3 10 17.6 16.5 32.7 30.8 37.1 58.7 4.1 26.5-5.6 46.2-15.8 67.1-2.7 5.3-5.4 10.9-7.9 16.7-9.1 20.7-10.2 37.4-3.2 49.7 0.4 0.9 0.1 2-0.7 2.5q-0.4 0.2-0.9 0.2zm-19.6 13.3q-0.5 0-0.9-0.3c-10.5-6.7-17.1-33.9-18.2-43-2.1-15.9 2-32.3 5.9-43.3 2.4-6.8 5.2-13.4 7.8-19.8 1.9-4.5 3.8-9.1 5.6-13.8 11.7-30.4 14.5-55.1 8.4-73.4-0.3-1 0.2-2 1.1-2.3 0.9-0.3 2 0.2 2.3 1.1 6.4 19.2 3.5 44.7-8.4 75.9-1.9 4.7-3.8 9.4-5.7 13.9-2.6 6.4-5.4 12.9-7.7 19.6-3.8 10.6-7.8 26.4-5.8 41.6 1.5 11.7 8.4 35.3 16.6 40.5 0.8 0.5 1.1 1.7 0.5 2.5-0.3 0.5-0.9 0.8-1.5 0.8zm11.2-7.3c-0.6 0-1.2-0.3-1.6-0.9-9.2-17.1-6.8-37.1-4.2-45.3 3.1-9.9 7.4-18.8 11.5-27.5 6.2-13 12.6-26.5 15.3-43.7 1.7-10.8 2.6-22.5-1.8-34.6-4.2-11.2-12.2-24.1-21.1-33.6-0.6-0.7-0.6-1.9 0.1-2.5 0.7-0.7 1.9-0.7 2.5 0.1 9.3 10 17.5 23 21.8 34.7 4.7 12.9 3.8 25.2 2 36.5-2.7 17.6-9.3 31.4-15.6 44.6-4 8.6-8.2 17.4-11.3 27.1-2.4 7.7-4.7 26.4 4 42.5 0.4 0.8 0.1 1.9-0.7 2.4q-0.5 0.2-0.9 0.2zm3.2-145.9c-0.7 0-1.4-0.4-1.6-1.1-0.4-0.9 0-1.9 0.9-2.3 4.3-1.8 8.8-3.2 13.2-4.6q1.6-0.5 3.2-1.1c1-0.3 2 0.3 2.3 1.2 0.3 0.9-0.2 1.9-1.2 2.2q-1.6 0.6-3.2 1.1c-4.3 1.3-8.8 2.8-12.9 4.5q-0.4 0.1-0.7 0.1zm-9.1 26.9c-0.7 0-1.4-0.4-1.7-1.1-0.3-0.9 0.1-1.9 1-2.3 8.3-3.5 19.5-6.3 29.8-7.6 1-0.1 1.9 0.6 2 1.6 0.1 0.9-0.6 1.8-1.6 2-10 1.2-20.8 3.9-28.8 7.3q-0.4 0.1-0.7 0.1zm-5.5 17.5c-0.7 0-1.4-0.5-1.7-1.1-0.4-0.9 0.1-2 1-2.4 7.3-3 15.8-2.6 23.9-2.3 2.9 0.2 5.7 0.3 8.3 0.2 1 0.1 1.8 0.8 1.8 1.8 0 1-0.8 1.8-1.7 1.8-2.8 0-5.6-0.1-8.5-0.2-7.8-0.3-15.8-0.7-22.5 2q-0.3 0.2-0.6 0.2zm21.6 23.7q-0.4 0-0.8-0.2c-6-2.7-13.2-2.2-20-1.8-3.7 0.3-7.4 0.5-10.9 0.3-1-0.1-1.8-0.9-1.7-1.9 0-1 0.9-1.7 1.9-1.7 3.3 0.2 6.8 0 10.4-0.2 7.3-0.5 14.9-1 21.8 2.1 0.9 0.4 1.3 1.4 0.9 2.3-0.3 0.7-1 1.1-1.6 1.1zm-9.3 20q-0.4 0-0.8-0.2c-5.5-2.7-12.3-2.3-18.8-2.1-2.8 0.2-5.7 0.3-8.4 0.2-0.9 0-1.7-0.9-1.7-1.9 0.1-0.9 0.9-1.7 1.9-1.7 2.5 0.1 5.2 0 8-0.1 7-0.3 14.2-0.7 20.6 2.4 0.9 0.4 1.2 1.5 0.8 2.3-0.3 0.7-0.9 1.1-1.6 1.1zm-27.9 22.6c-0.8 0-1.5-0.6-1.7-1.4-0.2-0.9 0.3-1.9 1.3-2.2 6.8-1.7 16.2-3.1 22.3-0.2 0.9 0.5 1.2 1.5 0.8 2.4-0.4 0.9-1.5 1.3-2.4 0.9-3.9-2-11-1.8-19.9 0.4q-0.2 0.1-0.4 0.1zm3.8 23.9c-0.7 0-1.4-0.4-1.6-1.1-0.4-0.9 0-2 0.9-2.3 5.8-2.5 11.1-4.5 17.5-4.2 1 0 1.7 0.8 1.7 1.8 0 1-0.9 1.8-1.8 1.7-5.8-0.2-10.7 1.7-16 3.9q-0.4 0.2-0.7 0.2zm5.4 24.6c-0.3 0-0.7-0.1-1-0.4-0.8-0.6-1-1.7-0.4-2.5 4.7-6.1 13.6-11.1 21.5-15.6 2.6-1.5 5-2.8 7-4.1 0.8-0.5 1.9-0.3 2.4 0.5 0.6 0.9 0.3 2-0.5 2.5-2.1 1.3-4.5 2.7-7.2 4.2-7.1 4.1-16.1 9.2-20.3 14.7-0.4 0.5-0.9 0.7-1.5 0.7zm-8.8 8.5q-0.4 0-0.8-0.2c-10.4-5-17.7-11.6-22.9-20.8-7.1-12.6-8.8-17.7-1-30l2.3-3.5 0.9 4.1q0.5 2.1 1 4.4c3.3 14.4 8.1 36.1 21.3 42.2 0.8 0.4 1.2 1.3 1 2.1q-0.1 0.3-0.2 0.6c-0.3 0.7-1 1.1-1.6 1.1zm-23.9-45.2c-4.3 8.2-2.4 12.4 3.3 22.5 2.1 3.7 4.5 6.9 7.4 9.8-5.7-9.8-8.6-22.6-10.7-32.3zm-9.4-6.5q-0.4 0-0.7-0.2c-0.9-0.4-1.3-1.4-0.9-2.3 6.9-15.8 15.6-38 17.3-53.7 3.2-28.5-15.3-52.8-31.4-68.2q-2.3-2.2-4.7-4.5c-6.2-6.1-12.6-12.3-19.5-17.4-0.8-0.6-1-1.7-0.4-2.5 0.6-0.8 1.7-1 2.5-0.4 7.2 5.3 13.6 11.6 19.9 17.7q2.3 2.3 4.7 4.5c16.6 16 35.8 41.3 32.5 71.2-1.8 16.2-10.6 38.7-17.7 54.7-0.3 0.7-0.9 1.1-1.6 1.1zm-36-58.4c-0.7 0-1.3-0.4-1.6-1-12-25.5-13.2-60.1-3.1-88.2 0.4-1 1.4-1.5 2.3-1.1 0.9 0.3 1.4 1.3 1.1 2.3-9.8 27.3-8.7 60.8 2.9 85.5 0.4 0.9 0 1.9-0.8 2.3q-0.4 0.2-0.8 0.2zm35.2 58.9q-0.2 0-0.4 0c-1-0.2-1.6-1.2-1.4-2.1 2.2-10-3.4-23.9-9.4-33.6-4.5-7.3-16.7-21.6-24-22.8-1-0.2-1.6-1.1-1.5-2 0.2-1 1.1-1.7 2.1-1.5 9.6 1.6 22.7 18.4 26.4 24.4 6.4 10.3 12.4 25.3 9.9 36.2-0.2 0.9-0.9 1.4-1.7 1.4zm-6.2-28.3c-0.5 0-1-0.3-1.4-0.7-0.6-0.7-0.5-1.9 0.2-2.5 2.7-2.3 7.3-4.6 12.1-7 3.3-1.7 6.7-3.4 9.2-5 0.9-0.6 2-0.3 2.5 0.5 0.5 0.8 0.3 1.9-0.5 2.5-2.7 1.7-6.2 3.4-9.6 5.2-4.4 2.2-9 4.5-11.4 6.5-0.3 0.3-0.7 0.5-1.1 0.5zm-10-20.1c-0.5 0-1-0.2-1.4-0.7-0.6-0.7-0.5-1.8 0.3-2.5 6-4.6 12.5-8.1 18.9-11.5 4.8-2.5 9.8-5.2 14.4-8.3 0.8-0.6 1.9-0.3 2.4 0.5 0.6 0.8 0.4 1.9-0.4 2.4-4.8 3.3-9.9 6-14.8 8.6-6.2 3.3-12.6 6.7-18.3 11.2q-0.5 0.3-1.1 0.3zm-21.8-20.5c-0.5 0-1-0.2-1.3-0.5-0.7-0.8-0.6-1.9 0.1-2.6 3-2.6 6.5-5.1 9.9-7.5 2.8-2 5.6-4 8.1-6 7-5.8 16.5-12.8 27.8-15.6 0.9-0.3 1.9 0.3 2.1 1.3 0.3 0.9-0.3 1.9-1.3 2.1-10.5 2.7-19.6 9.4-26.3 14.9-2.6 2.2-5.5 4.2-8.3 6.2-3.5 2.4-6.8 4.8-9.6 7.3-0.4 0.3-0.8 0.4-1.2 0.4zm14.1-25.3c-1.7 0-3.3-0.3-4.6-0.9q-3.3-1.6-5-5.2-0.2-0.2-0.3-0.6-0.2-0.4-0.2-0.7-0.1-0.2-0.1-0.3c-1.5-6.3 2-11 6.3-12.9 4.7-2 11.2-1.2 14.6 4.6 1.5 2.6 1.8 5.8 0.8 8.7-1.1 3-3.3 5.3-6.2 6.3-1.8 0.7-3.6 1-5.3 1zm-6.7-8.5q1.1 3.2 3.6 4.3c1.9 0.9 4.5 0.9 7.2-0.1 1.8-0.7 3.3-2.2 4-4.2 0.7-1.9 0.5-4-0.5-5.7-2.4-4.1-6.9-4.5-10.1-3.1-2.8 1.3-5.3 4.2-4.2 8.8zm30.3 22.7q0-0.3 0.1-0.6-0.2 0.8 0.1 1.5c0.2 0.6 0.7 1.3 1.4 1.6 1.3 0.5 2.5 0.2 3.5-0.9 1.3-1.4 0.8-3.7-0.9-4.5-1.9-0.9-4.5 0.6-4.2 2.9zm-10.4 7.5c0.3 1 1.3 1.7 2.3 1.9q0.8 0.2 1.6-0.1c1.3-0.2 2.4-1.2 2.7-2.5 0.4-2.1-1.4-4-3.5-3.9-0.9 0.1-1.8 0.5-2.4 1.2-0.8 1-1 2.2-0.7 3.4zm-6.6 8.5c4.2 0.8 5.4-5.8 1.2-6.6-4.2-0.8-5.4 5.8-1.2 6.6zm22.4 14.3c0.1 1 0.7 1.7 1.4 2.1q0.2-0.2 0.4 0c0.2 0.1 0.6 0.2 1 0.2 0.6 0 1.3-0.2 1.8-0.8q-0.4 0.4-0.7 0.7 0 0 0.1 0c0.9-0.4 1.7-1.2 1.8-2.2 0.2-1-0.1-2-0.9-2.7-0.8-0.7-1.8-0.8-2.8-0.5-1.4 0.4-2.3 1.8-2.1 3.2zm1.4 2.1c-0.3 0.3 0.2 2.2 2.5 0.1q-0.5 0.2-1.1 0.1-0.7 0.1-1.4-0.2zm-11.1 5.3c0.7 1 1.7 1.6 2.8 1.6q0 0 0.1 0c2.9 0 3.8-4.8 1.1-5.9-0.1 0-0.1-0.1-0.2-0.1-0.7-0.3-1.5-0.5-2.3-0.2-1 0.3-1.7 1.3-1.9 2.3-0.2 0.8 0 1.7 0.4 2.3zm-18.7-58.9c1.7 0.3 3.4-0.8 3.7-2.5 0.3-1.8-0.8-3.4-2.5-3.8-1.7-0.3-3.4 0.9-3.7 2.6-0.4 1.7 0.8 3.4 2.5 3.7zm94.8-9.2q0.2 0 0.4 0c1.2-0.2 1.9-1.5 1.2-2.6-0.7-1-2.2-0.8-2.8 0.2q-0.1 0.2-0.2 0.4c-0.5 0.9 0.3 2.2 1.4 2zm0.4 6.4c1 0.2 1.6-2.7 0.5-2.9-2.1-0.4-2.6 2.5-0.5 2.9zm-1.8 16.9c0.8 0.9 2.3 0.2 2.6-0.8 0.2-0.6 0.2-1.2-0.3-1.7-0.5-0.4-1.2-0.4-1.8-0.1-0.3 0.2-0.5 0.5-0.7 0.8q-0.1 0.1-0.1 0.2c-0.3 0.6-0.2 1.1 0.3 1.6zm-0.4 5.8c1.1 0.2 1.6-2.5 0.5-2.7-2.1-0.4-2.6 2.3-0.5 2.7zm-7.2 14.2c0.3 0.1 0.7-0.1 0.9-0.3 0.3-0.3 0.4-0.6 0.5-1q0-0.4 0-0.7c0-0.1-0.1-0.7-0.1-0.4-0.1-1.1-1.3-1.4-2-0.7-1 0.9-0.6 2.7 0.7 3.1zm-1.9 5.2c2.1 0.4 2.5-1.9 0.4-2.3-1-0.2-1.5 2.1-0.4 2.3zm-3 4.8q0 0.2 0.1 0.4c0 0 0 0 0 0.1 0.1 0.6 0.5 1 1.1 1.2 1 0.1 1.6-0.6 1.7-1.5 0-0.4-0.2-0.7-0.4-1q-0.1-0.2-0.2-0.3c-0.6-0.6-0.2-0.1-0.1 0-0.5-0.6-1.3-0.7-1.8-0.1-0.2 0.2-0.4 0.5-0.4 0.8q-0.1 0.2 0 0.4zm-3.8 13.6c1 0.2 1.5-2.3 0.5-2.5-2.1-0.4-2.6 2.1-0.5 2.5zm-2.2 5.7c1.1 0.2 2-0.7 1.9-1.9-0.2-1.1-1.6-1.4-2.2-0.4q-0.1 0.1-0.1 0.2c-0.8 0.5-0.7 1.9 0.4 2.1zm-3.8 10.6q0-0.1 0-0.2c0.2-1.6-2-2-2.4-0.5q0 0.1-0.1 0.2c-0.4 1.5 2.3 2.1 2.5 0.5zm-2.1 9.2c1 0.2 1.6-2.6 0.5-2.8-2.1-0.4-2.6 2.4-0.5 2.8zm-1 5.3c1 0.2 1.4-2.1 0.4-2.3-2.1-0.4-2.5 1.9-0.4 2.3zm-1 10.8q0.2-0.1 0.5-0.1c0.7-0.3 1-1.2 0.5-1.9-0.4-0.6-1.4-0.7-1.9-0.1q-0.1 0.2-0.3 0.4c-0.7 0.8 0.2 2 1.2 1.7zm-0.2 6.4c1.1 0.2 1.5-2.1 0.5-2.3-2.1-0.4-2.6 1.9-0.5 2.3zm1.3 5c1 0.2 1.5-2.1 0.4-2.3-2.1-0.5-2.5 1.9-0.4 2.3zm2.5 11q0.3-0.1 0.5-0.2c0.7-0.2 1-1 0.5-1.6-0.4-0.6-1.2-0.7-1.7-0.1q-0.2 0.1-0.3 0.3c-0.7 0.7 0.1 2 1 1.6zm1.9 5.5c1.1 0.2 1.6-2.3 0.5-2.5-2.1-0.4-2.6 2.1-0.5 2.5zm-22.3-104.6q-0.1 0-0.3 0c-0.9-0.2-1.6-1.1-1.4-2.1 2.1-12.4-3.3-24.3-8.5-35.8-2.3-5.1-4.5-10-5.9-14.7q-0.4-1.4-0.9-2.9c-3.3-10.6-8.4-26.7 3.8-33.2 7.1-3.8 14.1-3.4 19.3 1 5.2 4.4 7.5 11.8 5.5 17.7-1.7 4.8-6 7.8-11.9 8.1-4.1 0.2-7.5-3.6-8.2-7.2-0.6-3.1 0.4-7 5.2-8.7 0.9-0.3 1.9 0.1 2.3 1.1 0.3 0.9-0.2 1.9-1.1 2.2-3 1.1-3.2 3.2-2.9 4.7 0.5 2.4 2.6 4.4 4.5 4.3 4.5-0.2 7.5-2.2 8.7-5.7 1.5-4.4-0.4-10.4-4.4-13.8-4.1-3.4-9.5-3.7-15.3-0.6-9.6 5.2-5.3 19-2.1 29.1q0.5 1.5 0.9 2.8c1.4 4.6 3.5 9.3 5.8 14.4 5.1 11.4 11 24.3 8.7 37.8-0.2 0.9-0.9 1.5-1.8 1.5zm-11.7-45c-0.7 0-1.3-0.4-1.6-1.1-8.3-18.9-15.8-20.3-19.4-19.4-2.5 0.6-3.3 2.7-3.5 3.9-0.5 2.2 0.2 4.5 1.6 5.5q1.5 1.1 4-0.4c0.9-0.5 1.9-0.2 2.4 0.7 0.5 0.8 0.2 1.9-0.6 2.4-3.9 2.3-6.6 1.1-7.9 0.2-2.5-1.8-3.7-5.5-3-9 0.6-3.4 2.9-6 6.1-6.7 8.4-2.1 16.5 5.4 23.5 21.4 0.4 0.9 0 2-0.9 2.4q-0.3 0.1-0.7 0.1zm8.4 20.5c-0.6 0-1.2-0.4-1.5-0.9-0.3-0.5-7-12.2-4.6-21.3 0.9-3.4 2.9-6.1 6-7.8 4.2-2.5 8.8-2.4 12.5 0.2 3.7 2.6 5.7 7.4 4.9 11.4-0.7 3.4-3.2 5.9-7 6.8q-3.9 0.9-6-1.2c-2.4-2.2-1.7-6.2-1.6-6.6 0.2-1 1.1-1.6 2.1-1.5 0.9 0.2 1.6 1.2 1.4 2.1-0.2 0.8-0.2 2.7 0.6 3.5 0.6 0.5 1.8 0.4 2.7 0.2 2.4-0.6 3.9-1.9 4.3-4 0.5-2.7-0.9-6-3.5-7.8-2.5-1.8-5.6-1.8-8.6-0.1-2.3 1.3-3.7 3.2-4.4 5.7-2 7.7 4.2 18.5 4.3 18.6 0.5 0.8 0.2 1.9-0.7 2.4q-0.4 0.3-0.9 0.3zm-0.3 200.6c-12.4 0-25.1-6.7-35.4-12.1-26.5-13.9-36.2-34.8-47.4-59-1.8-4-3.7-8-5.7-12.1-18.2-37.7-38.5-62.6-63.9-78.4-0.9-0.5-1.1-1.6-0.6-2.4 0.5-0.9 1.6-1.1 2.5-0.6 25.9 16.2 46.7 41.5 65.2 79.8 2 4.2 3.9 8.2 5.7 12.2 11 23.6 20.4 44 45.8 57.4 10.5 5.5 23.5 12.3 35.7 11.6 0.9-0.1 1.8 0.6 1.8 1.6 0.1 1-0.6 1.9-1.6 1.9q-1 0.1-2.1 0.1zm6.7-33q-0.2 0-0.5-0.1c-14.7-4.1-26.6-17.4-35.2-39.6-2.4-5.9-4.4-11.8-6.3-17.5-7.4-21.5-14.3-41.7-35-56.9-21.8-15.9-42-15.3-65.5-14.7-4.7 0.2-9.5 0.3-14.5 0.3q0 0 0 0c-1 0-1.8-0.8-1.8-1.7 0-1 0.8-1.8 1.8-1.8 4.9 0 9.8-0.2 14.4-0.3 24.1-0.7 45-1.3 67.7 15.4 21.6 15.7 28.7 36.5 36.2 58.5 2 5.7 4 11.6 6.3 17.4 8.2 21.1 19.3 33.7 32.9 37.5 0.9 0.2 1.5 1.2 1.2 2.2-0.2 0.8-0.9 1.3-1.7 1.3zm-7.3 23.5c-12.7 0-33.3-12.7-40.1-17.9-12.7-9.7-21.3-24.3-26.3-34.8-3.1-6.5-5.9-13.1-8.5-19.5-1.8-4.5-3.8-9.1-5.8-13.7-13.2-29.8-28.7-49.2-46-57.9-0.9-0.4-1.3-1.5-0.8-2.3 0.4-0.9 1.5-1.3 2.4-0.8 18 9 34.1 29 47.7 59.5 2 4.7 3.9 9.4 5.8 13.9 2.6 6.3 5.3 12.9 8.4 19.3 4.8 10.1 13.1 24.2 25.3 33.5 9.4 7.2 30.9 19 40.4 16.9 1-0.2 1.9 0.4 2.1 1.4 0.2 0.9-0.4 1.9-1.3 2.1q-1.6 0.3-3.3 0.3zm5.6-13.3q-0.2 0-0.5-0.1c-18.6-5.6-31-21.4-35-29-4.8-9.2-8.1-18.6-11.3-27.6-4.8-13.6-9.8-27.7-20.1-41.7-6.5-8.8-14.1-17.8-25.8-23.2-10.8-5-25.6-8.4-38.6-8.9-1 0-1.7-0.8-1.7-1.8 0-1 0.9-1.8 1.8-1.7 13.7 0.5 28.6 3.9 40 9.2 12.5 5.7 20.4 15.1 27.2 24.3 10.6 14.4 15.6 28.8 20.6 42.6 3.1 8.9 6.4 18.1 11.1 27.1 3.7 7.2 15.4 22.1 32.8 27.3 1 0.3 1.5 1.3 1.2 2.2-0.2 0.8-0.9 1.3-1.7 1.3zm-100.9-105.4q-0.3 0-0.7-0.2c-0.9-0.4-1.3-1.4-0.9-2.3 1.8-4.3 3.9-8.5 6.1-12.6q0.7-1.5 1.5-3c0.5-0.9 1.5-1.2 2.4-0.8 0.9 0.5 1.2 1.5 0.8 2.4q-0.8 1.5-1.6 3c-2.1 4-4.2 8.2-5.9 12.4-0.3 0.6-1 1.1-1.7 1.1zm12.6 25.4q-0.3 0-0.7-0.1c-0.9-0.4-1.3-1.4-0.9-2.3 3.4-8.4 9.3-18.2 15.7-26.5 0.6-0.7 1.7-0.9 2.5-0.3 0.7 0.6 0.9 1.7 0.3 2.5-6.2 8-11.9 17.6-15.3 25.6-0.2 0.7-0.9 1.1-1.6 1.1zm8.4 16.3q-0.3 0-0.6-0.2c-1-0.4-1.4-1.4-1-2.3 3.1-7.3 9.3-13 15.3-18.6 2.1-1.9 4.2-3.8 6-5.7 0.7-0.7 1.8-0.7 2.5 0 0.7 0.7 0.7 1.8 0 2.5-1.9 2-3.9 3.9-6.1 5.9-5.7 5.2-11.7 10.7-14.4 17.3-0.3 0.6-1 1.1-1.7 1.1zm8.5 22.6c-0.5 0-0.9-0.2-1.3-0.6-0.6-0.7-0.6-1.9 0.2-2.5 2.5-2.2 4.7-4.8 7.2-7.6 4.8-5.5 9.8-11.2 16.8-13.9 0.9-0.3 2 0.1 2.3 1 0.4 1-0.1 2-1 2.3-6.2 2.4-10.9 7.8-15.5 13-2.4 2.7-4.8 5.5-7.5 7.9-0.3 0.3-0.7 0.4-1.2 0.4zm10 17.8c-0.5 0-1-0.2-1.3-0.6-0.7-0.7-0.7-1.8 0.1-2.5 1.8-1.7 3.6-3.7 5.5-5.8 4.8-5.1 9.6-10.5 16.3-12.8 0.9-0.4 1.9 0.1 2.2 1.1 0.4 0.9-0.1 1.9-1.1 2.2-5.7 2.1-10.3 7.1-14.7 11.9-1.9 2.1-3.8 4.2-5.8 6-0.4 0.3-0.8 0.5-1.2 0.5zm17.4 17.4q-0.5 0-0.9-0.2c-0.8-0.5-1.1-1.6-0.6-2.5 3.6-6 9.3-13.7 15.6-15.9 0.9-0.3 2 0.2 2.3 1.1 0.3 0.9-0.2 2-1.1 2.3-4.2 1.4-9.1 6.5-13.8 14.4-0.3 0.5-0.9 0.8-1.5 0.8zm19.6 14.3q-0.3 0-0.7-0.1c-0.9-0.4-1.3-1.5-1-2.4 2.4-5.8 4.7-10.9 9.4-15.3 0.8-0.7 1.9-0.6 2.6 0.1 0.6 0.7 0.6 1.8-0.1 2.5-4.2 3.9-6.4 8.7-8.6 14.1-0.2 0.7-0.9 1.1-1.6 1.1zm21.3 13.5c-0.9 0-1.7-0.6-1.8-1.5-1-7.7 1.7-17.5 4.1-26.2 0.8-2.9 1.5-5.6 2-7.9 0.3-0.9 1.2-1.6 2.2-1.3 0.9 0.2 1.5 1.1 1.3 2.1-0.5 2.4-1.3 5.1-2.1 8-2.1 8-4.9 17.9-4 24.8 0.1 1-0.5 1.9-1.5 2q-0.1 0-0.2 0zm-17.8 15.5c-4.3 0-8.5-0.6-12.8-1.8-14-3.9-18.8-6.3-21.9-20.5l-0.9-4.1 3.6 2.2q1.8 1.1 3.8 2.4c12.4 7.9 31.3 19.8 44.9 14.8 0.8-0.3 1.7 0.1 2.1 0.8q0.2 0.3 0.4 0.6c0.3 0.9-0.2 1.9-1.1 2.3-6.3 2.2-12.2 3.3-18.1 3.3zm-30.1-18.8c2.8 8.9 7.1 10.5 18.3 13.6 4 1.1 7.9 1.7 11.9 1.7q0.1 0 0.2 0c-10.9-2.9-22-10-30.4-15.3zm-12.5 2.6c-0.7 0-1.4-0.5-1.7-1.2-6.2-16.1-15.7-37.8-25.6-50.2-18-22.4-48.2-26.5-70.5-26q-3.2 0.1-6.5 0.1c-8.6 0.1-17.6 0.2-26.1 1.5-1 0.2-1.9-0.5-2-1.5-0.2-0.9 0.5-1.8 1.5-2 8.7-1.3 17.8-1.4 26.6-1.6q3.2 0 6.4-0.1c23.1-0.5 54.5 3.9 73.3 27.4 10.2 12.7 19.9 34.8 26.3 51.1 0.3 1-0.1 2-1.1 2.4q-0.3 0.1-0.6 0.1zm-66.7-15.8q-0.3 0-0.6-0.1c-26.5-9.6-51.8-33.2-64.6-60.3-0.4-0.9 0-1.9 0.9-2.3 0.9-0.5 1.9-0.1 2.3 0.8 12.4 26.2 37 49.2 62.6 58.4 0.9 0.3 1.4 1.4 1 2.3-0.2 0.7-0.9 1.2-1.6 1.2zm66.5 16.8c-0.6 0-1.2-0.3-1.5-0.9-5.5-8.6-19.3-14.4-30.4-17.1-8.4-1.9-27.1-3.4-33.1 0.9-0.8 0.6-1.9 0.4-2.5-0.4-0.6-0.8-0.4-1.9 0.4-2.5 8-5.7 29.2-3 36-1.4 11.8 2.8 26.6 9.1 32.6 18.6 0.5 0.9 0.3 2-0.5 2.5q-0.5 0.3-1 0.3zm-24.4-15.7q-0.1 0-0.2 0c-1-0.1-1.7-1-1.6-2 0.3-3.5 1.9-8.3 3.6-13.5 1.1-3.5 2.3-7.1 2.9-10.1 0.3-0.9 1.2-1.5 2.2-1.3 0.9 0.2 1.5 1.1 1.3 2.1-0.7 3.1-1.9 6.8-3.1 10.4-1.5 4.7-3.1 9.6-3.4 12.7 0 1-0.8 1.7-1.7 1.7zm-21.2-7.2q-0.1 0-0.3 0c-0.9-0.1-1.6-1-1.5-2 0.9-7.4 3.1-14.5 5.2-21.4 1.6-5.2 3.2-10.7 4.3-16.1 0.2-1 1.1-1.6 2-1.4 1 0.2 1.6 1.1 1.5 2.1-1.1 5.6-2.8 11.1-4.4 16.4-2.1 6.8-4.2 13.7-5.1 20.9-0.1 0.9-0.9 1.5-1.7 1.5zm-30 1q0 0-0.1 0c-0.9-0.1-1.7-0.9-1.6-1.9 0.2-4 0.9-8.2 1.6-12.4 0.6-3.3 1.2-6.7 1.5-9.9 0.9-9.1 2.7-20.7 8.6-30.7 0.5-0.8 1.6-1.1 2.4-0.6 0.9 0.5 1.2 1.6 0.7 2.5-5.6 9.3-7.3 20.4-8.1 29.1-0.4 3.4-1 6.9-1.6 10.3-0.7 4.2-1.4 8.1-1.6 11.9 0 1-0.8 1.7-1.8 1.7zm-13.9-25.2q-1.8 0-3.8-0.7-0.4-0.1-0.7-0.2-0.4-0.2-0.7-0.4-0.1-0.1-0.2-0.1c-5.5-3.4-6.3-9.2-4.7-13.6 1.9-4.8 7.1-8.8 13.6-7.1 2.9 0.7 5.4 2.8 6.7 5.6 1.4 2.9 1.4 6.1 0.1 8.8-1.6 3.5-4.1 6.1-7 7.1q-1.6 0.6-3.3 0.6zm-3.5-4.5q3.1 1.5 5.6 0.6c2-0.8 3.8-2.6 5-5.3 0.8-1.8 0.8-3.9-0.1-5.8-0.9-1.8-2.5-3.2-4.4-3.7-4.6-1.2-8.1 1.8-9.3 5-1.1 2.9-0.8 6.8 3.2 9.2zm37.5-5.4q-0.2-0.2-0.4-0.4 0.5 0.6 1.1 0.9c0.6 0.3 1.5 0.5 2.1 0.2 1.4-0.6 2-1.7 2-3.1-0.1-1.9-2.1-3.2-3.9-2.6-2 0.7-2.7 3.6-0.9 5zm-2 12.7c0.9 0.5 2.1 0.3 2.9-0.3q0.7-0.4 1.1-1.2c0.7-1 0.8-2.5 0.1-3.7-1.2-1.7-3.8-1.8-5.2-0.2-0.6 0.7-0.9 1.6-0.9 2.5 0.1 1.3 0.9 2.3 2 2.9zm1.2 10.7c3.6-2.4-0.2-7.9-3.7-5.5-3.5 2.4 0.2 7.9 3.7 5.5zm26-5.8c0.8 0.7 1.7 0.7 2.5 0.5q0-0.2 0.2-0.3c0.4 0 0.7-0.2 0.9-0.5 0.5-0.5 0.8-1.1 0.7-1.9q0.1 0.6 0 1.1 0.1-0.1 0.1-0.1c0.4-1 0.3-2.1-0.2-2.9-0.6-0.8-1.6-1.3-2.6-1.2-1.1 0-1.9 0.7-2.4 1.6-0.7 1.2-0.3 2.9 0.8 3.7zm2.5 0.5c0 0.5 1.7 1.5 1.8-1.6q-0.2 0.4-0.7 0.8-0.4 0.5-1.1 0.8zm-4.2 11.4c1.1 0.3 2-0.2 2.8-1q0.1 0 0.1-0.1c2.1-2-0.5-5.8-3.2-4.7q0 0-0.1 0.1c-0.8 0.3-1.4 0.8-1.8 1.5-0.4 1-0.3 2.1 0.3 3 0.4 0.6 1.1 1.1 1.9 1.2zm-54.8-28.2c1.4-1 1.8-3 0.9-4.4-1-1.5-3-1.8-4.5-0.9-1.4 1-1.8 3-0.8 4.5 1 1.4 3 1.8 4.4 0.8zm60.6-73.5q0.1-0.2 0.2-0.3c0.8-1 0.3-2.5-0.9-2.7-1.2-0.2-2.2 1-1.9 2.1q0.1 0.2 0.2 0.4c0.3 1.1 1.7 1.3 2.4 0.5zm4.8 4.2c0.8-0.6-0.8-3-1.7-2.4-1.8 1.2-0.1 3.6 1.7 2.4zm11.1 14.4c1.2 0 1.8-1.5 1.3-2.4-0.3-0.6-0.7-1-1.4-1-0.7 0.1-1.2 0.5-1.3 1.2-0.1 0.3-0.1 0.7 0 1q0 0.1 0 0.3c0.3 0.6 0.7 0.9 1.4 0.9zm3.4 3.2c0.8-0.6-0.7-2.9-1.6-2.3-1.7 1.2-0.2 3.5 1.6 2.3zm4.9 15.1c0.3-0.1 0.4-0.5 0.4-0.8 0-0.4-0.1-0.8-0.3-1q-0.3-0.3-0.5-0.6c-0.1 0-0.6-0.4-0.4-0.2-0.8-0.6-1.8-0.1-1.9 0.9 0 1.4 1.5 2.4 2.7 1.7zm2.3 5.1c1.8-1.2 0.5-3.1-1.3-1.9-0.8 0.6 0.5 2.5 1.3 1.9zm1.3 5.5q0.2 0.1 0.3 0.2c0.1 0 0.1 0 0.1 0 0.5 0.4 1.1 0.5 1.6 0.1 0.8-0.6 0.8-1.6 0.2-2.2-0.3-0.3-0.6-0.4-0.9-0.5q-0.3 0-0.5 0c-0.8 0-0.2 0 0 0-0.8-0.1-1.4 0.4-1.4 1.2 0 0.3 0.1 0.7 0.3 0.9q0.1 0.2 0.3 0.3zm7 12.3c0.9-0.6-0.6-2.7-1.5-2.1-1.7 1.2-0.3 3.3 1.5 2.1zm2.9 6.7c1-0.6 0.9-2 0-2.6-1-0.7-2.1 0.1-1.9 1.2q0.1 0.1 0.1 0.2c-0.2 0.9 0.9 1.9 1.8 1.2zm4.3 9q-0.1 0-0.1-0.1c-1-1.2-2.8 0-2.1 1.4q0.1 0.1 0.1 0.1c0.8 1.4 3.1-0.1 2.1-1.4zm5 8c0.9-0.6-0.7-2.9-1.6-2.3-1.8 1.2-0.2 3.5 1.6 2.3zm3.1 4.5c0.9-0.6-0.5-2.5-1.4-1.9-1.7 1.2-0.4 3.1 1.4 1.9zm6.9 8.4q0.1-0.3 0.2-0.5c0.4-0.7-0.1-1.5-0.8-1.7-0.8-0.1-1.5 0.5-1.5 1.3q0.1 0.2 0.1 0.5c0.1 1 1.5 1.3 2 0.4zm4.5 4.6c0.8-0.6-0.5-2.6-1.4-2-1.8 1.2-0.4 3.2 1.4 2zm4.3 2.6c0.9-0.6-0.4-2.5-1.3-1.9-1.8 1.2-0.5 3.1 1.3 1.9zm9.6 6q0.1-0.2 0.2-0.4c0.3-0.7 0-1.5-0.8-1.6-0.7-0.1-1.3 0.4-1.3 1.2q0.1 0.2 0.1 0.4c0 1 1.4 1.3 1.8 0.4zm5.2 2.5c0.9-0.6-0.5-2.6-1.3-2-1.8 1.2-0.4 3.2 1.3 2zm-90.9-57.6c-0.6 0-1.1-0.3-1.5-0.7-7.3-10.4-19.5-15-31.3-19.4-5.2-2-10.2-3.9-14.6-6.3q-1.3-0.6-2.6-1.3c-9.9-5.2-24.8-13-20.8-26.2 2.3-7.7 7.5-12.4 14.3-12.9 6.8-0.6 13.6 3 16.4 8.6 2.3 4.6 1.3 9.7-2.7 14.1-2.8 3.1-7.8 2.8-10.9 0.7-2.6-1.7-4.6-5.2-2.5-9.8 0.5-0.9 1.5-1.3 2.4-0.8 0.9 0.4 1.3 1.4 0.9 2.3-1.4 2.9-0.1 4.5 1.2 5.4 2 1.3 5 1.3 6.3-0.2 3-3.3 3.7-6.8 2.1-10.1-2.1-4.3-7.6-7.1-12.9-6.7-5.4 0.5-9.3 4.1-11.2 10.4-3.2 10.4 9.7 17.1 19 22q1.4 0.7 2.7 1.4c4.2 2.2 9 4.1 14.2 6 11.7 4.5 25 9.5 32.9 20.7 0.6 0.8 0.4 1.9-0.4 2.5q-0.5 0.3-1 0.3zm-63.4-12.1c-2.8 0-5.7-1.7-7.5-4.3-1.9-2.9-2.1-6.3-0.4-9.1 4.5-7.3 15.5-7.9 31.8-1.5 0.9 0.4 1.4 1.4 1 2.3-0.3 0.9-1.4 1.4-2.3 1-19.3-7.5-25.5-3.2-27.4 0-1.4 2.2-0.4 4.3 0.3 5.3 1.2 1.8 3.3 3 4.9 2.7q1.9-0.3 2.6-3.1c0.3-1 1.3-1.5 2.2-1.3 1 0.3 1.5 1.3 1.3 2.2-1.2 4.4-3.9 5.4-5.5 5.7q-0.5 0.1-1 0.1zm43.7-2.9q-0.2 0-0.5-0.1c-0.5-0.1-13.5-3.6-18.3-11.8-1.8-3-2.2-6.3-1.3-9.8 1.3-4.7 4.6-7.9 9-8.6 4.5-0.8 9.3 1.1 11.6 4.6 1.9 2.9 1.8 6.4-0.2 9.7q-2.1 3.4-5 3.4c-3.4 0.1-5.6-3.2-5.9-3.6-0.6-0.8-0.3-1.9 0.5-2.4 0.8-0.6 1.9-0.4 2.4 0.4 0.5 0.7 1.8 2.1 2.9 2.1q0 0 0 0c0.8 0 1.6-1 2.1-1.8 1.3-2.1 1.4-4.1 0.2-5.8-1.5-2.3-4.9-3.6-8-3.1-3.1 0.5-5.2 2.6-6.1 6-0.7 2.6-0.4 4.9 0.9 7.1 4 6.9 16 10.1 16.1 10.2 1 0.2 1.6 1.2 1.3 2.1-0.2 0.8-0.9 1.4-1.7 1.4zm84.5 162c-17.4 0-33.1-5.8-50.5-12.2-4-1.5-8.2-3-12.5-4.5-39.6-13.8-71.5-17-100.6-10.2-1 0.2-2-0.4-2.2-1.3-0.2-1 0.4-2 1.3-2.2 29.9-6.9 62.5-3.6 102.6 10.3 4.4 1.5 8.6 3.1 12.7 4.6 24.4 9 45.5 16.7 72.9 8.2 11.3-3.6 25.4-7.9 33.4-17 0.7-0.8 1.8-0.8 2.5-0.2 0.8 0.7 0.8 1.8 0.2 2.5-8.7 9.9-23.3 14.4-35 18.1-8.8 2.7-17 3.9-24.8 3.9zm-163.3-27.8c-0.5 0-0.9-0.2-1.3-0.5-0.7-0.7-0.7-1.8 0-2.5 3.5-3.6 6.8-7.1 10-10.4 16.6-17.6 30.9-32.7 58.8-37.1 26.4-4.1 46.1 5.6 67 15.8 5.3 2.7 10.9 5.4 16.7 7.9 20.7 9.1 37.4 10.2 49.7 3.2 0.9-0.4 2-0.1 2.5 0.7 0.4 0.9 0.1 2-0.7 2.4-13.3 7.6-31.1 6.6-52.9-3-5.9-2.6-11.5-5.3-16.9-8-20.4-9.9-39.6-19.4-64.9-15.5-26.7 4.2-40.6 18.9-56.7 36-3.2 3.4-6.5 6.9-10.1 10.5-0.3 0.3-0.8 0.5-1.2 0.5zm164.8 17.3c-13 0-25.6-3.3-34.5-6.5-6.8-2.4-13.4-5.1-19.7-7.8-4.5-1.9-9.2-3.8-13.9-5.6-30.4-11.7-55.1-14.5-73.4-8.4-0.9 0.3-2-0.2-2.3-1.1-0.3-0.9 0.2-2 1.2-2.3 19.1-6.4 44.6-3.5 75.8 8.4 4.7 1.9 9.4 3.8 13.9 5.7 6.4 2.7 12.9 5.4 19.6 7.7 10.6 3.8 26.4 7.8 41.6 5.8 11.7-1.5 35.3-8.4 40.5-16.6 0.5-0.8 1.6-1.1 2.5-0.5 0.8 0.5 1 1.6 0.5 2.4-6.7 10.5-33.9 17.1-43 18.3q-4.4 0.5-8.8 0.5zm16-22.8c-7.4 0-13.6-1.1-17.4-2.3-9.9-3.1-18.8-7.4-27.5-11.5-13-6.2-26.5-12.6-43.7-15.3-10.8-1.7-22.5-2.6-34.6 1.8-11.2 4.2-24.1 12.2-33.6 21.1-0.7 0.6-1.8 0.6-2.5-0.1-0.7-0.7-0.6-1.9 0.1-2.5 10-9.3 23-17.5 34.8-21.8 12.8-4.7 25.1-3.8 36.4-2 17.6 2.7 31.4 9.3 44.6 15.6 8.6 4 17.4 8.3 27.1 11.3 7.7 2.4 26.4 4.7 42.5-4 0.8-0.4 1.9-0.1 2.4 0.7 0.5 0.9 0.1 2-0.7 2.5-9.3 4.9-19.3 6.5-27.9 6.5zm-118.9-9.5c-0.7 0-1.3-0.4-1.6-1.1-1.8-4.3-3.2-8.8-4.6-13.2q-0.5-1.7-1-3.2c-0.3-1 0.2-2 1.1-2.3 0.9-0.3 1.9 0.2 2.2 1.2q0.6 1.6 1.1 3.2c1.3 4.3 2.8 8.8 4.5 12.9 0.4 0.9-0.1 2-1 2.3q-0.3 0.2-0.7 0.2zm26.9 9.1c-0.6 0-1.3-0.4-1.6-1.1-3.5-8.3-6.3-19.5-7.6-29.8-0.1-1 0.6-1.9 1.6-2 1-0.1 1.8 0.6 2 1.6 1.2 10 3.9 20.8 7.3 28.8 0.4 1-0.1 2-1 2.4q-0.3 0.1-0.7 0.1zm17.5 5.5c-0.7 0-1.4-0.4-1.7-1.1-3-7.3-2.6-15.8-2.3-23.9 0.2-2.9 0.3-5.7 0.3-8.3-0.1-1 0.7-1.8 1.7-1.8 0.9 0 1.8 0.8 1.8 1.8 0 2.7-0.1 5.5-0.2 8.4-0.3 7.8-0.7 15.8 2 22.5 0.4 0.9 0 1.9-0.9 2.3q-0.4 0.1-0.7 0.1zm22 10q0 0-0.1 0c-1 0-1.7-0.9-1.7-1.9 0.2-3.3 0-6.8-0.2-10.4-0.5-7.3-1-14.9 2.1-21.8 0.4-0.9 1.4-1.3 2.3-0.9 0.9 0.4 1.3 1.5 0.9 2.4-2.7 6-2.2 13.2-1.8 20 0.3 3.7 0.5 7.4 0.3 10.9-0.1 1-0.9 1.7-1.8 1.7zm19.6 5.6q0 0-0.1 0c-0.9-0.1-1.7-0.9-1.7-1.9 0.1-2.5 0-5.2-0.1-8-0.3-7-0.6-14.2 2.4-20.6 0.4-0.9 1.5-1.2 2.3-0.8 0.9 0.4 1.3 1.5 0.9 2.4-2.7 5.5-2.3 12.3-2 18.8 0.1 2.8 0.2 5.7 0.1 8.4 0 0.9-0.8 1.7-1.8 1.7zm24.7 0c-0.8 0-1.6-0.6-1.8-1.4-1.7-6.8-3.1-16.2-0.2-22.3 0.5-0.9 1.5-1.2 2.4-0.8 0.9 0.4 1.3 1.5 0.9 2.4-2 3.9-1.8 11 0.4 19.9 0.2 0.9-0.3 1.9-1.3 2.1q-0.2 0.1-0.4 0.1zm23.9-3.8c-0.7 0-1.3-0.4-1.6-1.1-2.5-5.7-4.5-11-4.2-17.5 0-1 0.8-1.8 1.8-1.7 1 0 1.8 0.9 1.7 1.9-0.2 5.7 1.7 10.6 3.9 15.9 0.4 0.9 0 2-0.9 2.4q-0.3 0.1-0.7 0.1zm24.6-5.5q-0.6 0-1.1-0.3c-6.1-4.7-11.1-13.6-15.6-21.5-1.5-2.5-2.8-5-4.1-7-0.5-0.8-0.3-1.9 0.5-2.4 0.9-0.6 2-0.3 2.5 0.5 1.3 2.1 2.7 4.6 4.2 7.2 4.1 7.1 9.2 16.1 14.7 20.4 0.8 0.6 0.9 1.7 0.3 2.5-0.3 0.4-0.9 0.6-1.4 0.6zm-27 36.9c-4 0-8.1-1.5-13.7-5.1l-3.5-2.3 4.1-0.9q2.1-0.5 4.4-1c14.4-3.3 36.1-8.1 42.2-21.3 0.4-0.8 1.3-1.2 2.1-0.9q0.3 0 0.6 0.1c0.9 0.4 1.3 1.5 0.9 2.4-5 10.4-11.6 17.7-20.8 22.9-6.8 3.9-11.5 6.1-16.3 6.1zm-7.9-5.9c8.2 4.3 12.4 2.4 22.5-3.3 3.7-2.1 6.9-4.5 9.8-7.4-9.8 5.7-22.6 8.6-32.3 10.7zm-154.2 50.1q-0.6 0-1.1-0.4c-0.8-0.6-1-1.7-0.4-2.5 5.3-7.1 11.6-13.6 17.7-19.9q2.3-2.3 4.5-4.7c16-16.6 41.3-35.8 71.2-32.5 16.2 1.8 38.7 10.6 54.7 17.7 0.9 0.4 1.3 1.4 0.9 2.3-0.4 0.9-1.4 1.3-2.3 0.9-15.8-6.9-38-15.6-53.7-17.3-28.5-3.2-52.8 15.3-68.2 31.4q-2.2 2.3-4.5 4.7c-6 6.2-12.3 12.6-17.4 19.5-0.3 0.5-0.9 0.8-1.4 0.8zm40.7 6.8c-13.9 0-27.9-2.3-40.6-6.8-1-0.3-1.4-1.4-1.1-2.3 0.3-0.9 1.3-1.4 2.3-1.1 27.3 9.8 60.8 8.7 85.5-2.9 0.9-0.4 1.9 0 2.3 0.9 0.5 0.8 0.1 1.9-0.8 2.3-14 6.6-30.7 9.9-47.6 9.9zm47.3-10q-0.2 0-0.3 0c-1-0.2-1.7-1.1-1.5-2.1 1.6-9.6 18.4-22.7 24.4-26.4 10.3-6.4 25.3-12.4 36.3-9.9 0.9 0.2 1.5 1.2 1.3 2.1-0.2 1-1.2 1.6-2.1 1.4-10-2.2-23.9 3.4-33.6 9.4-7.3 4.5-21.6 16.8-22.8 24-0.1 0.9-0.9 1.5-1.7 1.5zm30.1-28.7c-0.5 0-1-0.2-1.4-0.6-2.3-2.7-4.6-7.3-7-12.1-1.7-3.3-3.4-6.7-5-9.2-0.6-0.9-0.3-2 0.5-2.5 0.8-0.5 1.9-0.3 2.5 0.5 1.7 2.7 3.4 6.2 5.2 9.6 2.2 4.4 4.5 9 6.6 11.4 0.6 0.7 0.5 1.9-0.3 2.5-0.3 0.3-0.7 0.4-1.1 0.4zm-20 10c-0.6 0-1.1-0.3-1.4-0.7-4.7-6-8.2-12.5-11.6-18.9-2.5-4.8-5.2-9.8-8.3-14.4-0.5-0.8-0.3-1.9 0.5-2.4 0.8-0.6 1.9-0.4 2.5 0.4 3.2 4.8 5.9 9.9 8.5 14.8 3.3 6.2 6.7 12.6 11.2 18.3 0.6 0.8 0.4 1.9-0.3 2.5-0.4 0.2-0.8 0.4-1.1 0.4zm-20.5 21.8c-0.5 0-1-0.2-1.3-0.6-2.7-2.9-5.2-6.5-7.6-9.9-2-2.8-4-5.6-6-8.1-5.8-7-12.8-16.5-15.6-27.8-0.2-0.9 0.3-1.9 1.3-2.1 0.9-0.3 1.9 0.3 2.1 1.3 2.7 10.5 9.4 19.6 14.9 26.3 2.2 2.6 4.2 5.5 6.2 8.3 2.4 3.5 4.8 6.8 7.3 9.6 0.7 0.8 0.6 1.9-0.1 2.5-0.4 0.4-0.8 0.5-1.2 0.5zm-34.2-5.3c-4.8 0-8.3-3.1-9.9-6.7-2.1-4.7-1.2-11.2 4.5-14.6 2.6-1.5 5.8-1.8 8.7-0.8 3 1.1 5.3 3.3 6.3 6.2 1.4 3.6 1.4 7.2 0.1 10q-1.5 3.2-5.2 4.9-0.2 0.2-0.6 0.3-0.4 0.2-0.7 0.3-0.2 0-0.3 0-1.5 0.4-2.9 0.4zm-0.3-19.1c-1.2 0-2.3 0.3-3.3 0.9-4.1 2.4-4.5 6.9-3.1 10.1 1.3 2.8 4.2 5.4 8.8 4.2q3.2-1.1 4.4-3.6c0.9-1.9 0.8-4.4-0.2-7.2-0.7-1.8-2.2-3.3-4.2-4q-1.2-0.4-2.4-0.4zm25.1-15.1q-0.3 0-0.6-0.1 0.8 0.2 1.5-0.1c0.6-0.2 1.3-0.7 1.6-1.3 0.5-1.4 0.2-2.6-0.9-3.6-1.4-1.3-3.7-0.8-4.5 0.9-0.9 1.9 0.6 4.5 2.9 4.2zm7.5 10.4c1-0.3 1.7-1.3 1.9-2.2q0.2-0.9-0.1-1.7c-0.2-1.3-1.2-2.4-2.5-2.6-2.1-0.4-4 1.3-3.8 3.4 0 0.9 0.4 1.8 1.2 2.4 0.9 0.9 2.1 1 3.3 0.7zm8.5 6.6c0.8-4.2-5.7-5.4-6.6-1.2-0.8 4.2 5.8 5.4 6.6 1.2zm14.3-22.4c1-0.1 1.7-0.7 2.1-1.4q-0.2-0.2 0-0.4c0.1-0.2 0.2-0.6 0.2-1 0-0.6-0.2-1.3-0.8-1.8q0.4 0.4 0.7 0.7 0 0 0-0.1c-0.3-0.9-1.2-1.7-2.2-1.8-1-0.2-2 0.1-2.7 0.9-0.7 0.8-0.8 1.8-0.5 2.8 0.4 1.4 1.8 2.3 3.2 2.1zm2.1-1.4c0.3 0.3 2.2-0.2 0.1-2.5q0.2 0.6 0.1 1.1 0.1 0.7-0.2 1.4zm4.8 11.1c1-0.7 1.1-1.6 1.1-2.7q0-0.1 0-0.2c0-2.9-4.3-3.8-5.4-1.1 0 0.1 0.1 0.1 0.1 0.2-0.3 0.7-0.4 1.5-0.1 2.3 0.4 1 1.2 1.7 2.2 1.9q1.2 0.2 2.1-0.4zm-58.4 18.7c0.3-1.7-0.8-3.4-2.5-3.7-1.7-0.3-3.4 0.8-3.8 2.5-0.3 1.7 0.9 3.4 2.6 3.8 1.7 0.3 3.4-0.9 3.7-2.6zm-9.2-94.8q0-0.2 0-0.4c-0.1-1.2-1.5-1.9-2.6-1.2-1 0.7-0.8 2.2 0.2 2.8q0.2 0.1 0.4 0.2c1 0.5 2.2-0.3 2-1.4zm6.2 0.7c0.2-1.1-2.7-1.6-2.9-0.6-0.4 2.1 2.5 2.7 2.9 0.6zm18.8 2.3c0.8-0.8 0.1-2.3-0.8-2.6-0.7-0.2-1.3-0.2-1.8 0.3-0.4 0.5-0.4 1.3-0.1 1.8 0.2 0.3 0.5 0.6 0.8 0.7q0.1 0.1 0.2 0.1c0.6 0.3 1.1 0.2 1.7-0.3zm3.9-0.2c0.2-1-2.5-1.5-2.7-0.5-0.4 2.1 2.3 2.6 2.7 0.5zm14.4 6.2c0.1-0.3-0.1-0.7-0.3-0.9-0.3-0.3-0.6-0.4-1-0.5q-0.3 0-0.7 0c0 0-0.7 0.1-0.4 0.1-1.1 0.1-1.4 1.3-0.7 2 0.9 1 2.7 0.7 3.1-0.7zm5 3c0.4-2.1-1.9-2.5-2.2-0.5-0.3 1.1 2 1.5 2.2 0.5zm5 1.9q0.2 0 0.4 0c0-0.1 0-0.1 0.1-0.1 0.6-0.1 1-0.5 1.2-1.1 0.1-1-0.6-1.6-1.5-1.6-0.4-0.1-0.7 0.1-1 0.3q-0.2 0.1-0.3 0.2c-0.6 0.6-0.1 0.2 0 0.1-0.6 0.5-0.7 1.3-0.1 1.8 0.2 0.2 0.5 0.4 0.8 0.4q0.2 0.1 0.4 0zm13.5 4.9c0.2-1.1-2.4-1.6-2.6-0.5-0.4 2.1 2.2 2.6 2.6 0.5zm7.5 2.7c0.2-1.1-0.8-2-1.9-1.8-1.2 0.1-1.5 1.5-0.5 2.2q0.1 0 0.2 0c0.5 0.8 2 0.7 2.2-0.4zm8.9 2.2q-0.1 0-0.2 0c-1.6-0.2-2 2-0.5 2.4q0.1 0 0.2 0.1c1.6 0.4 2.1-2.3 0.5-2.5zm9 3.2c0.2-1.1-2.6-1.6-2.8-0.6-0.4 2.1 2.4 2.7 2.8 0.6zm5.3 1c0.2-1-2.1-1.5-2.3-0.4-0.4 2.1 1.9 2.5 2.3 0.4zm11-0.1q-0.1-0.2-0.1-0.4c-0.3-0.8-1.2-1.1-1.9-0.6-0.6 0.4-0.7 1.4-0.1 1.9q0.2 0.1 0.4 0.3c0.8 0.7 2.1-0.2 1.7-1.2zm6.2 1.2c0.2-1-2.1-1.5-2.3-0.4-0.4 2.1 1.9 2.5 2.3 0.4zm5-1.2c0.2-1.1-2.1-1.5-2.3-0.5-0.5 2.1 1.9 2.6 2.3 0.5zm11.2-3.6q-0.1-0.3-0.2-0.5c-0.2-0.7-1-0.9-1.6-0.5-0.6 0.4-0.7 1.2-0.1 1.7q0.1 0.2 0.3 0.3c0.8 0.7 2-0.1 1.6-1zm5.3-0.9c0.2-1-2.3-1.5-2.5-0.5-0.4 2.1 2.1 2.6 2.5 0.5zm-178.7 42.2c-5.9 0-11.3-1.9-14.4-7.7-3.8-7-3.4-14.1 1-19.3 4.4-5.2 11.8-7.5 17.7-5.5 4.8 1.7 7.8 6 8.1 11.9 0.2 4.1-3.6 7.5-7.2 8.2-3.1 0.6-6.9-0.4-8.7-5.2-0.3-0.9 0.1-1.9 1.1-2.2 0.9-0.4 1.9 0.1 2.3 1 1 3 3.1 3.2 4.6 2.9 2.4-0.5 4.4-2.6 4.3-4.5-0.2-4.5-2.2-7.5-5.6-8.7-4.5-1.5-10.5 0.4-13.9 4.4-3.4 4.1-3.7 9.5-0.6 15.3 5.2 9.6 19 5.3 29.1 2.1q1.5-0.5 2.8-0.9c4.6-1.4 9.3-3.5 14.4-5.8 11.4-5.1 24.3-11 37.8-8.7 1 0.2 1.7 1.1 1.5 2.1-0.2 0.9-1.1 1.6-2 1.4-12.5-2.1-24.4 3.3-35.9 8.5-5.1 2.3-10 4.5-14.7 5.9q-1.4 0.4-2.9 0.9c-5.5 1.7-12.5 3.9-18.8 3.9zm14 19q-0.9 0-1.9-0.1c-3.4-0.7-5.9-3-6.7-6.2-2-8.4 5.4-16.5 21.4-23.5 0.9-0.4 2 0 2.4 0.9 0.4 0.9-0.1 1.9-1 2.3-8.1 3.6-21.4 10.9-19.4 19.5 0.6 2.5 2.8 3.2 4 3.5 2.1 0.4 4.4-0.3 5.4-1.6q1.1-1.6-0.4-4.1c-0.5-0.8-0.2-1.9 0.7-2.4 0.8-0.5 1.9-0.2 2.4 0.6 2.3 3.9 1.1 6.6 0.2 7.9-1.4 2-4.2 3.2-7.1 3.2zm17.9-30c-1.5 0-2.9-0.1-4.3-0.5-3.4-0.9-6-2.9-7.8-6-2.5-4.2-2.4-8.8 0.2-12.4 2.7-3.8 7.4-5.8 11.5-5 3.3 0.7 5.8 3.3 6.7 7q0.9 3.9-1.1 6c-2.3 2.4-6.3 1.7-6.7 1.6-1-0.2-1.6-1.1-1.4-2.1 0.1-0.9 1.1-1.5 2-1.4 0.8 0.2 2.8 0.2 3.5-0.6 0.6-0.5 0.4-1.7 0.2-2.6-0.6-2.5-1.9-4-3.9-4.4-2.8-0.5-6.1 1-7.9 3.5-1.8 2.5-1.8 5.6-0.1 8.6 1.4 2.3 3.2 3.7 5.7 4.4 7.7 2 18.5-4.2 18.6-4.3 0.8-0.5 1.9-0.2 2.4 0.7 0.5 0.8 0.2 1.9-0.6 2.4-0.4 0.2-8.9 5.1-17 5.1zm55.4 147q-0.5 0-0.9-0.3c-0.8-0.5-1.1-1.6-0.6-2.4 16.2-26 41.5-46.8 79.8-65.3 4.2-2 8.2-3.9 12.2-5.7 23.6-10.9 44-20.4 57.4-45.8 5.4-10.5 12.3-23.5 11.6-35.6-0.1-1 0.6-1.9 1.6-1.9 1-0.1 1.8 0.7 1.9 1.6 0.8 13.2-6.3 26.7-12 37.6-13.9 26.4-34.8 36.1-59 47.3-4 1.8-8 3.7-12.1 5.7-37.7 18.2-62.6 38.6-78.4 63.9-0.3 0.6-0.9 0.9-1.5 0.9zm-0.1-1.2c-1 0-1.8-0.8-1.8-1.8 0-4.9-0.2-9.7-0.3-14.4-0.7-24.1-1.3-44.9 15.4-67.7 15.7-21.6 36.5-28.7 58.5-36.2 5.7-2 11.6-4 17.4-6.3 21.1-8.2 33.7-19.3 37.5-32.9 0.2-0.9 1.2-1.5 2.2-1.2 0.9 0.2 1.5 1.2 1.2 2.2-4.1 14.7-17.4 26.6-39.6 35.2-5.9 2.4-11.8 4.4-17.5 6.3-21.5 7.4-41.7 14.3-56.9 35-15.9 21.8-15.3 42.1-14.6 65.5 0.1 4.7 0.2 9.5 0.2 14.5 0.1 1-0.7 1.8-1.7 1.8q0 0 0 0zm8.4-23.8q-0.5 0-0.8-0.2c-0.9-0.4-1.3-1.5-0.8-2.4 9-18 29-34.1 59.5-47.6 4.7-2.1 9.4-4 13.9-5.9 6.3-2.6 12.9-5.3 19.3-8.4 10.1-4.8 24.2-13.1 33.5-25.3 7.2-9.4 19-30.9 16.9-40.4-0.2-0.9 0.4-1.9 1.4-2.1 0.9-0.2 1.9 0.4 2.1 1.4 2.7 12.1-11.9 35.9-17.6 43.3-9.7 12.7-24.3 21.3-34.8 26.4-6.4 3.1-13.1 5.8-19.4 8.4-4.6 1.9-9.2 3.8-13.8 5.8-29.8 13.2-49.2 28.7-57.9 46-0.3 0.7-0.9 1-1.5 1zm-0.2-0.3q-0.1 0-0.1 0c-1 0-1.8-0.8-1.7-1.8 0.5-13.7 3.9-28.6 9.2-40 5.7-12.5 15.1-20.4 24.3-27.2 14.4-10.5 28.8-15.6 42.6-20.5 8.9-3.2 18.1-6.5 27.1-11.2 7.2-3.7 22-15.4 27.3-32.8 0.3-1 1.2-1.5 2.2-1.2 0.9 0.3 1.5 1.3 1.2 2.2-5.6 18.6-21.4 31-29 35-9.2 4.8-18.6 8.1-27.6 11.3-13.6 4.8-27.7 9.8-41.7 20.1-8.8 6.5-17.8 14.1-23.2 25.8-5 10.8-8.4 25.6-8.9 38.6 0 1-0.8 1.7-1.7 1.7zm25-30.3q-0.4 0-0.7-0.2c-4.3-1.7-8.5-3.9-12.6-6.1q-1.5-0.7-3-1.5c-0.9-0.4-1.2-1.5-0.8-2.4 0.5-0.9 1.5-1.2 2.4-0.8q1.5 0.8 3 1.6c4 2.1 8.2 4.2 12.4 5.9 0.9 0.4 1.3 1.5 0.9 2.4-0.3 0.7-0.9 1.1-1.6 1.1zm25.5-12.6q-0.4 0-0.7-0.1c-8.4-3.5-18.2-9.4-26.5-15.8-0.7-0.6-0.9-1.7-0.3-2.5 0.6-0.7 1.8-0.9 2.5-0.3 8 6.3 17.6 12 25.6 15.3 0.9 0.3 1.4 1.4 1 2.3-0.3 0.7-0.9 1.1-1.6 1.1zm16.2-8.4q-0.4 0-0.7-0.2c-7.3-3-13-9.3-18.6-15.3-1.9-2.1-3.8-4.1-5.7-6-0.7-0.7-0.7-1.8 0-2.5 0.7-0.7 1.8-0.7 2.5 0 2 1.9 3.9 3.9 5.9 6.1 5.2 5.7 10.7 11.7 17.3 14.4 0.9 0.4 1.3 1.5 0.9 2.4-0.3 0.6-0.9 1.1-1.6 1.1zm22.6-8.5c-0.5 0-1-0.2-1.3-0.6-2.2-2.5-4.8-4.8-7.6-7.2-5.5-4.9-11.2-9.9-13.9-16.9-0.3-0.9 0.1-2 1-2.3 1-0.4 2 0.1 2.3 1 2.4 6.2 7.8 10.9 13 15.5 2.7 2.4 5.5 4.8 7.9 7.5 0.6 0.7 0.5 1.9-0.2 2.5-0.3 0.3-0.8 0.5-1.2 0.5zm17.8-10c-0.5 0-0.9-0.2-1.3-0.6-1.7-1.8-3.7-3.6-5.8-5.5-5.1-4.8-10.5-9.6-12.8-16.2-0.4-1 0.1-2 1.1-2.3 0.9-0.3 1.9 0.1 2.2 1.1 2.1 5.7 7.1 10.3 11.9 14.7 2.1 1.9 4.2 3.9 6 5.8 0.7 0.8 0.6 1.9-0.1 2.5-0.3 0.4-0.8 0.5-1.2 0.5zm17.4-17.4q-0.4 0-0.9-0.3c-6-3.6-13.7-9.3-15.9-15.6-0.3-0.9 0.2-1.9 1.1-2.3 0.9-0.3 2 0.2 2.3 1.1 1.4 4.2 6.5 9.1 14.4 13.8 0.8 0.5 1.1 1.6 0.6 2.4-0.4 0.6-1 0.9-1.6 0.9zm14.3-19.6q-0.3 0-0.7-0.1c-5.8-2.4-10.9-4.7-15.3-9.4-0.7-0.8-0.6-1.9 0.1-2.6 0.7-0.6 1.8-0.6 2.5 0.1 3.9 4.2 8.7 6.4 14.1 8.6 0.9 0.3 1.3 1.4 0.9 2.3-0.2 0.7-0.9 1.1-1.6 1.1zm10.4-21.1c-7.1 0-15.4-2.3-22.8-4.3-2.9-0.8-5.6-1.5-7.9-2-1-0.3-1.6-1.2-1.3-2.2 0.2-0.9 1.1-1.5 2.1-1.3 2.4 0.5 5.1 1.3 8 2.1 8 2.1 17.9 4.9 24.8 4 1-0.1 1.9 0.6 2 1.5 0.1 1-0.6 1.9-1.5 2q-1.7 0.2-3.4 0.2zm-6 51.4l2.2-3.5q1.1-1.9 2.4-3.9c7.9-12.4 19.8-31.2 14.8-44.8-0.3-0.9 0.1-1.8 0.8-2.2q0.3-0.2 0.6-0.3c0.9-0.4 1.9 0.1 2.3 1 3.8 11 4.3 20.8 1.5 30.9-3.9 14-6.3 18.8-20.5 21.9zm22.9-35.9c-2.9 10.9-10 22-15.3 30.4 8.9-2.8 10.5-7.1 13.6-18.3 1.1-4.1 1.7-8.1 1.7-12.1zm-90.2 175.4c-0.9 0-1.6-0.7-1.8-1.6-1.3-8.7-1.4-17.8-1.5-26.6q-0.1-3.2-0.1-6.4c-0.5-23.1 3.8-54.5 27.3-73.4 12.7-10.1 34.8-19.8 51.2-26.2 0.9-0.3 1.9 0.1 2.3 1.1 0.3 0.9-0.1 1.9-1 2.3-16.1 6.2-37.9 15.7-50.3 25.6-22.3 17.9-26.5 48.2-26 70.5q0.1 3.2 0.1 6.5c0.1 8.6 0.3 17.6 1.6 26.1 0.1 1-0.5 1.9-1.5 2q-0.2 0.1-0.3 0.1zm0.6-0.4c-0.7 0-1.3-0.4-1.6-1.1-0.4-0.9-0.1-1.9 0.8-2.3 26.3-12.4 49.2-37 58.4-62.6 0.4-0.9 1.4-1.4 2.3-1 0.9 0.3 1.4 1.3 1.1 2.2-9.6 26.5-33.2 51.8-60.2 64.6q-0.4 0.2-0.8 0.2zm59.4-64.1c-0.6 0-1.1-0.2-1.4-0.7-5.7-8-3.1-29.2-1.5-36 2.8-11.8 9.1-26.6 18.7-32.6 0.8-0.5 1.9-0.3 2.4 0.5 0.5 0.9 0.3 2-0.5 2.5-8.6 5.4-14.5 19.3-17.1 30.4-2 8.4-3.4 27.1 0.8 33.1 0.6 0.8 0.4 1.9-0.4 2.5q-0.4 0.3-1 0.3zm1-41.6q-0.1 0-0.1 0c-3.6-0.3-8.4-1.9-13.6-3.6-3.5-1.1-7.1-2.3-10-2.9-1-0.3-1.6-1.2-1.4-2.2 0.2-0.9 1.2-1.5 2.1-1.3 3.1 0.7 6.8 1.9 10.4 3.1 4.8 1.5 9.7 3.1 12.8 3.4 1 0 1.7 0.9 1.6 1.9-0.1 0.9-0.9 1.6-1.8 1.6zm-7.1 21.2q-0.1 0-0.2 0c-7.5-0.9-14.6-3.1-21.5-5.2-5.2-1.6-10.6-3.2-16.1-4.3-0.9-0.2-1.6-1.1-1.4-2.1 0.2-0.9 1.1-1.5 2.1-1.4 5.6 1.1 11.1 2.8 16.5 4.4 6.7 2.1 13.6 4.2 20.8 5.1 1 0.1 1.7 1 1.6 2-0.2 0.9-0.9 1.5-1.8 1.5zm0.9 29.9q0 0 0 0c-4-0.2-8.3-0.9-12.4-1.6-3.3-0.6-6.7-1.2-10-1.5-9-0.9-20.7-2.7-30.6-8.6-0.9-0.5-1.1-1.6-0.6-2.4 0.5-0.9 1.6-1.2 2.4-0.7 9.3 5.6 20.5 7.3 29.2 8.1 3.3 0.4 6.8 1 10.2 1.6 4.2 0.7 8.2 1.4 11.9 1.6 1 0 1.8 0.9 1.7 1.9 0 0.9-0.8 1.6-1.8 1.6zm-34.2 23c-1.4 0-2.9-0.2-4.2-0.7-4.8-1.9-8.8-7.1-7.1-13.6 0.8-2.9 2.8-5.4 5.6-6.7 2.9-1.4 6.1-1.4 8.8-0.1 3.6 1.6 6.1 4.1 7.1 7q1.2 3.4-0.1 7.1 0 0.4-0.2 0.7-0.2 0.4-0.4 0.7 0 0.1-0.1 0.2c-2.4 3.9-6 5.4-9.4 5.4zm-1.1-18.5c-1 0-2 0.2-3 0.7-1.9 0.9-3.3 2.5-3.7 4.4-1.2 4.6 1.7 8.1 4.9 9.3 2.9 1.2 6.8 0.8 9.3-3.2q1.4-3.1 0.5-5.6c-0.7-2-2.6-3.8-5.2-5q-1.4-0.6-2.8-0.6zm2-26.3q-0.2 0.2-0.4 0.4 0.6-0.5 1-1.1c0.3-0.6 0.4-1.5 0.1-2.1-0.6-1.4-1.7-2-3.1-2-1.9 0.1-3.2 2.1-2.6 3.9 0.7 2 3.6 2.7 5 0.9zm12.7 2c0.5-0.9 0.3-2.1-0.2-2.9q-0.5-0.7-1.2-1.1c-1.1-0.7-2.6-0.8-3.7-0.1-1.8 1.2-1.9 3.8-0.3 5.2 0.7 0.6 1.6 0.9 2.6 0.8 1.2 0 2.2-0.8 2.8-1.9zm10.7-1.2c-2.4-3.6-7.9 0.2-5.5 3.7 2.4 3.5 7.9-0.2 5.5-3.7zm-5.7-26c0.6-0.8 0.7-1.7 0.4-2.5q-0.2 0-0.2-0.2c-0.1-0.4-0.3-0.7-0.5-0.9-0.5-0.5-1.2-0.8-1.9-0.7q0.5-0.1 1 0-0.1-0.1-0.1-0.1c-0.9-0.4-2-0.3-2.9 0.2-0.8 0.6-1.3 1.6-1.2 2.6 0.1 1.1 0.7 1.9 1.6 2.4 1.2 0.7 2.9 0.3 3.8-0.8zm0.4-2.5c0.5 0 1.5-1.7-1.6-1.8q0.5 0.2 0.9 0.7 0.5 0.4 0.7 1.1zm11.5 4.2c0.2-1.1-0.3-2-1-2.8q-0.1-0.1-0.1-0.1c-2.1-2.1-5.9 0.5-4.8 3.2q0.1 0 0.1 0.1c0.3 0.8 0.8 1.4 1.6 1.8 0.9 0.4 2 0.3 2.9-0.3 0.7-0.4 1.1-1.1 1.3-1.9zm-28.3 54.8c-0.9-1.4-3-1.8-4.4-0.9-1.4 1-1.8 3-0.8 4.5 0.9 1.4 2.9 1.8 4.4 0.8 1.4-1 1.8-3 0.8-4.4zm-73.5-60.6q-0.1-0.1-0.3-0.2c-1-0.8-2.4-0.3-2.7 0.9-0.2 1.2 1 2.2 2.2 1.9q0.2-0.1 0.4-0.2c1-0.3 1.3-1.7 0.4-2.4zm4.6-4.3c-0.6-0.9-3.1 0.8-2.5 1.7 1.2 1.7 3.7 0 2.5-1.7zm15.6-10c0.1-1.2-1.5-1.8-2.4-1.3-0.6 0.3-1 0.7-1 1.4 0.1 0.7 0.6 1.2 1.2 1.3 0.3 0.1 0.7 0.1 1.1 0q0.1 0 0.2 0c0.6-0.3 0.9-0.7 0.9-1.4zm1.9-4.5c-0.6-0.9-2.8 0.6-2.2 1.5 1.2 1.8 3.4 0.2 2.2-1.5zm14.9-5.4c-0.2-0.3-0.6-0.4-0.9-0.4-0.4 0-0.7 0.1-1 0.3q-0.3 0.3-0.5 0.5c-0.1 0.1-0.4 0.6-0.3 0.4-0.6 0.8 0 1.8 1 1.9 1.3 0 2.3-1.5 1.7-2.7zm5.3-1.9c-1.2-1.8-3.1-0.5-1.9 1.3 0.6 0.9 2.5-0.4 1.9-1.3zm5.2-1.7q0.1-0.2 0.2-0.3c0-0.1 0.1-0.1 0.1-0.2 0.3-0.4 0.4-1 0-1.5-0.5-0.8-1.5-0.8-2.2-0.2-0.3 0.3-0.4 0.6-0.5 0.9q0 0.3 0 0.5c0.1 0.8 0 0.2 0.1 0-0.1 0.8 0.4 1.4 1.2 1.4 0.3 0 0.6-0.1 0.8-0.3q0.2-0.1 0.3-0.3zm12.7-6.5c-0.7-0.9-2.8 0.5-2.2 1.4 1.2 1.8 3.4 0.3 2.2-1.4zm8-1.8c-0.7-1-2-0.9-2.7 0-0.7 1 0.1 2.1 1.3 1.9q0-0.1 0.1-0.1c0.9 0.2 1.9-0.9 1.3-1.8zm7.4-5.9q-0.1 0-0.2 0.1c-1.2 1 0 2.8 1.4 2q0.1 0 0.2 0c1.4-0.8-0.2-3.1-1.4-2.1zm8.3-4.6c-0.6-0.9-3 0.7-2.4 1.6 1.2 1.8 3.6 0.2 2.4-1.6zm4.5-3c-0.6-0.9-2.6 0.4-2 1.3 1.2 1.8 3.2 0.4 2-1.3zm8-7.4q-0.2-0.1-0.4-0.2c-0.7-0.4-1.6 0.1-1.8 0.8-0.1 0.8 0.5 1.5 1.3 1.5q0.3-0.1 0.5-0.1c1.1-0.1 1.3-1.5 0.4-2zm4.9-4c-0.6-0.9-2.6 0.4-2 1.3 1.2 1.8 3.2 0.4 2-1.3zm2.6-4.4c-0.6-0.9-2.5 0.5-1.9 1.3 1.2 1.8 3.1 0.5 1.9-1.3zm5.7-10q-0.2-0.1-0.4-0.2c-0.7-0.3-1.4 0-1.6 0.7-0.1 0.8 0.5 1.4 1.2 1.4q0.2-0.1 0.5-0.1c0.9 0 1.2-1.4 0.3-1.8zm2.8-4.8c-0.6-0.9-2.6 0.5-2 1.4 1.2 1.7 3.2 0.4 2-1.4zm-107.5 162q-2 0-4.3-0.7c-7.6-2.3-12.3-7.5-12.9-14.3-0.6-6.8 3.1-13.6 8.6-16.4 4.6-2.3 9.8-1.3 14.1 2.7 3.1 2.8 2.8 7.8 0.8 10.9-1.8 2.6-5.2 4.6-9.8 2.5-0.9-0.5-1.3-1.5-0.9-2.4 0.4-0.9 1.5-1.3 2.4-0.9 2.8 1.4 4.4 0.1 5.3-1.2 1.3-2 1.3-5-0.1-6.3-3.4-3-6.9-3.7-10.2-2.1-4.2 2.1-7.1 7.6-6.7 12.9 0.5 5.4 4.2 9.3 10.4 11.2 10.5 3.2 17.2-9.7 22-19q0.8-1.4 1.4-2.7c2.3-4.2 4.1-9 6.1-14.2 4.4-11.7 9.4-25 20.6-32.9 0.8-0.6 1.9-0.4 2.5 0.4 0.6 0.8 0.4 1.9-0.4 2.5-10.3 7.3-14.9 19.5-19.4 31.3-2 5.2-3.9 10.2-6.2 14.6q-0.7 1.3-1.4 2.6c-4.6 8.8-11.2 21.5-21.9 21.5zm28.3 1c-1.4 0-2.9-0.4-4.2-1.2-7.3-4.5-7.8-15.5-1.5-31.8 0.4-0.9 1.4-1.4 2.3-1 1 0.3 1.4 1.4 1.1 2.3-7.6 19.3-3.3 25.5 0 27.4 2.2 1.4 4.2 0.4 5.2-0.3 1.8-1.2 3-3.3 2.7-4.9q-0.3-1.9-3.1-2.6c-0.9-0.3-1.5-1.3-1.2-2.2 0.2-1 1.2-1.5 2.1-1.3 4.4 1.2 5.5 3.9 5.7 5.5 0.5 3-1.2 6.5-4.2 8.5-1.5 1-3.2 1.6-4.9 1.6zm-11.9-32.3q-1.7 0-3.4-0.4c-4.8-1.3-7.9-4.6-8.7-9-0.7-4.5 1.2-9.3 4.6-11.6 2.9-1.9 6.4-1.8 9.7 0.2q3.4 2.1 3.5 5c0 3.3-3.2 5.6-3.6 5.9-0.8 0.6-1.9 0.3-2.5-0.5-0.5-0.8-0.3-1.9 0.5-2.4 0.7-0.5 2-1.8 2-2.9 0-0.8-0.9-1.6-1.7-2.1-2.2-1.3-4.2-1.4-5.9-0.2-2.3 1.5-3.6 4.9-3.1 8 0.5 3.1 2.7 5.2 6.1 6.1 2.5 0.7 4.8 0.4 7-0.9 7-4 10.2-16 10.2-16.1 0.2-1 1.2-1.6 2.2-1.3 0.9 0.2 1.5 1.2 1.2 2.2-0.1 0.5-3.6 13.5-11.8 18.3q-3 1.7-6.3 1.7zm151.6 60.8c-0.8 0-1.6-0.5-1.8-1.3-6.9-29.8-3.6-62.4 10.3-102.6 1.5-4.4 3.1-8.6 4.6-12.7 9-24.4 16.7-45.5 8.2-72.9-3.5-11.3-7.9-25.4-17-33.4-0.8-0.7-0.8-1.8-0.2-2.5 0.7-0.8 1.8-0.8 2.5-0.2 9.9 8.7 14.4 23.3 18.1 35 8.9 28.6 1 50.2-8.3 75.3-1.5 4-3 8.2-4.5 12.5-13.7 39.6-17 71.5-10.2 100.6 0.2 1-0.4 2-1.3 2.2q-0.2 0-0.4 0zm-1-0.7c-0.4 0-0.9-0.2-1.2-0.5-3.5-3.5-7-6.8-10.4-10-17.6-16.6-32.7-30.9-37-58.8-4.1-26.4 5.5-46.1 15.8-67 2.6-5.4 5.3-10.9 7.9-16.7 9.1-20.7 10.1-37.5 3.2-49.7-0.5-0.9-0.2-2 0.6-2.5 0.9-0.5 2-0.2 2.5 0.7 7.5 13.3 6.5 31.1-3.1 52.9-2.5 5.9-5.3 11.5-7.9 16.9-10 20.4-19.5 39.6-15.5 64.9 4.1 26.7 18.9 40.6 35.9 56.7 3.4 3.2 6.9 6.5 10.5 10.1 0.7 0.7 0.7 1.8 0 2.5-0.3 0.3-0.8 0.5-1.3 0.5zm-10.9-22.7c-0.7 0-1.4-0.5-1.6-1.3-6.4-19.1-3.6-44.6 8.4-75.8 1.8-4.7 3.7-9.4 5.6-13.9 2.7-6.4 5.4-12.9 7.8-19.6 3.7-10.6 7.7-26.4 5.7-41.6-1.5-11.7-8.3-35.3-16.6-40.5-0.8-0.6-1-1.7-0.5-2.5 0.5-0.8 1.6-1.1 2.5-0.5 10.4 6.7 17 33.9 18.2 43 2.1 15.9-2.1 32.3-6 43.3-2.4 6.8-5.1 13.4-7.8 19.8-1.9 4.4-3.8 9.1-5.6 13.8-11.7 30.4-14.5 55.1-8.4 73.4 0.3 0.9-0.2 2-1.1 2.3q-0.3 0.1-0.6 0.1zm-0.3-0.1c-0.5 0-1-0.2-1.3-0.6-9.3-10-17.4-23-21.8-34.8-4.7-12.8-3.7-25.1-2-36.4 2.8-17.6 9.3-31.4 15.6-44.6 4.1-8.6 8.3-17.4 11.3-27.1 2.4-7.7 4.7-26.4-4-42.5-0.4-0.9-0.1-1.9 0.8-2.4 0.8-0.5 1.9-0.1 2.4 0.7 9.2 17.1 6.8 37.1 4.2 45.3-3.1 9.9-7.4 18.8-11.5 27.5-6.2 13-12.6 26.5-15.3 43.7-1.6 10.8-2.6 22.5 1.9 34.6 4.1 11.2 12.1 24.1 21 33.6 0.7 0.7 0.6 1.8-0.1 2.5-0.3 0.3-0.8 0.5-1.2 0.5zm-20.1-33.6c-0.7 0-1.4-0.5-1.7-1.2-0.3-0.9 0.2-1.9 1.2-2.2q1.6-0.6 3.2-1.1c4.4-1.4 8.8-2.8 12.9-4.5 1-0.4 2 0.1 2.4 1 0.4 0.9-0.1 1.9-1 2.3-4.3 1.8-8.8 3.2-13.2 4.6q-1.6 0.5-3.2 1-0.3 0.1-0.6 0.1zm-3.9-25c-0.9 0-1.6-0.7-1.8-1.6-0.1-1 0.6-1.8 1.6-2 10-1.2 20.8-3.9 28.9-7.3 0.9-0.4 1.9 0.1 2.3 1 0.4 0.9-0.1 1.9-1 2.3-8.3 3.5-19.4 6.3-29.8 7.6q-0.1 0-0.2 0zm19.6-22.5c-2.7 0-5.4-0.1-8-0.2-2.9-0.2-5.6-0.3-8.3-0.3-0.9 0-1.8-0.7-1.8-1.7 0-1 0.8-1.8 1.8-1.8 2.7-0.1 5.5 0.1 8.4 0.2 7.8 0.3 15.9 0.7 22.5-2 0.9-0.4 1.9 0 2.3 0.9 0.4 0.9-0.1 2-1 2.4-4.9 2-10.4 2.5-15.9 2.5zm6.5-23.8c-4.6 0-9.2-0.5-13.6-2.5-0.9-0.4-1.3-1.4-0.9-2.3 0.5-0.9 1.5-1.3 2.4-0.9 6.1 2.7 13.2 2.2 20.1 1.8 3.6-0.3 7.3-0.5 10.9-0.3 1 0.1 1.7 0.9 1.6 1.9 0 1-0.9 1.7-1.8 1.7-3.4-0.2-6.8 0-10.5 0.2-2.7 0.2-5.5 0.4-8.2 0.4zm9.7-19.9c-4.9 0-9.7-0.5-14-2.6-0.9-0.4-1.3-1.5-0.9-2.4 0.4-0.8 1.5-1.2 2.4-0.8 5.5 2.6 12.3 2.3 18.9 2 2.7-0.1 5.6-0.2 8.3-0.1 1 0 1.7 0.9 1.7 1.8 0 1-0.9 1.8-1.9 1.8-2.5-0.1-5.2 0-8 0.1-2.2 0.1-4.3 0.2-6.5 0.2zm1.7-23.2c-3.3 0-6.4-0.4-9-1.7-0.8-0.4-1.2-1.4-0.8-2.3 0.4-0.9 1.5-1.3 2.4-0.9 4 2 11 1.8 19.9-0.4 0.9-0.3 1.9 0.3 2.1 1.3 0.3 0.9-0.3 1.9-1.3 2.1-3.9 1-8.8 1.9-13.3 1.9zm-6.6-21.7q-0.5 0-1.1 0c-0.9 0-1.7-0.8-1.7-1.8 0.1-1 0.9-1.8 1.9-1.7 5.7 0.2 10.6-1.7 15.9-4 0.9-0.3 2 0.1 2.4 1 0.4 0.9-0.1 1.9-1 2.3-5.4 2.3-10.4 4.2-16.4 4.2zm-17.7-9.3c-0.6 0-1.2-0.3-1.5-0.9-0.5-0.8-0.3-1.9 0.5-2.4 2.1-1.3 4.6-2.7 7.2-4.2 7.2-4.1 16.1-9.2 20.4-14.7 0.6-0.8 1.7-0.9 2.5-0.3 0.8 0.6 0.9 1.7 0.3 2.5-4.7 6.1-13.6 11.1-21.5 15.6-2.5 1.4-5 2.8-6.9 4.1q-0.5 0.3-1 0.3zm59.2 23.1l-0.9-4.1q-0.5-2.1-1-4.4c-3.2-14.4-8.1-36.1-21.3-42.2-0.8-0.4-1.2-1.3-0.9-2.1q0-0.3 0.1-0.7c0.5-0.8 1.5-1.2 2.4-0.8 10.5 5 17.7 11.6 22.9 20.8 7.2 12.6 8.8 17.7 1 30zm-9.2-41.6c5.7 9.7 8.6 22.6 10.7 32.2 4.3-8.2 2.4-12.4-3.3-22.5-2.1-3.7-4.5-6.9-7.4-9.7zm59 188.2q-0.6 0.1-1.1-0.3c-7.1-5.3-13.6-11.6-19.9-17.7q-2.3-2.3-4.7-4.5c-16.6-16-35.8-41.2-32.5-71.2 1.8-16.2 10.6-38.7 17.7-54.7 0.4-0.9 1.4-1.3 2.3-0.9 0.9 0.4 1.3 1.4 0.9 2.3-6.9 15.8-15.6 38-17.3 53.7-3.2 28.5 15.3 52.8 31.4 68.2q2.3 2.3 4.7 4.6c6.2 6 12.6 12.2 19.5 17.3 0.8 0.6 1 1.7 0.4 2.5-0.3 0.5-0.9 0.7-1.4 0.7zm0.1-0.7q-0.3 0-0.6-0.1c-0.9-0.3-1.4-1.3-1.1-2.2 9.8-27.3 8.7-60.9-2.9-85.6-0.4-0.8 0-1.9 0.8-2.3 0.9-0.4 2-0.1 2.4 0.8 12 25.5 13.2 60.1 3.1 88.3-0.3 0.7-1 1.1-1.7 1.1zm-3.3-87.2q-0.1 0-0.3-0.1c-9.6-1.6-22.7-18.4-26.4-24.4-6.4-10.3-12.4-25.2-9.9-36.2 0.2-1 1.2-1.6 2.1-1.4 1 0.2 1.6 1.2 1.4 2.2-2.3 9.9 3.4 23.8 9.4 33.6 4.5 7.3 16.7 21.5 24 22.7 1 0.2 1.6 1.1 1.5 2.1-0.2 0.8-0.9 1.5-1.8 1.5zm-49.8-18.3c-0.6 0-1.2-0.3-1.5-0.8-0.5-0.8-0.3-1.9 0.5-2.4 2.7-1.7 6.2-3.5 9.6-5.2 4.4-2.3 9-4.6 11.4-6.6 0.7-0.7 1.9-0.6 2.5 0.2 0.6 0.7 0.5 1.9-0.2 2.5-2.7 2.3-7.3 4.6-12.1 7-3.3 1.7-6.7 3.5-9.2 5.1q-0.5 0.2-1 0.2zm-2.1 27.9c-0.5 0-1.1-0.2-1.4-0.7-0.6-0.9-0.4-2 0.4-2.5 4.8-3.2 9.9-5.9 14.8-8.6 6.2-3.3 12.6-6.7 18.3-11.1 0.8-0.6 1.9-0.5 2.5 0.3 0.6 0.8 0.5 1.9-0.3 2.5-6 4.6-12.5 8.1-18.9 11.5-4.8 2.6-9.8 5.2-14.4 8.3q-0.4 0.3-1 0.3zm10 29.5c-0.8 0-1.5-0.5-1.7-1.4-0.3-0.9 0.3-1.9 1.3-2.1 10.5-2.7 19.6-9.4 26.3-14.9 2.6-2.2 5.5-4.2 8.3-6.2 3.5-2.4 6.8-4.7 9.6-7.3 0.8-0.6 1.9-0.6 2.5 0.2 0.7 0.7 0.6 1.8-0.1 2.5-3 2.7-6.5 5.1-9.9 7.6-2.8 1.9-5.6 3.9-8.1 6-7.1 5.7-16.6 12.7-27.8 15.5q-0.2 0.1-0.4 0.1zm29.9 14.6c-3.6 0-7.4-1.7-9.7-5.6-1.5-2.6-1.8-5.7-0.8-8.7 1.1-3 3.3-5.2 6.2-6.3 3.6-1.3 7.2-1.3 9.9 0q3.3 1.5 5 5.1 0.2 0.3 0.3 0.6 0.2 0.4 0.3 0.8 0 0.1 0 0.2c1.5 6.3-2 11-6.3 12.9-1.5 0.6-3.2 1-4.9 1zm1-18.1c-1.2 0-2.6 0.3-4.1 0.8-1.8 0.7-3.3 2.2-4 4.2-0.7 2-0.5 4.1 0.5 5.7 2.4 4.2 6.9 4.5 10.1 3.1 2.8-1.2 5.3-4.2 4.2-8.8q-1.1-3.2-3.6-4.3-1.3-0.7-3.1-0.7zm-23.6-17.6q0 0.2-0.1 0.5 0.2-0.8-0.1-1.5c-0.2-0.6-0.7-1.3-1.4-1.6-1.3-0.5-2.5-0.2-3.5 0.9-1.3 1.4-0.8 3.7 0.9 4.5 1.9 1 4.5-0.6 4.2-2.8zm10.4-7.6c-0.3-1-1.3-1.7-2.3-1.9q-0.8-0.2-1.6 0.1c-1.3 0.2-2.4 1.2-2.7 2.6-0.4 2 1.4 3.9 3.5 3.8 0.9-0.1 1.8-0.5 2.4-1.2 0.8-1 1-2.2 0.7-3.4zm6.6-8.4c-4.2-0.8-5.4 5.7-1.2 6.5 4.2 0.8 5.4-5.7 1.2-6.5zm-22.4-14.3c-0.1-1-0.7-1.8-1.4-2.1q-0.2 0.1-0.4 0c-0.2-0.2-0.6-0.3-1-0.3-0.6 0-1.3 0.3-1.8 0.8q0.4-0.4 0.7-0.7 0 0-0.1 0c-0.9 0.4-1.7 1.2-1.8 2.2-0.2 1 0.1 2 0.9 2.7 0.8 0.7 1.8 0.8 2.8 0.6 1.4-0.4 2.3-1.9 2.1-3.2zm-1.4-2.1c0.3-0.4-0.2-2.3-2.5-0.2q0.5-0.2 1.1-0.1 0.7 0 1.4 0.3zm11.1-5.2c-0.7-0.9-1.7-1.3-2.8-1.3q0 0-0.1 0c-2.9 0-3.8 4.6-1.1 5.6q0.1 0.1 0.2 0.1c0.7 0.3 1.5 0.4 2.3 0.1 1-0.3 1.7-1.2 1.9-2.2 0.2-0.8 0-1.6-0.4-2.3zm18.7 58.7c-1.7-0.3-3.4 0.9-3.7 2.6-0.3 1.7 0.8 3.4 2.5 3.7 1.7 0.3 3.4-0.8 3.7-2.5 0.4-1.7-0.8-3.4-2.5-3.8zm-94.8 9.2q-0.2 0-0.4 0c-1.2 0.2-1.9 1.5-1.2 2.6 0.7 1 2.2 0.9 2.8-0.2q0.1-0.2 0.2-0.4c0.5-0.9-0.3-2.1-1.4-2zm0.2-6.3c-1.1-0.2-1.7 2.7-0.6 2.9 2.1 0.4 2.7-2.5 0.6-2.9zm4.4-17c-0.8-0.9-2.3-0.2-2.6 0.8-0.2 0.6-0.2 1.2 0.3 1.7 0.5 0.4 1.3 0.5 1.8 0.1 0.3-0.2 0.6-0.4 0.7-0.7q0.1-0.1 0.1-0.3c0.3-0.6 0.2-1.1-0.3-1.6zm-1.8-5.6c-1-0.2-1.5 2.5-0.5 2.7 2.1 0.4 2.6-2.2 0.5-2.7zm6.2-14.4c-0.3-0.1-0.7 0.1-0.9 0.4-0.3 0.2-0.4 0.6-0.5 0.9q0 0.4 0 0.7c0 0.1 0.1 0.7 0.1 0.5 0.1 1 1.3 1.3 2 0.6 1-0.9 0.6-2.7-0.7-3.1zm3-5c-2.1-0.4-2.6 1.9-0.5 2.3 1.1 0.2 1.5-2.1 0.5-2.3zm1.9-5q0-0.2-0.1-0.3 0-0.1 0-0.2c-0.1-0.5-0.5-1-1.1-1.1-1-0.2-1.6 0.6-1.7 1.5 0 0.3 0.2 0.6 0.4 0.9q0.1 0.2 0.2 0.4c0.6 0.5 0.2 0.1 0.1 0 0.5 0.6 1.3 0.6 1.8 0.1 0.2-0.2 0.4-0.6 0.4-0.8q0.1-0.3 0-0.5zm4.9-13.4c-1.1-0.2-1.6 2.3-0.5 2.5 2.1 0.4 2.6-2.1 0.5-2.5zm4.3-5.9c-1.1-0.2-2 0.8-1.8 1.9 0.1 1.1 1.5 1.4 2.2 0.4q0-0.1 0-0.1c0.8-0.5 0.7-2-0.4-2.2zm0.6-10.5q0 0.1 0 0.1c-0.2 1.6 2 2 2.4 0.5q0-0.1 0.1-0.2c0.4-1.5-2.3-2.1-2.5-0.4zm3.2-9c-1.1-0.2-1.6 2.6-0.6 2.8 2.1 0.4 2.7-2.4 0.6-2.8zm1-5.4c-1.1-0.2-1.5 2.1-0.4 2.3 2.1 0.4 2.5-1.9 0.4-2.3zm-0.1-11q-0.2 0.1-0.4 0.2c-0.8 0.2-1.1 1.1-0.6 1.8 0.4 0.6 1.4 0.7 1.9 0.1q0.1-0.2 0.3-0.4c0.7-0.8-0.2-2-1.2-1.7zm1.2-6.2c-1-0.2-1.5 2.2-0.4 2.4 2.1 0.4 2.5-2 0.4-2.4zm-1.2-4.9c-1.1-0.2-1.5 2.1-0.5 2.3 2.1 0.4 2.6-1.9 0.5-2.3zm-3.7-11.3q-0.2 0.1-0.4 0.2c-0.7 0.2-1 1.1-0.5 1.7 0.4 0.6 1.2 0.6 1.7 0.1q0.2-0.2 0.3-0.4c0.7-0.7-0.1-1.9-1.1-1.6zm-0.8-5.2c-1-0.2-1.5 2.2-0.5 2.4 2.1 0.4 2.6-2 0.5-2.4zm25 195.6c-3.6 0-7-1.2-9.8-3.6-5.2-4.4-7.5-11.8-5.5-17.7 1.7-4.8 6-7.8 11.9-8.1 4.2-0.2 7.5 3.6 8.2 7.3 0.6 3-0.4 6.9-5.2 8.6-0.9 0.4-1.9-0.1-2.3-1-0.3-1 0.2-2 1.1-2.3 3-1.1 3.2-3.1 2.9-4.6-0.5-2.5-2.6-4.5-4.5-4.4-4.5 0.2-7.5 2.2-8.7 5.7-1.5 4.4 0.4 10.4 4.4 13.8 4.1 3.5 9.5 3.7 15.3 0.6 9.6-5.2 5.3-19 2.1-29q-0.5-1.5-0.9-2.9c-1.4-4.5-3.5-9.3-5.8-14.3-5.1-11.4-11-24.4-8.7-37.9 0.2-1 1.1-1.6 2.1-1.5 0.9 0.2 1.6 1.1 1.4 2.1-2.1 12.5 3.3 24.3 8.5 35.8 2.3 5.1 4.5 10 5.9 14.8q0.4 1.3 0.9 2.8c3.3 10.6 8.4 26.7-3.8 33.2-3.2 1.8-6.5 2.6-9.5 2.6zm27.2-22c-7.4 0-14.6-7.5-20.8-21.8-0.4-0.9 0-1.9 0.9-2.3 0.9-0.4 1.9 0 2.3 0.9 3.6 8.1 10.9 21.5 19.4 19.4 2.6-0.6 3.3-2.7 3.5-3.9 0.5-2.2-0.2-4.5-1.6-5.5q-1.5-1-4 0.4c-0.9 0.5-1.9 0.2-2.4-0.7-0.5-0.8-0.2-1.9 0.6-2.4 3.9-2.2 6.6-1.1 7.9-0.2 2.5 1.8 3.7 5.5 3 9.1-0.6 3.4-2.9 5.9-6.1 6.7q-1.4 0.3-2.7 0.3zm-33.7-12.9c-2.2 0-4.4-0.7-6.2-2.1-3.8-2.6-5.8-7.3-5-11.4 0.7-3.4 3.2-5.9 7-6.8q3.9-0.8 6 1.2c2.4 2.2 1.7 6.2 1.6 6.7-0.2 0.9-1.1 1.6-2.1 1.4-0.9-0.2-1.6-1.1-1.4-2.1 0.2-0.8 0.2-2.7-0.6-3.5-0.6-0.5-1.8-0.4-2.7-0.2-2.4 0.6-3.9 2-4.3 4-0.5 2.7 1 6 3.5 7.8 2.5 1.8 5.6 1.9 8.6 0.1 2.3-1.3 3.7-3.2 4.4-5.7 2-7.7-4.2-18.5-4.3-18.6-0.5-0.8-0.2-1.9 0.7-2.4 0.8-0.5 1.9-0.2 2.4 0.6 0.3 0.5 7 12.2 4.6 21.3-0.9 3.5-2.9 6.1-6 7.9-2.1 1.2-4.2 1.8-6.2 1.8zm157.9-67.6q-0.5 0-1-0.3c-25.9-16.2-46.7-41.5-65.2-79.8-2-4.1-3.9-8.2-5.7-12.2-11-23.6-20.4-44-45.8-57.3-10.5-5.5-23.5-12.4-35.7-11.6-1 0-1.8-0.7-1.8-1.7-0.1-1 0.6-1.8 1.6-1.9 13.1-0.8 26.7 6.3 37.5 12 26.5 13.9 36.2 34.8 47.4 59 1.8 4 3.7 8 5.7 12.1 18.2 37.7 38.5 62.6 63.9 78.4 0.9 0.5 1.1 1.6 0.6 2.4-0.3 0.6-0.9 0.9-1.5 0.9zm-29.4 0.7c-18.6 0-35.6-2.2-53.9-15.6-21.6-15.8-28.7-36.6-36.2-58.6-2-5.7-4-11.5-6.3-17.4-8.2-21.1-19.3-33.7-32.9-37.5-0.9-0.2-1.5-1.2-1.2-2.1 0.2-1 1.2-1.6 2.2-1.3 14.7 4.1 26.6 17.4 35.2 39.6 2.4 5.9 4.4 11.8 6.3 17.6 7.4 21.4 14.3 41.7 35 56.8 21.8 15.9 42 15.4 65.5 14.7 4.7-0.2 9.5-0.3 14.5-0.3q0 0 0 0c1 0 1.8 0.8 1.8 1.8 0 0.9-0.8 1.7-1.8 1.7-4.9 0.1-9.7 0.2-14.4 0.3-4.7 0.2-9.3 0.3-13.8 0.3zm4.4-8.9q-0.4 0-0.8-0.2c-18-9-34.1-29.1-47.7-59.6-2-4.6-3.9-9.3-5.8-13.8-2.6-6.4-5.3-13-8.4-19.4-4.8-10.1-13.1-24.1-25.3-33.5-9.4-7.2-30.9-19-40.4-16.9-1 0.2-1.9-0.4-2.1-1.3-0.2-1 0.4-2 1.3-2.2 12.2-2.6 36 12 43.4 17.6 12.7 9.8 21.3 24.3 26.3 34.8 3.2 6.5 5.9 13.1 8.5 19.5 1.9 4.5 3.8 9.2 5.8 13.7 13.2 29.8 28.7 49.3 46 57.9 0.9 0.4 1.3 1.5 0.8 2.4-0.3 0.6-0.9 1-1.6 1zm-0.3 0.2q0 0 0 0c-13.7-0.5-28.6-4-40-9.2-12.5-5.8-20.4-15.2-27.2-24.4-10.5-14.4-15.6-28.7-20.6-42.6-3.1-8.9-6.4-18.1-11.1-27.1-3.7-7.1-15.4-22-32.8-27.3-1-0.2-1.5-1.2-1.2-2.2 0.3-0.9 1.2-1.4 2.2-1.2 18.6 5.6 31 21.4 35 29 4.8 9.3 8.1 18.6 11.3 27.6 4.8 13.6 9.8 27.7 20.1 41.7 6.4 8.9 14 17.8 25.8 23.2 10.8 5 25.6 8.4 38.6 8.9 1 0 1.7 0.9 1.7 1.8 0 1-0.8 1.8-1.8 1.8zm-37.9-9.6q-0.4 0-0.8-0.2c-0.9-0.4-1.2-1.5-0.8-2.4q0.8-1.5 1.6-3c2.1-4 4.2-8.2 5.9-12.3 0.4-0.9 1.4-1.4 2.4-1 0.9 0.4 1.3 1.4 0.9 2.3-1.8 4.3-3.9 8.5-6.1 12.6q-0.7 1.5-1.5 3c-0.3 0.7-0.9 1-1.6 1zm-20.5-14.9q-0.6 0-1.1-0.4c-0.7-0.6-0.9-1.7-0.3-2.5 6.2-8 11.9-17.6 15.3-25.6 0.3-0.9 1.4-1.3 2.3-1 0.9 0.4 1.3 1.4 0.9 2.4-3.4 8.3-9.3 18.2-15.7 26.4-0.3 0.4-0.8 0.7-1.4 0.7zm-13.9-18.6c-0.4 0-0.9-0.1-1.2-0.5-0.7-0.7-0.7-1.8 0-2.5 1.9-2 3.9-3.8 6.1-5.8 5.7-5.3 11.7-10.7 14.4-17.3 0.4-0.9 1.4-1.4 2.3-1 1 0.4 1.4 1.4 1 2.3-3.1 7.4-9.3 13.1-15.3 18.6-2.1 2-4.2 3.8-6 5.7-0.3 0.3-0.8 0.5-1.3 0.5zm-11.1-25.2c-0.7 0-1.4-0.4-1.6-1.1-0.4-0.9 0.1-2 1-2.3 6.2-2.4 10.9-7.7 15.5-12.9 2.4-2.8 4.8-5.6 7.5-7.9 0.7-0.7 1.8-0.6 2.5 0.1 0.6 0.8 0.6 1.9-0.2 2.5-2.4 2.2-4.7 4.8-7.2 7.6-4.8 5.5-9.8 11.2-16.8 13.9q-0.3 0.1-0.7 0.1zm-7.5-20.6c-0.8 0-1.5-0.5-1.7-1.2-0.4-1 0.1-2 1.1-2.3 5.7-2 10.3-7.1 14.7-11.9 1.9-2.1 3.8-4.2 5.8-6 0.7-0.7 1.9-0.6 2.5 0.1 0.7 0.7 0.7 1.8-0.1 2.5-1.8 1.7-3.6 3.7-5.5 5.8-4.8 5.2-9.6 10.5-16.3 12.9q-0.3 0.1-0.5 0.1zm-11-20.6c-0.7 0-1.4-0.5-1.7-1.2-0.3-0.9 0.2-1.9 1.1-2.3 4.2-1.4 9.1-6.5 13.8-14.3 0.5-0.9 1.6-1.2 2.4-0.7 0.8 0.6 1.1 1.6 0.6 2.5-3.6 6-9.3 13.7-15.6 15.9q-0.3 0.1-0.6 0.1zm-13.9-14.7c-0.4 0-0.9-0.2-1.3-0.6-0.6-0.7-0.6-1.8 0.1-2.5 4.2-3.9 6.4-8.7 8.6-14 0.3-1 1.4-1.4 2.3-1 0.9 0.3 1.3 1.4 1 2.3-2.4 5.8-4.7 10.9-9.4 15.3-0.4 0.3-0.8 0.5-1.3 0.5zm-18.4 5.2q-0.2 0-0.4 0c-0.9-0.3-1.5-1.2-1.3-2.2 0.5-2.4 1.3-5.1 2-8 2.2-7.9 5-17.9 4.1-24.8-0.1-1 0.5-1.9 1.5-2 1-0.1 1.9 0.6 2 1.6 1 7.6-1.7 17.5-4.1 26.2-0.8 2.8-1.5 5.5-2.1 7.8-0.1 0.8-0.9 1.4-1.7 1.4zm59.5-26l-3.6-2.3q-1.8-1.1-3.8-2.4c-12.4-7.9-31.2-19.8-44.9-14.8-0.8 0.3-1.7-0.1-2.1-0.8q-0.2-0.3-0.3-0.6c-0.4-0.9 0.1-1.9 1-2.3 11-3.8 20.8-4.3 30.9-1.5 14 3.9 18.8 6.3 21.9 20.5zm-35.9-22.9c10.9 2.9 22 10 30.4 15.3-2.8-8.9-7.1-10.5-18.3-13.6-4.1-1.1-8.1-1.7-12.1-1.7zm137.3 93.7c-22.6 0-51.9-5-69.9-27.4-10.1-12.7-19.8-34.8-26.2-51.2-0.3-0.9 0.1-1.9 1-2.3 1-0.3 2 0.1 2.4 1.1 6.2 16.1 15.7 37.8 25.6 50.2 17.9 22.4 48.2 26.5 70.5 26q3.2-0.1 6.5-0.1c8.6-0.1 17.6-0.2 26.1-1.5 1-0.2 1.9 0.5 2 1.4 0.2 1-0.5 1.9-1.5 2.1-8.8 1.3-17.8 1.4-26.6 1.6q-3.2 0-6.5 0.1-1.6 0-3.4 0zm35.9-2.3c-0.7 0-1.3-0.4-1.7-1-12.3-26.2-36.9-49.2-62.5-58.4-0.9-0.3-1.4-1.4-1.1-2.3 0.4-0.9 1.4-1.4 2.3-1.1 26.5 9.6 51.8 33.2 64.6 60.3 0.4 0.8 0 1.9-0.9 2.3q-0.4 0.2-0.7 0.2zm-79.8-56.3c-7.7 0-15.5-1.1-19.2-2-11.8-2.8-26.6-9.1-32.6-18.6-0.5-0.9-0.3-2 0.5-2.5 0.9-0.5 2-0.3 2.5 0.6 5.4 8.6 19.3 14.4 30.4 17 8.4 2 27.1 3.5 33.1-0.8 0.8-0.6 1.9-0.4 2.5 0.4 0.5 0.8 0.4 1.9-0.4 2.5-3.7 2.6-10.2 3.4-16.8 3.4zm-32.4 19.3q-0.2 0-0.4-0.1c-0.9-0.2-1.5-1.2-1.3-2.1 0.7-3.1 1.9-6.8 3-10.4 1.6-4.7 3.2-9.6 3.4-12.8 0.1-0.9 1-1.7 2-1.6 1 0.1 1.7 1 1.6 2-0.3 3.5-1.9 8.3-3.6 13.5-1.1 3.5-2.3 7.1-3 10.1-0.1 0.8-0.9 1.4-1.7 1.4zm18.3 21.1q-0.2 0-0.4 0c-0.9-0.2-1.6-1.1-1.4-2.1 1.1-5.6 2.8-11.1 4.4-16.4 2-6.8 4.2-13.7 5.1-20.9 0.1-1 1-1.7 1.9-1.5 1 0.1 1.7 1 1.6 1.9-0.9 7.5-3.1 14.6-5.2 21.5-1.6 5.2-3.2 10.6-4.3 16.1-0.1 0.8-0.9 1.4-1.7 1.4zm27.8 13.8q-0.4 0-0.9-0.2c-0.8-0.5-1.1-1.6-0.6-2.5 5.6-9.3 7.3-20.4 8.1-29.1 0.4-3.4 1-6.9 1.5-10.3 0.8-4.2 1.5-8.1 1.7-11.9 0-1 0.9-1.8 1.8-1.7 1 0 1.8 0.9 1.7 1.9-0.2 4-0.9 8.2-1.6 12.4-0.6 3.3-1.2 6.7-1.5 9.9-0.9 9.1-2.7 20.7-8.6 30.7-0.4 0.5-0.9 0.8-1.6 0.8zm24.9-8q-1.4 0-2.9-0.4c-2.9-0.7-5.4-2.8-6.7-5.6-1.4-2.9-1.4-6.1-0.1-8.8 1.6-3.5 4.1-6.1 7-7.1q3.3-1.2 7.1 0.1 0.3 0 0.7 0.2 0.3 0.2 0.7 0.4 0.1 0.1 0.2 0.1c5.5 3.4 6.3 9.2 4.6 13.6-1.5 4-5.5 7.5-10.6 7.5zm0.5-18.9q-1 0-2 0.3c-2 0.8-3.8 2.6-5 5.3-0.8 1.8-0.8 3.9 0.1 5.7 0.9 1.9 2.5 3.3 4.4 3.8 4.6 1.2 8.1-1.8 9.3-5 1.1-2.9 0.8-6.8-3.2-9.3q-1.9-0.8-3.6-0.8zm-33.9 6.3q0.2 0.2 0.4 0.4-0.5-0.6-1.2-1c-0.6-0.2-1.4-0.4-2.1-0.1-1.3 0.6-2 1.7-1.9 3.1 0.1 1.9 2.1 3.2 3.9 2.6 2-0.7 2.7-3.6 0.9-5zm2-12.7c-0.9-0.5-2.1-0.3-2.9 0.2q-0.7 0.5-1.1 1.3c-0.8 1-0.8 2.5-0.1 3.7 1.2 1.7 3.8 1.8 5.2 0.2 0.6-0.7 0.9-1.6 0.8-2.5-0.1-1.3-0.8-2.3-1.9-2.9zm-1.2-10.7c-3.6 2.4 0.2 7.9 3.7 5.5 3.5-2.4-0.2-7.9-3.7-5.5zm-26 5.8c-0.8-0.7-1.7-0.7-2.5-0.5q0 0.2-0.2 0.2c-0.4 0.1-0.7 0.3-1 0.6-0.4 0.4-0.7 1.1-0.7 1.9q0-0.6 0.1-1.1-0.1 0.1-0.1 0.1c-0.4 0.9-0.4 2 0.2 2.9 0.6 0.8 1.6 1.3 2.6 1.2 1.1 0 1.9-0.7 2.4-1.6 0.7-1.2 0.3-2.9-0.8-3.7zm-2.5-0.5c0-0.5-1.7-1.5-1.8 1.6q0.2-0.4 0.6-0.8 0.5-0.6 1.2-0.8zm4.2-11.5c-1.1-0.2-2.1 0.3-2.8 1q-0.1 0.1-0.2 0.2c-2 2 0.6 5.8 3.3 4.7q0-0.1 0.1-0.1c0.8-0.3 1.4-0.8 1.7-1.5 0.5-1 0.4-2.1-0.2-3-0.4-0.7-1.1-1.1-1.9-1.3zm54.8 28.3c-1.5 1-1.8 3-0.9 4.4 1 1.4 3 1.8 4.5 0.9 1.4-1 1.8-3 0.8-4.5-1-1.4-3-1.8-4.4-0.8zm-60.6 73.5q-0.1 0.2-0.3 0.3c-0.7 1-0.3 2.5 1 2.7 1.2 0.2 2.2-1 1.8-2.1q0-0.2-0.1-0.5c-0.3-1-1.7-1.2-2.4-0.4zm-4.3-4.5c-0.9 0.6 0.8 3 1.6 2.4 1.8-1.2 0.1-3.6-1.6-2.4zm-8.5-14.1c-1.2-0.1-1.7 1.5-1.2 2.4 0.2 0.6 0.7 1 1.4 1 0.7-0.1 1.2-0.5 1.3-1.2 0.1-0.3 0.1-0.7 0-1q0-0.1 0-0.3c-0.3-0.6-0.8-0.9-1.5-0.9zm-5.6-3.8c-0.9 0.6 0.6 2.9 1.5 2.3 1.8-1.2 0.3-3.5-1.5-2.3zm-5.8-14.6c-0.3 0.2-0.4 0.6-0.4 0.9 0 0.4 0.1 0.8 0.3 1q0.3 0.3 0.5 0.5c0 0.1 0.6 0.5 0.4 0.3 0.8 0.6 1.8 0 1.8-0.9 0.1-1.4-1.4-2.4-2.6-1.8zm-1.5-5.6c-1.7 1.2-0.4 3.1 1.3 1.9 0.9-0.6-0.4-2.5-1.3-1.9zm-2.1-4.9q-0.2-0.1-0.3-0.2-0.1 0-0.2 0c-0.4-0.4-1-0.5-1.6-0.1-0.8 0.5-0.7 1.6-0.1 2.2 0.3 0.3 0.6 0.4 0.9 0.5q0.2 0 0.5 0c0.8 0 0.2 0 0 0 0.8 0.1 1.4-0.5 1.4-1.2 0-0.3-0.1-0.7-0.3-0.9q-0.2-0.2-0.3-0.3zm-6.1-12.9c-0.9 0.6 0.6 2.7 1.4 2.1 1.8-1.2 0.4-3.3-1.4-2.1zm-0.6-6.1c-1 0.6-0.9 1.9 0 2.6 1 0.7 2.1-0.1 1.8-1.2q0-0.1 0-0.2c0.2-0.9-0.9-1.9-1.8-1.2zm-7.5-9q0 0 0.1 0.1c1 1.2 2.8 0 2-1.4q0-0.1 0-0.1c-0.8-1.5-3.2 0.1-2.1 1.4zm-4.1-8.6c-0.9 0.6 0.7 2.9 1.6 2.3 1.7-1.2 0.1-3.5-1.6-2.3zm-3.1-4.6c-0.9 0.6 0.4 2.6 1.3 2 1.8-1.2 0.5-3.2-1.3-2zm-7.8-7.7q-0.1 0.2-0.3 0.5c-0.3 0.7 0.2 1.5 0.9 1.7 0.8 0.1 1.5-0.5 1.4-1.3q0-0.2 0-0.5c-0.1-1.1-1.5-1.3-2-0.4zm-3.6-5.2c-0.9 0.6 0.5 2.6 1.4 2 1.7-1.2 0.4-3.2-1.4-2zm-4.3-2.6c-0.9 0.6 0.4 2.5 1.3 1.9 1.7-1.2 0.4-3.1-1.3-1.9zm-10.6-5.4q-0.1 0.2-0.2 0.4c-0.2 0.7 0.1 1.5 0.8 1.6 0.7 0.1 1.4-0.5 1.3-1.2q0-0.2 0-0.5c0-0.9-1.5-1.2-1.9-0.3zm-4.3-3.1c-0.9 0.6 0.5 2.6 1.4 2 1.8-1.2 0.4-3.2-1.4-2zm145.2 125.1c-6.3 0-12.4-3.5-15-8.7-2.3-4.6-1.3-9.7 2.7-14.1 2.7-3.1 7.8-2.8 10.9-0.7 2.6 1.7 4.6 5.2 2.4 9.8-0.4 0.9-1.4 1.3-2.3 0.8-0.9-0.4-1.3-1.4-0.9-2.3 1.3-2.9 0.1-4.5-1.2-5.4-2-1.3-5-1.3-6.3 0.2-3 3.3-3.7 6.8-2.1 10.1 2.1 4.3 7.6 7.1 12.9 6.7 5.3-0.5 9.3-4.2 11.2-10.4 3.1-10.5-9.7-17.1-19-22q-1.4-0.7-2.7-1.4c-4.2-2.3-9.1-4.1-14.2-6.1-11.7-4.4-25-9.4-33-20.6-0.5-0.8-0.3-1.9 0.5-2.5 0.8-0.6 1.9-0.4 2.4 0.4 7.4 10.4 19.6 15 31.3 19.4 5.3 2 10.3 3.9 14.7 6.2q1.2 0.7 2.6 1.4c9.9 5.2 24.8 13 20.8 26.2-2.3 7.7-7.5 12.4-14.3 12.9q-0.7 0.1-1.4 0.1zm3.5-35.5c-5.1 0-11.6-1.5-19.1-4.4-1-0.4-1.4-1.4-1-2.3 0.3-0.9 1.3-1.4 2.3-1 19.3 7.5 25.4 3.2 27.4-0.1 1.4-2.2 0.4-4.2-0.3-5.2-1.2-1.8-3.3-3-4.9-2.7q-1.9 0.3-2.7 3.1c-0.2 1-1.2 1.5-2.1 1.3-1-0.3-1.6-1.3-1.3-2.2 1.2-4.4 3.9-5.5 5.5-5.7 3-0.5 6.5 1.2 8.5 4.2 1.9 2.9 2.1 6.3 0.4 9.1-2.4 3.9-6.7 5.9-12.7 5.9zm-29.8 14.1c-3.9 0-7.6-1.8-9.6-4.8-1.9-2.9-1.9-6.4 0.2-9.7q2.1-3.4 5-3.5c3.3-0.1 5.6 3.3 5.9 3.6 0.5 0.9 0.3 2-0.5 2.5-0.8 0.6-1.9 0.4-2.5-0.5-0.4-0.6-1.7-2-2.8-2-0.8 0-1.6 1-2.1 1.8-1.3 2.1-1.4 4.1-0.2 5.8 1.5 2.3 4.9 3.6 8 3.1 3-0.5 5.2-2.7 6.1-6 0.7-2.6 0.4-4.9-0.9-7.1-4-6.9-16-10.1-16.2-10.2-0.9-0.2-1.5-1.2-1.2-2.1 0.2-1 1.2-1.6 2.1-1.3 0.6 0.1 13.6 3.6 18.4 11.8 1.7 3 2.2 6.3 1.3 9.8-1.3 4.7-4.6 7.9-9 8.6q-1 0.2-2 0.2zm-196.2-335.4q-0.2 0-0.4 0c-0.7-0.2-1.3-0.8-1.4-1.6-0.8-9.4-7.8-20.3-15.3-31.8-11.3-17.4-24.2-37.2-15.9-55.6 3.2-7 10.1-12.2 18.1-13.6 8-1.3 15.8 1.4 21.8 7.7 5 5.2 6.3 13.4 3.2 20.9-3.1 7.6-9.9 12.4-17.9 12.7-5.2 0.2-9.6-1.5-12.5-4.8-2.6-2.8-3.7-6.6-3.2-10.2 0.8-5 5.4-9.4 10.6-10 4-0.4 7.3 1.6 8.9 5.6 0.3 0.9-0.1 1.9-1 2.3-1 0.3-2-0.1-2.4-1-1.2-3.1-3.4-3.5-5.1-3.4-3.2 0.4-6.9 3.3-7.4 7-0.4 2.6 0.4 5.3 2.2 7.3 1.6 1.8 4.5 3.8 9.8 3.6 6.6-0.2 12.1-4.1 14.7-10.5 2.5-6.1 1.6-12.8-2.5-17.1-5.2-5.4-11.8-7.7-18.7-6.5-6.7 1.1-12.6 5.5-15.3 11.5-7.5 16.6 4.2 34.7 15.6 52.2 6.5 10.1 12.8 19.7 15.1 28.8 5-7.5 16.8-23.9 29.8-32 7.1-4.4 11.1-10.4 11.2-16.7 0.1-5-2.2-9.8-6.2-12.6-4.4-3-11.4-3.1-16-0.2-2.7 1.8-5.6 5.4-4.2 12.3 1 4.9 3.9 6.1 5.6 6.4 2.4 0.5 4.9-0.5 6.1-2.3 1.1-1.7 0.7-4.1-1.1-6.6-0.6-0.8-0.4-1.9 0.4-2.4 0.8-0.6 1.9-0.4 2.5 0.4 2.7 3.6 3.1 7.5 1.2 10.5-2 3-6 4.6-9.8 3.9-4.3-0.8-7.4-4.2-8.4-9.2-1.9-9.4 2.8-14 5.8-16 5.7-3.7 14.3-3.6 19.9 0.3 5 3.4 7.9 9.4 7.8 15.6-0.2 7.6-4.8 14.5-12.9 19.6-16.1 10.1-31 34.4-31.2 34.7-0.3 0.5-0.9 0.8-1.5 0.8zm13.8-19.1q-0.5 0-1-0.3c-0.8-0.5-1-1.6-0.5-2.5 0.7-1 0.8-1.9 0.2-2.7-1-1.6-3.7-2.7-5.8-2.3q-2.2 0.3-2.7 2.3c-0.1 0.7-0.6 1.2-1.3 1.3-0.6 0.2-1.3 0-1.7-0.5-2.2-2.4-5.5-5.2-7.8-5-0.6 0.1-1.4 0.3-2.2 1.7-0.5 0.8-1.6 1.1-2.5 0.6-0.8-0.5-1.1-1.6-0.6-2.5 1.6-2.5 3.6-3.2 5-3.3 3.3-0.3 6.7 2.2 9 4.3 1-1.3 2.4-2.1 4.2-2.4 3.6-0.6 7.6 1.1 9.4 3.8 1.3 2.1 1.3 4.5-0.2 6.7-0.3 0.5-0.9 0.8-1.5 0.8zm8-9.3c-0.5 0-1-0.2-1.3-0.6-0.7-0.7-0.7-1.9 0.1-2.5 1.2-1.2 1.5-2.4 0.8-3.9-1-2.5-4.4-4.6-6.9-4.4q-1.6 0.1-2.5 1.4-0.2 0.9-0.7 1.8c-0.5 0.7-1.4 1.1-2.3 0.7-0.8-0.3-1.2-1.3-1-2.1q0.3-0.9 0.7-1.6c0.1-0.9-0.3-1.4-0.4-1.6-1-1.4-3.8-2.3-6.1-1.8-1.4 0.2-3.1 1-3.7 3.2-0.2 0.7-0.7 1.3-1.4 1.4-0.8 0.1-1.5-0.2-1.8-0.8-1.9-3-6-5-8.8-4.3q-2.5 0.8-2.6 4.6c0 1-0.9 1.9-1.8 1.8-1 0-1.8-0.8-1.8-1.8 0.1-4.2 2-7.1 5.3-8 3.5-0.9 7.8 0.6 10.8 3.4 1.2-1.5 2.9-2.6 5.1-3 3.8-0.7 7.9 0.6 9.7 3.2q0.2 0.3 0.4 0.7 1.2-0.7 2.7-0.8c4-0.2 8.7 2.7 10.4 6.6 1.2 2.9 0.6 5.7-1.7 7.9-0.4 0.3-0.8 0.5-1.2 0.5zm-31.3-49.1h0.1zm-4-0.8c-1.4 7.4 8.8 9.3 10.2 2 1.2-6.3-9-8.3-10.2-2zm34.2 19.6c-1.2 6.3 8.7 8.2 9.9 1.9 1.2-6.3-8.7-8.2-9.9-1.9zm-24 58.5c-1 5.3 6.3 6.7 7.3 1.4 0.8-4.2-6.5-5.6-7.3-1.4zm-157.4 62.8c-0.4 0-0.8-0.2-1.2-0.4-7.2-6.1-19.9-8.8-33.3-11.7-20.3-4.3-43.4-9.2-50.5-28.1-2.7-7.2-1.5-15.7 3.1-22.3 4.7-6.7 12.2-10.3 20.9-10.1 7.2 0.2 13.9 5.1 17 12.5 3.2 7.6 1.8 15.9-3.7 21.7-3.5 3.8-7.8 5.7-12.2 5.5-3.8-0.2-7.2-2.1-9.4-5-3.1-4.1-2.9-10.5 0.3-14.5 2.6-3.2 6.4-4.1 10.3-2.4 0.9 0.4 1.3 1.5 0.9 2.4-0.4 0.9-1.5 1.3-2.4 0.9-3-1.4-4.9 0-6 1.3-1.9 2.4-2.5 7.1-0.3 10.1 1.6 2.1 4.1 3.5 6.8 3.6 2.3 0.2 5.9-0.5 9.4-4.3 4.6-4.9 5.7-11.6 3-17.9-2.5-6.1-8-10.2-13.8-10.3-7.5-0.2-13.9 2.9-17.9 8.5-4 5.7-5 13-2.7 19.1 6.5 17 27.5 21.5 47.9 25.8 11.8 2.5 23.1 4.9 31.1 9.7-1.8-8.8-5-28.8-1.5-43.7 1.8-8.1 0.5-15.1-3.9-19.7-3.5-3.6-8.6-5.4-13.3-4.5-5.3 0.9-10.3 5.8-11.4 11.1-0.7 3.2-0.2 7.8 5.7 11.7 4.1 2.8 7 1.6 8.4 0.6 2-1.3 3.2-3.8 2.7-5.9-0.5-2-2.4-3.4-5.4-3.9-1-0.2-1.6-1.1-1.5-2.1 0.2-0.9 1.1-1.6 2.1-1.4 4.5 0.7 7.5 3.1 8.3 6.6 0.8 3.5-0.9 7.5-4.2 9.7-3.5 2.4-8.2 2.2-12.4-0.6-8-5.3-7.9-11.9-7.2-15.4 1.4-6.7 7.5-12.7 14.3-13.9 5.9-1.1 12.2 1.1 16.5 5.6 5.2 5.4 6.9 13.6 4.7 22.9-4.3 18.5 2.4 46.3 2.5 46.6 0.2 0.7-0.1 1.5-0.8 1.9q-0.4 0.3-0.9 0.3zm-26.1-11.2c-0.8 0-1.5-0.5-1.7-1.3-0.7-2.9 0.2-4.8 1.1-5.9 2.2-2.6 6.3-3.2 9.4-3.3-0.2-1.6 0.3-3.2 1.3-4.7 2.1-2.9 6.2-4.6 9.4-3.9 2.4 0.5 4.1 2.3 4.6 4.9 0.2 0.9-0.5 1.9-1.4 2.1-1 0.1-1.9-0.5-2.1-1.4-0.3-1.2-0.9-1.9-1.9-2.1-1.8-0.4-4.4 0.7-5.7 2.5q-1.3 1.7-0.2 3.5c0.3 0.6 0.3 1.3 0 1.9-0.4 0.5-1 0.8-1.7 0.8-3.2-0.2-7.4 0.2-9 2-0.3 0.4-0.7 1.2-0.4 2.7 0.3 1-0.3 2-1.3 2.2q-0.2 0-0.4 0zm-12.9-2.4c-0.4 0-0.9-0.2-1.2-0.6-2.9-3-3.6-6.4-1.9-9.3 1.7-3.2 5.9-5.2 10-5.3-0.3-1.9 0.2-3.9 1.5-5.7 2.1-3.2 6-5.1 9.1-4.6q0.4 0.1 0.7 0.2 0.5-1.3 1.4-2.4c2.7-3.1 8.1-4.3 12.1-2.7 2.8 1.1 4.4 3.6 4.3 6.7 0 1-0.9 1.8-1.8 1.7-1 0-1.8-0.8-1.8-1.8 0.1-1.7-0.6-2.8-2.1-3.3-2.5-1-6.3-0.2-8 1.8q-1.1 1.2-0.7 2.7 0.4 0.8 0.7 1.8c0.2 0.8-0.2 1.7-1.1 2.1-0.8 0.3-1.8 0-2.2-0.8q-0.4-0.8-0.7-1.6c-0.5-0.7-1.1-0.8-1.4-0.9-1.7-0.3-4.2 1.1-5.6 3.1-0.8 1.1-1.4 2.9-0.3 4.9 0.4 0.6 0.4 1.4-0.1 1.9-0.4 0.6-1.1 0.9-1.8 0.7-3.4-0.8-7.7 0.8-9.1 3.2q-1.4 2.4 1.3 5.2c0.7 0.7 0.7 1.8 0 2.5-0.4 0.3-0.8 0.5-1.3 0.5zm-21.3-35.1h0.1zm-3.4 2.2c4.2 6.2 12.8 0.4 8.6-5.8-3.6-5.3-12.2 0.5-8.6 5.8zm38-10.3c3.6 5.3 11.9-0.3 8.3-5.6-3.6-5.3-11.9 0.3-8.3 5.6zm24.4 58.4c3 4.4 9.2 0.2 6.2-4.2-2.4-3.6-8.6 0.7-6.2 4.2zm-142.9 190c-4.2 0-8.4-0.8-12.5-2.6-7-3.2-12.2-10.1-13.6-18-1.4-8.1 1.3-15.9 7.6-21.9 5.3-5 13.5-6.2 20.9-3.2 7.6 3.1 12.5 10 12.8 17.9 0.1 5.2-1.6 9.6-4.8 12.5-2.9 2.6-6.6 3.7-10.3 3.2-5-0.8-9.4-5.4-9.9-10.5-0.5-4.1 1.6-7.4 5.5-8.9 1-0.4 2 0.1 2.3 1 0.4 0.9 0 1.9-1 2.3-3.1 1.2-3.5 3.5-3.3 5.2 0.4 3.1 3.2 6.8 7 7.4 2.5 0.3 5.3-0.5 7.3-2.3 1.7-1.6 3.8-4.5 3.6-9.8-0.2-6.6-4.2-12.1-10.5-14.7-6.2-2.5-12.9-1.5-17.1 2.5-5.4 5.2-7.8 11.8-6.6 18.7 1.2 6.8 5.6 12.6 11.6 15.3 16.6 7.5 34.6-4.2 52.1-15.5 10.1-6.6 19.8-12.9 28.8-15.2-7.5-5-23.8-16.8-32-29.8-4.4-7.1-10.3-11.1-16.6-11.2-5.1-0.2-9.9 2.3-12.6 6.2-3.1 4.4-3.2 11.5-0.2 16 1.7 2.7 5.3 5.6 12.3 4.2 4.8-1 6.1-3.9 6.4-5.5 0.4-2.4-0.5-5-2.3-6.1-1.8-1.2-4.1-0.8-6.6 1-0.8 0.6-1.9 0.4-2.5-0.4-0.6-0.8-0.4-1.9 0.4-2.5 3.7-2.6 7.6-3.1 10.6-1.1 3 1.9 4.6 5.9 3.9 9.7-0.8 4.3-4.2 7.4-9.2 8.4-9.4 1.9-14.1-2.8-16-5.8-3.8-5.7-3.7-14.3 0.3-19.9 3.4-5 9.3-7.9 15.6-7.8 7.5 0.2 14.5 4.8 19.5 12.9 10.1 16.1 34.5 31 34.7 31.2 0.7 0.4 1 1.2 0.8 1.9-0.1 0.8-0.8 1.3-1.5 1.4-9.5 0.8-20.3 7.9-31.8 15.3-13.6 8.8-28.5 18.5-43.1 18.5zm48.4-23.2q-0.5 0-0.9-0.3c-2.6-1.6-3.2-3.5-3.4-5-0.3-3.3 2.2-6.7 4.3-8.9-1.2-1-2.1-2.5-2.4-4.3-0.5-3.6 1.1-7.6 3.9-9.4 2.1-1.3 4.5-1.2 6.7 0.2 0.8 0.6 1 1.7 0.5 2.5-0.6 0.8-1.7 1-2.5 0.5-1-0.7-1.9-0.8-2.8-0.2-1.6 1-2.6 3.7-2.3 5.8q0.4 2.2 2.4 2.7c0.6 0.2 1.1 0.7 1.3 1.3 0.1 0.6-0.1 1.3-0.6 1.7-2.4 2.2-5.1 5.5-4.9 7.8 0 0.6 0.3 1.4 1.6 2.3 0.9 0.5 1.1 1.6 0.6 2.4-0.3 0.5-0.9 0.9-1.5 0.9zm-10.8 7.3q-0.1 0-0.1 0c-4.1-0.1-7-2-7.9-5.3-1-3.4 0.5-7.8 3.4-10.8-1.6-1.1-2.6-2.9-3.1-5.1-0.7-3.8 0.7-7.8 3.3-9.7q0.3-0.2 0.6-0.4-0.6-1.2-0.7-2.6c-0.3-4.1 2.7-8.8 6.6-10.5 2.8-1.2 5.7-0.6 7.8 1.7 0.7 0.8 0.7 1.9-0.1 2.6-0.7 0.6-1.8 0.6-2.5-0.1-1.1-1.3-2.4-1.5-3.8-0.9-2.5 1.1-4.6 4.4-4.4 6.9q0.1 1.7 1.4 2.5 0.8 0.2 1.7 0.7c0.8 0.5 1.1 1.4 0.8 2.3-0.4 0.8-1.3 1.2-2.2 1q-0.8-0.3-1.6-0.6c-0.8-0.2-1.3 0.2-1.5 0.3-1.5 1.1-2.3 3.8-1.9 6.1 0.3 1.4 1.1 3.2 3.3 3.7 0.7 0.2 1.2 0.8 1.3 1.5 0.1 0.7-0.2 1.4-0.8 1.8-2.9 1.8-4.9 5.9-4.2 8.7q0.7 2.6 4.6 2.7c1 0 1.8 0.8 1.7 1.8 0 0.9-0.8 1.7-1.7 1.7zm-38.7-10.2v-0.1zm-0.7 4c7.3 1.4 9.3-8.8 1.9-10.2-6.3-1.2-8.2 9-1.9 10.2zm19.6-34.1c6.3 1.2 8.1-8.7 1.8-9.9-6.3-1.2-8.1 8.7-1.8 9.9zm58.5 24c5.2 1 6.6-6.4 1.4-7.4-4.2-0.8-5.6 6.6-1.4 7.4zm14.5 243.8c-5 0-10-1.6-14.3-4.6-6.6-4.7-10.2-12.1-10-20.8 0.2-7.3 5.1-14 12.5-17.1 7.5-3.2 15.8-1.8 21.7 3.7 3.7 3.5 5.7 7.9 5.4 12.2-0.2 3.8-2 7.3-5 9.5-4.1 3-10.4 2.8-14.5-0.4-3.2-2.5-4-6.3-2.3-10.2 0.4-0.9 1.4-1.3 2.3-0.9 0.9 0.3 1.3 1.4 0.9 2.3-1.3 3.1 0 5 1.3 6 2.5 2 7.2 2.6 10.2 0.3 2.1-1.5 3.4-4.1 3.6-6.8 0.1-2.3-0.5-5.8-4.4-9.4-4.8-4.5-11.5-5.7-17.8-3-6.2 2.6-10.2 8-10.3 13.9-0.2 7.5 2.8 13.8 8.5 17.8 5.6 4 12.9 5 19 2.7 17.1-6.4 21.6-27.5 25.9-47.9 2.5-11.8 4.9-23 9.7-31-8.9 1.7-28.8 4.9-43.8 1.5-8.1-1.9-15.1-0.5-19.6 3.8-3.7 3.5-5.4 8.6-4.6 13.3 1 5.3 5.9 10.4 11.2 11.5 3.1 0.6 7.7 0.2 11.7-5.8 2.7-4.1 1.5-7 0.6-8.4-1.4-2-3.9-3.1-6-2.7-2 0.5-3.4 2.4-3.9 5.4-0.1 1-1.1 1.6-2 1.5-1-0.2-1.6-1.1-1.5-2.1 0.7-4.4 3.2-7.5 6.7-8.2 3.4-0.8 7.4 0.9 9.6 4.1 2.5 3.6 2.3 8.2-0.5 12.4-5.4 8-12 8-15.4 7.3-6.8-1.4-12.7-7.6-14-14.3-1-5.9 1.1-12.3 5.6-16.6 5.5-5.2 13.6-6.8 22.9-4.7 18.6 4.3 46.3-2.4 46.6-2.5 0.8-0.2 1.5 0.2 2 0.8 0.4 0.7 0.3 1.5-0.2 2.1-6.1 7.3-8.8 19.9-11.6 33.4-4.4 20.3-9.2 43.3-28.1 50.4-2.6 1-5.3 1.5-8.1 1.5zm33.8-58.4c-1.8 0-3.1-0.7-3.9-1.4-2.6-2.1-3.3-6.3-3.3-9.4-1.6 0.2-3.3-0.2-4.8-1.3-2.9-2.1-4.6-6.1-3.9-9.3 0.6-2.4 2.3-4.1 4.9-4.6 1-0.2 1.9 0.4 2.1 1.4 0.2 0.9-0.4 1.9-1.4 2.1-1.2 0.2-1.9 0.8-2.1 1.8-0.4 1.8 0.8 4.5 2.5 5.7q1.8 1.3 3.6 0.3c0.5-0.4 1.2-0.4 1.8 0 0.6 0.3 0.9 0.9 0.9 1.6-0.2 3.2 0.2 7.5 2 9 0.4 0.3 1.1 0.8 2.7 0.4 0.9-0.2 1.9 0.4 2.1 1.3 0.3 1-0.3 1.9-1.3 2.2q-1 0.2-1.9 0.2zm-5.8 15q-1.7 0-3.3-0.9c-3.1-1.8-5.1-5.9-5.2-10.1-1.9 0.3-3.9-0.2-5.8-1.5-3.1-2.1-5.1-6-4.5-9.1q0-0.4 0.1-0.7-1.2-0.4-2.3-1.4c-3.1-2.7-4.4-8.1-2.8-12 1.1-2.9 3.6-4.5 6.8-4.4 1 0.1 1.7 0.9 1.7 1.9 0 1-0.9 1.7-1.8 1.7-1.7-0.1-2.8 0.6-3.4 2.1-1 2.5-0.1 6.3 1.8 8q1.2 1.1 2.7 0.8 0.8-0.5 1.8-0.7c0.9-0.3 1.8 0.2 2.1 1 0.4 0.8 0 1.8-0.8 2.2q-0.8 0.5-1.6 0.7c-0.7 0.5-0.8 1.1-0.8 1.4-0.3 1.7 1.1 4.3 3 5.6 1.2 0.8 3 1.5 4.9 0.3 0.6-0.4 1.4-0.3 2 0.1 0.6 0.4 0.8 1.1 0.7 1.8-0.8 3.4 0.7 7.8 3.2 9.2q2.3 1.3 5.1-1.4c0.7-0.7 1.9-0.6 2.5 0.1 0.7 0.7 0.7 1.8 0 2.5-1.9 1.8-4 2.8-6.1 2.8zm-28.4 17.3l-0.1-0.1zm2.3 3.3c6.2-4.2 0.4-12.8-5.8-8.6-5.3 3.7 0.5 12.2 5.8 8.6zm-10.3-37.9c5.3-3.6-0.4-12-5.7-8.4-5.3 3.6 0.4 12 5.7 8.4zm58.3-24.4c4.5-3 0.2-9.3-4.2-6.3-3.5 2.4 0.7 8.7 4.2 6.3zm165.3 169.3c-6.5 0-12.7-2.8-17.7-8-5-5.2-6.3-13.4-3.3-20.9 3.1-7.6 10-12.5 18-12.7 5.1-0.2 9.6 1.5 12.5 4.8 2.5 2.8 3.7 6.5 3.1 10.2-0.7 5-5.3 9.4-10.5 10-4 0.4-7.4-1.6-8.9-5.6-0.4-0.9 0.1-1.9 1-2.3 0.9-0.4 2 0.1 2.3 1 1.2 3.1 3.5 3.5 5.2 3.3 3.1-0.3 6.8-3.2 7.4-6.9 0.4-2.6-0.5-5.3-2.3-7.4-1.5-1.7-4.5-3.7-9.7-3.6-6.7 0.3-12.2 4.2-14.8 10.6-2.5 6.1-1.5 12.8 2.5 17 5.2 5.5 11.8 7.8 18.7 6.6 6.8-1.1 12.7-5.5 15.4-11.5 7.5-16.6-4.3-34.7-15.6-52.2-6.6-10.1-12.8-19.7-15.1-28.8-5 7.5-16.9 23.9-29.9 32-7 4.4-11 10.3-11.2 16.6-0.1 5.1 2.3 9.9 6.2 12.7 4.5 3 11.5 3.1 16 0.2 2.7-1.8 5.6-5.4 4.2-12.4-0.9-4.8-3.8-6-5.5-6.3-2.4-0.5-5 0.5-6.1 2.3-1.1 1.7-0.7 4.1 1 6.5 0.6 0.8 0.4 2-0.4 2.5-0.8 0.6-1.9 0.4-2.4-0.4-2.7-3.7-3.1-7.5-1.2-10.5 1.9-3.1 5.9-4.7 9.8-3.9 4.2 0.8 7.4 4.2 8.3 9.1 1.9 9.4-2.8 14.1-5.7 16-5.8 3.8-14.3 3.7-20-0.2-4.9-3.4-7.9-9.4-7.7-15.6 0.2-7.6 4.7-14.5 12.8-19.6 16.2-10.1 31.1-34.5 31.2-34.7 0.4-0.7 1.2-1 1.9-0.8 0.8 0.2 1.3 0.8 1.4 1.6 0.9 9.4 7.9 20.3 15.4 31.8 11.3 17.4 24.1 37.2 15.8 55.5-3.2 7.1-10.1 12.3-18 13.6q-2 0.4-4.1 0.4zm-4.3-70.6c-3.1 0-6.3-2.3-8.4-4.3-1 1.3-2.5 2.1-4.3 2.4-3.5 0.6-7.5-1.1-9.3-3.9-1.4-2-1.3-4.5 0.2-6.6 0.5-0.9 1.6-1.1 2.4-0.5 0.8 0.5 1.1 1.6 0.5 2.4-0.7 1.1-0.7 1.9-0.1 2.8 1 1.6 3.6 2.6 5.8 2.3q2.1-0.4 2.6-2.4c0.2-0.6 0.7-1.1 1.3-1.2 0.7-0.2 1.4 0 1.8 0.5 2.1 2.4 5.4 5.2 7.8 5 0.5-0.1 1.4-0.3 2.2-1.7 0.5-0.8 1.6-1.1 2.4-0.6 0.9 0.5 1.1 1.6 0.6 2.5-1.5 2.5-3.5 3.2-4.9 3.3q-0.3 0-0.6 0zm5.7 14.9c-3 0-6.3-1.4-8.6-3.7-1.2 1.5-3 2.6-5.2 3-3.7 0.7-7.8-0.7-9.6-3.3q-0.3-0.3-0.4-0.6-1.2 0.6-2.7 0.7c-4.1 0.3-8.8-2.6-10.4-6.5-1.3-2.9-0.6-5.7 1.7-7.9 0.7-0.7 1.8-0.6 2.5 0.1 0.7 0.7 0.6 1.8-0.1 2.5-1.2 1.1-1.5 2.4-0.9 3.9 1.1 2.4 4.4 4.5 7 4.4q1.6-0.1 2.4-1.4 0.3-0.9 0.8-1.8c0.4-0.8 1.4-1.1 2.2-0.7 0.8 0.3 1.3 1.2 1 2.1q-0.2 0.9-0.6 1.6c-0.1 0.9 0.2 1.4 0.4 1.6 1 1.4 3.7 2.2 6.1 1.8 1.4-0.3 3.1-1 3.7-3.3 0.1-0.7 0.7-1.2 1.4-1.3 0.7-0.1 1.4 0.2 1.8 0.8 1.8 3 6 5 8.7 4.2q2.6-0.7 2.7-4.6c0-0.9 0.8-1.7 1.8-1.7q0 0 0 0c1 0 1.8 0.8 1.8 1.8-0.1 4.2-2.1 7.1-5.3 8q-1.1 0.3-2.2 0.3zm-2.7 30.3h-0.2zm4 0.8c1.4-7.4-8.8-9.3-10.2-2-1.2 6.3 9 8.3 10.2 2zm-34.1-19.6c1.2-6.3-8.7-8.2-9.9-1.9-1.2 6.3 8.7 8.2 9.9 1.9zm24-58.5c1-5.3-6.4-6.7-7.4-1.4-0.8 4.2 6.6 5.6 7.4 1.4zm176.3 14.8c-4.9 0-9.9-2.1-13.4-5.9-5.2-5.4-6.9-13.6-4.8-22.9 4.3-18.5-2.4-46.3-2.5-46.6-0.1-0.7 0.2-1.5 0.8-1.9 0.7-0.4 1.5-0.4 2.1 0.1 7.3 6.1 20 8.8 33.4 11.7 20.3 4.3 43.3 9.2 50.5 28 2.7 7.3 1.5 15.8-3.2 22.4-4.7 6.7-12.1 10.2-20.8 10-7.3-0.1-13.9-5-17.1-12.4-3.1-7.6-1.7-15.9 3.7-21.7 3.5-3.8 7.9-5.7 12.3-5.5 3.8 0.2 7.2 2.1 9.4 5 3 4.1 2.9 10.5-0.4 14.5-2.5 3.2-6.3 4.1-10.2 2.4-0.9-0.4-1.3-1.5-0.9-2.4 0.4-0.9 1.4-1.3 2.3-0.9 3.1 1.3 5 0 6-1.3 2-2.5 2.6-7.1 0.3-10.2-1.5-2-4-3.4-6.7-3.5-2.4-0.2-5.9 0.5-9.5 4.3-4.5 4.9-5.6 11.5-3 17.9 2.6 6.1 8 10.1 13.9 10.3 7.5 0.2 13.8-2.9 17.8-8.6 4-5.6 5-12.9 2.7-19-6.4-17-27.5-21.5-47.9-25.9-11.8-2.5-23-4.9-31-9.6 1.8 8.8 5 28.7 1.5 43.7-1.9 8.1-0.5 15.1 3.8 19.7 3.5 3.6 8.6 5.4 13.3 4.5 5.4-1 10.4-5.9 11.5-11.1 0.6-3.2 0.2-7.8-5.7-11.8-4.1-2.7-7.1-1.5-8.5-0.5-2 1.3-3.1 3.8-2.6 5.9 0.4 2 2.3 3.4 5.3 3.9 1 0.2 1.7 1.1 1.5 2.1-0.1 0.9-1.1 1.6-2 1.4-4.5-0.7-7.5-3.1-8.3-6.6-0.8-3.5 0.9-7.5 4.1-9.7 3.6-2.4 8.2-2.2 12.4 0.6 8 5.3 8 11.9 7.3 15.4-1.4 6.7-7.6 12.7-14.3 13.9q-1.5 0.3-3.1 0.3zm-10.8-47.2q-0.8 0-1.5-0.1c-2.4-0.5-4.1-2.3-4.6-4.9-0.2-0.9 0.4-1.9 1.4-2.1 1-0.2 1.9 0.5 2.1 1.4 0.2 1.2 0.8 1.9 1.8 2.1 1.9 0.4 4.5-0.7 5.8-2.5q1.2-1.8 0.2-3.5c-0.4-0.6-0.4-1.3 0-1.9 0.3-0.5 1-0.9 1.6-0.8 3.2 0.2 7.5-0.2 9-2 0.4-0.5 0.8-1.2 0.4-2.8-0.2-0.9 0.4-1.9 1.3-2.1 1-0.2 2 0.4 2.2 1.3 0.7 2.9-0.2 4.8-1.2 5.9-2.1 2.5-6.3 3.2-9.3 3.3 0.1 1.6-0.3 3.2-1.4 4.7-1.7 2.5-4.9 4-7.8 4zm2.9 14.3c-1.3 0-2.5-0.2-3.7-0.7-2.9-1.1-4.5-3.6-4.3-6.7 0-1 0.8-1.8 1.8-1.8 1 0.1 1.7 0.9 1.7 1.9 0 1.6 0.6 2.7 2.1 3.3 2.5 1 6.4 0.2 8.1-1.8q1-1.2 0.7-2.7-0.5-0.8-0.7-1.8c-0.2-0.8 0.2-1.7 1-2.1 0.9-0.3 1.8 0 2.3 0.8q0.4 0.8 0.7 1.6c0.5 0.7 1.1 0.8 1.3 0.8 1.8 0.3 4.3-1 5.6-3 0.8-1.1 1.5-2.9 0.3-4.9-0.3-0.6-0.3-1.4 0.1-2 0.4-0.5 1.2-0.8 1.9-0.6 3.3 0.8 7.7-0.8 9.1-3.2q1.3-2.4-1.4-5.2c-0.6-0.7-0.6-1.8 0.1-2.5 0.7-0.7 1.8-0.7 2.5 0 2.9 3.1 3.6 6.5 1.9 9.4-1.8 3.1-5.9 5.2-10 5.2 0.2 2-0.3 4-1.5 5.8-2.2 3.2-6 5.1-9.2 4.6q-0.3-0.1-0.7-0.2-0.4 1.3-1.4 2.4c-1.9 2.2-5.1 3.4-8.3 3.4zm49.3 3.9l-0.1 0.1zm3.3-2.3c-4.2-6.1-12.7-0.3-8.5 5.9 3.6 5.3 12.2-0.6 8.5-5.9zm-37.9 10.3c-3.6-5.3-12 0.4-8.3 5.7 3.6 5.3 11.9-0.4 8.3-5.7zm-24.4-58.3c-3-4.4-9.2-0.2-6.2 4.2 2.4 3.5 8.6-0.7 6.2-4.2zm121.9-108.8q-0.2 0-0.4 0c-7.6-0.2-14.5-4.8-19.6-12.9-10.1-16.1-34.4-31.1-34.7-31.2-0.6-0.4-1-1.2-0.8-1.9 0.2-0.8 0.8-1.3 1.6-1.4 9.4-0.8 20.3-7.9 31.8-15.4 17.4-11.3 37.2-24.1 55.6-15.8 7 3.2 12.2 10.1 13.6 18 1.3 8.1-1.4 15.8-7.7 21.9-5.2 5-13.4 6.2-20.9 3.2-7.6-3.1-12.4-10-12.7-17.9-0.2-5.2 1.5-9.7 4.8-12.6 2.8-2.5 6.6-3.6 10.2-3.1 5 0.7 9.4 5.4 10 10.5 0.5 4-1.6 7.4-5.6 8.9-0.9 0.4-1.9-0.1-2.3-1-0.3-0.9 0.1-1.9 1-2.3 3.1-1.2 3.6-3.5 3.4-5.2-0.4-3.1-3.3-6.8-7-7.4-2.6-0.3-5.3 0.5-7.3 2.3-1.8 1.5-3.8 4.5-3.6 9.7 0.2 6.7 4.1 12.2 10.5 14.8 6.1 2.5 12.8 1.5 17.1-2.5 5.4-5.2 7.7-11.8 6.5-18.7-1.1-6.8-5.5-12.7-11.5-15.4-16.6-7.5-34.7 4.3-52.2 15.6-10.1 6.6-19.7 12.9-28.8 15.1 7.5 5 23.9 16.9 32 29.9 4.4 7.1 10.4 11 16.7 11.2 5 0.1 9.8-2.3 12.6-6.2 3.1-4.5 3.1-11.5 0.2-16-1.8-2.7-5.4-5.6-12.3-4.2-4.9 0.9-6.1 3.9-6.4 5.5-0.5 2.4 0.5 5 2.3 6.1 1.7 1.1 4.1 0.8 6.6-1 0.8-0.6 1.9-0.4 2.4 0.4 0.6 0.8 0.4 1.9-0.4 2.5-3.6 2.6-7.5 3-10.5 1.1-3-1.9-4.6-5.9-3.9-9.7 0.8-4.3 4.2-7.4 9.2-8.4 9.4-1.9 14 2.8 16 5.8 3.7 5.7 3.6 14.3-0.3 19.9-3.3 4.8-9.1 7.8-15.2 7.8zm-32.1-29.2c-1.2 0-2.4-0.4-3.5-1.1-0.8-0.6-1.1-1.7-0.5-2.5 0.5-0.8 1.6-1 2.5-0.5 1 0.7 1.9 0.7 2.7 0.2 1.6-1 2.7-3.7 2.3-5.8q-0.3-2.2-2.3-2.7c-0.7-0.2-1.2-0.7-1.3-1.3-0.2-0.7 0-1.3 0.5-1.8 2.4-2.1 5.2-5.4 5-7.7-0.1-0.6-0.3-1.4-1.7-2.3-0.8-0.5-1.1-1.6-0.6-2.4 0.6-0.9 1.7-1.1 2.5-0.6 2.5 1.5 3.2 3.5 3.3 4.9 0.3 3.4-2.2 6.8-4.3 9 1.3 1 2.1 2.5 2.4 4.3 0.6 3.5-1.1 7.6-3.8 9.4-1 0.6-2.1 0.9-3.2 0.9zm10.6 8.9c-1.9 0-3.6-0.8-5.1-2.4-0.6-0.7-0.6-1.8 0.1-2.5 0.7-0.6 1.9-0.6 2.5 0.1 1.2 1.2 2.4 1.5 3.9 0.9 2.5-1.1 4.6-4.4 4.4-7q-0.1-1.6-1.4-2.4-0.9-0.3-1.8-0.8c-0.7-0.4-1.1-1.4-0.7-2.2 0.3-0.8 1.3-1.3 2.1-1q0.9 0.2 1.7 0.6c0.8 0.2 1.3-0.2 1.5-0.3 1.4-1.1 2.3-3.8 1.8-6.1-0.2-1.4-1-3.2-3.2-3.7-0.7-0.2-1.3-0.8-1.4-1.5-0.1-0.7 0.2-1.4 0.9-1.8 2.9-1.8 4.9-6 4.2-8.7q-0.8-2.6-4.6-2.7c-1 0-1.8-0.8-1.8-1.8 0-1 0.8-1.7 1.8-1.7 4.2 0.1 7.1 2 8 5.3 0.9 3.4-0.5 7.8-3.4 10.8 1.5 1.1 2.6 2.9 3 5.1 0.7 3.7-0.6 7.8-3.2 9.7q-0.3 0.2-0.7 0.4 0.7 1.2 0.8 2.6c0.2 4.1-2.7 8.8-6.6 10.5q-1.4 0.6-2.8 0.6zm43.5-34.9v0.2zm0.8-4c-7.4-1.4-9.3 8.8-2 10.2 6.3 1.2 8.3-9 2-10.2zm-19.6 34.1c-6.3-1.2-8.2 8.7-1.9 9.9 6.3 1.2 8.2-8.7 1.9-9.9zm-58.5-24c-5.3-1-6.7 6.4-1.4 7.4 4.2 0.8 5.6-6.6 1.4-7.4zm-61-155.6c-0.6 0-1.2-0.3-1.5-0.8-0.4-0.7-0.3-1.5 0.2-2.1 6-7.3 8.7-20 11.6-33.4 4.3-20.3 9.2-43.3 28.1-50.5 7.2-2.7 15.8-1.5 22.3 3.2 6.7 4.7 10.3 12.1 10.1 20.8-0.2 7.3-5.1 14-12.5 17.1-7.6 3.1-15.9 1.7-21.7-3.7-3.8-3.5-5.7-7.9-5.5-12.2 0.2-3.8 2.1-7.3 5-9.5 4.1-3 10.5-2.8 14.5 0.4 3.2 2.5 4.1 6.3 2.4 10.2-0.4 0.9-1.5 1.3-2.4 0.9-0.9-0.4-1.3-1.4-0.9-2.3 1.4-3.1 0.1-5-1.3-6-2.4-2-7.1-2.6-10.1-0.3-2.1 1.5-3.5 4.1-3.6 6.8-0.1 2.3 0.5 5.8 4.3 9.4 4.9 4.5 11.6 5.6 17.9 3 6.1-2.6 10.2-8 10.3-13.9 0.2-7.5-2.9-13.8-8.5-17.8-5.7-4-12.9-5-19.1-2.7-17 6.4-21.5 27.5-25.8 47.9-2.5 11.8-4.9 23-9.7 31 8.8-1.7 28.8-4.9 43.7-1.5 8.1 1.9 15.1 0.5 19.7-3.8 3.6-3.5 5.4-8.6 4.5-13.3-0.9-5.4-5.8-10.4-11.1-11.5-3.2-0.6-7.8-0.2-11.7 5.7-2.8 4.1-1.6 7.1-0.6 8.5 1.4 2 3.9 3.1 5.9 2.7 2.1-0.5 3.4-2.4 3.9-5.4 0.2-1 1.1-1.7 2.1-1.5 0.9 0.2 1.6 1.1 1.4 2-0.7 4.5-3.1 7.5-6.6 8.3-3.5 0.8-7.5-0.9-9.7-4.1-2.4-3.6-2.2-8.2 0.6-12.4 5.3-8 11.9-8 15.4-7.3 6.7 1.4 12.7 7.6 13.9 14.3 1.1 5.9-1.1 12.3-5.6 16.5-5.4 5.3-13.6 6.9-22.9 4.8-18.5-4.3-46.3 2.4-46.6 2.5q-0.2 0-0.4 0zm23.3-3.7c-0.8 0-1.6-0.6-1.7-1.5-0.2-0.9 0.4-1.9 1.3-2.1 1.2-0.2 1.9-0.8 2.1-1.8 0.4-1.9-0.7-4.5-2.5-5.7q-1.7-1.3-3.5-0.3c-0.6 0.4-1.3 0.4-1.8 0-0.6-0.3-0.9-0.9-0.9-1.6 0.2-3.2-0.2-7.5-2-9-0.4-0.4-1.2-0.8-2.7-0.4-1 0.2-1.9-0.4-2.2-1.3-0.2-1 0.4-1.9 1.3-2.2 2.9-0.7 4.8 0.3 5.9 1.2 2.6 2.1 3.2 6.3 3.3 9.3 1.6-0.1 3.2 0.3 4.7 1.4 2.9 2.1 4.6 6.1 3.9 9.3-0.5 2.4-2.3 4.1-4.8 4.6q-0.2 0.1-0.4 0.1zm12.5-1q-0.2 0-0.3 0c-1-0.1-1.8-0.9-1.7-1.9 0-1 0.8-1.7 1.8-1.7 1.7 0.1 2.8-0.6 3.3-2.1 1-2.5 0.2-6.3-1.7-8q-1.3-1.1-2.8-0.8-0.8 0.5-1.7 0.7c-0.9 0.3-1.8-0.2-2.2-1-0.3-0.9 0-1.8 0.8-2.3q0.8-0.4 1.6-0.7c0.7-0.5 0.8-1.1 0.9-1.3 0.3-1.8-1.1-4.3-3.1-5.6-1.1-0.8-2.9-1.5-4.9-0.3-0.6 0.4-1.4 0.3-1.9-0.1-0.6-0.4-0.9-1.2-0.7-1.9 0.8-3.3-0.7-7.7-3.2-9.1q-2.4-1.3-5.2 1.4c-0.7 0.7-1.8 0.6-2.5-0.1-0.7-0.7-0.6-1.8 0.1-2.5 3-2.9 6.4-3.6 9.3-1.9 3.2 1.8 5.2 5.9 5.3 10.1 1.9-0.3 3.9 0.2 5.7 1.4 3.2 2.2 5.1 6 4.6 9.2q-0.1 0.4-0.2 0.7 1.3 0.4 2.4 1.4c3.1 2.7 4.3 8.1 2.8 12-1.1 2.8-3.5 4.4-6.5 4.4zm11.1-57.4v0.1zm-2.2-3.3c-6.2 4.2-0.4 12.7 5.8 8.5 5.3-3.6-0.5-12.1-5.8-8.5zm10.3 37.9c-5.3 3.6 0.3 12 5.6 8.4 5.3-3.6-0.3-12-5.6-8.4zm-58.4 24.4c-4.4 3-0.2 9.2 4.2 6.2 3.6-2.4-0.7-8.6-4.2-6.2zm-159.9 215.6c-33.6 0-61-27.4-61-61.1 0-33.7 27.4-61.1 61-61.1 33.7 0 61.1 27.4 61.1 61.1 0 33.7-27.4 61.1-61.1 61.1zm0-118.6c-31.7 0-57.5 25.8-57.5 57.5 0 31.7 25.8 57.5 57.5 57.5 31.8 0 57.6-25.8 57.6-57.5 0-31.7-25.8-57.5-57.6-57.5zm0 110.1c-28.9 0-52.5-23.6-52.5-52.6 0-29 23.6-52.5 52.5-52.5 29 0 52.6 23.5 52.6 52.5 0 29-23.6 52.6-52.6 52.6zm0-101.6c-27 0-48.9 22-48.9 49 0 27 21.9 49 48.9 49 27.1 0 49-22 49-49 0-27-21.9-49-49-49zm-4.8 94.9c-1-0.1-1.7-1-1.6-2 0.1-0.9 1-1.7 1.9-1.6 1 0.1 1.7 1 1.6 2-0.1 0.9-0.9 1.6-1.8 1.6q-0.1 0-0.1 0zm8-1.6c-0.1-1 0.6-1.9 1.5-2 1-0.1 1.9 0.6 2 1.6 0.1 1-0.6 1.9-1.6 2q-0.1 0-0.2 0c-0.9 0-1.6-0.7-1.7-1.6zm-17.8-0.5c-0.9-0.3-1.4-1.3-1.1-2.3 0.3-0.9 1.3-1.4 2.2-1.1 1 0.3 1.5 1.3 1.2 2.2-0.3 0.8-1 1.3-1.7 1.3q-0.3 0-0.6-0.1zm27.2-1.2c-0.3-0.9 0.2-1.9 1.1-2.3 0.9-0.3 2 0.2 2.3 1.2 0.3 0.9-0.2 1.9-1.1 2.2q-0.3 0.1-0.6 0.1c-0.8 0-1.5-0.5-1.7-1.2zm-36.2-3q0 0 0 0c-0.9-0.5-1.2-1.6-0.7-2.4 0.6-0.9 1.6-1.2 2.5-0.7 0.8 0.6 1.1 1.6 0.6 2.5-0.3 0.5-0.9 0.9-1.5 0.9q-0.5 0-0.9-0.3zm45.1-0.7c-0.6-0.8-0.3-1.9 0.5-2.4 0.9-0.5 2-0.3 2.5 0.6 0.5 0.8 0.2 1.9-0.6 2.4q-0.4 0.3-0.9 0.3c-0.6 0-1.2-0.3-1.5-0.9zm-53.1-5.3c-0.7-0.7-0.7-1.8-0.1-2.5 0.7-0.8 1.8-0.8 2.6-0.1 0.7 0.7 0.7 1.8 0 2.5-0.3 0.4-0.8 0.6-1.3 0.6-0.4 0-0.9-0.2-1.2-0.5zm60.9-0.2c-0.7-0.7-0.7-1.8 0.1-2.5 0.7-0.7 1.8-0.7 2.5 0 0.7 0.8 0.6 1.9-0.1 2.6-0.3 0.3-0.8 0.4-1.2 0.4-0.5 0-1-0.1-1.3-0.5zm-67.4-7.4c-0.5-0.8-0.3-1.9 0.5-2.5 0.8-0.5 1.9-0.3 2.5 0.5 0.5 0.8 0.3 1.9-0.5 2.5-0.3 0.2-0.6 0.3-1 0.3-0.6 0-1.1-0.3-1.5-0.8zm73.9 0.3c-0.8-0.5-1-1.6-0.5-2.4 0.6-0.9 1.7-1.1 2.5-0.5 0.8 0.5 1 1.6 0.5 2.4-0.4 0.6-0.9 0.8-1.5 0.8q-0.5 0-1-0.3zm-78.6-9.1q0 0 0 0c-0.3-0.9 0.1-1.9 1-2.3 0.9-0.4 2 0.1 2.3 1 0.4 0.9 0 1.9-0.9 2.3q-0.4 0.1-0.7 0.1c-0.7 0-1.4-0.4-1.7-1.1zm83.4 0.8c-0.9-0.3-1.3-1.4-1-2.3 0.4-0.9 1.4-1.3 2.3-1 0.9 0.4 1.4 1.4 1 2.3-0.2 0.7-0.9 1.2-1.6 1.2q-0.4 0-0.7-0.2zm-86.1-10.4c-0.1-1 0.5-1.9 1.5-2 1-0.2 1.9 0.5 2.1 1.4 0.1 1-0.5 1.9-1.5 2.1q-0.2 0-0.3 0c-0.9 0-1.6-0.6-1.8-1.5zm89 1.3c-0.9-0.2-1.6-1.1-1.4-2 0.1-1 1-1.7 2-1.5 1 0.1 1.6 1.1 1.5 2-0.2 0.9-0.9 1.5-1.8 1.5q-0.1 0-0.3 0zm-87.8-9.4c-1 0-1.8-0.9-1.7-1.8 0-1 0.9-1.8 1.8-1.7 1 0 1.8 0.9 1.7 1.8 0 1-0.8 1.7-1.7 1.7q-0.1 0-0.1 0zm86.8-1.8c0-1 0.7-1.8 1.7-1.9 1-0.1 1.8 0.7 1.9 1.7 0.1 1-0.7 1.8-1.7 1.9q0 0-0.1 0c-0.9 0-1.7-0.8-1.8-1.7zm-85.7-7.7c-1-0.2-1.5-1.2-1.2-2.2 0.2-0.9 1.2-1.5 2.1-1.2 1 0.2 1.6 1.2 1.3 2.2-0.2 0.7-0.9 1.3-1.7 1.3q-0.3 0-0.5-0.1zm84.3-1.4c-0.3-1 0.2-1.9 1.2-2.2 0.9-0.3 1.9 0.3 2.2 1.2 0.3 1-0.3 2-1.3 2.2q-0.2 0.1-0.4 0.1c-0.8 0-1.5-0.5-1.7-1.3zm-81.1-7.6c-0.9-0.5-1.2-1.6-0.8-2.5 0.5-0.8 1.5-1.2 2.4-0.7 0.9 0.5 1.2 1.5 0.8 2.4-0.4 0.6-1 1-1.6 1q-0.4 0-0.8-0.2zm77.6-0.9c-0.4-0.9-0.1-2 0.8-2.5 0.8-0.4 1.9-0.1 2.4 0.8 0.5 0.8 0.1 1.9-0.7 2.4q-0.4 0.2-0.9 0.2c-0.6 0-1.2-0.3-1.6-0.9zm-72.6-7.3c-0.7-0.6-0.8-1.8-0.2-2.5 0.6-0.8 1.8-0.9 2.5-0.2 0.7 0.6 0.8 1.7 0.2 2.5-0.3 0.4-0.8 0.6-1.4 0.6-0.4 0-0.8-0.1-1.1-0.4zm67.5-0.4c-0.7-0.7-0.6-1.8 0.2-2.5 0.7-0.6 1.8-0.5 2.5 0.2 0.6 0.8 0.5 1.9-0.2 2.5-0.3 0.3-0.8 0.5-1.2 0.5-0.5 0-1-0.2-1.3-0.7zm-60.8-6.5c-0.6-0.8-0.5-1.9 0.3-2.5 0.8-0.6 1.9-0.5 2.5 0.3 0.6 0.8 0.4 1.9-0.3 2.5q-0.5 0.4-1.1 0.4c-0.6 0-1.1-0.2-1.4-0.7zm54.1 0.2c-0.8-0.6-0.9-1.7-0.3-2.5 0.5-0.8 1.7-0.9 2.4-0.3q0 0 0 0c0.8 0.6 1 1.7 0.4 2.5-0.4 0.4-0.9 0.7-1.4 0.7-0.4 0-0.8-0.1-1.1-0.4zm-46.1-5.5c-0.5-0.9-0.1-2 0.8-2.4 0.9-0.4 2 0 2.4 0.9 0.4 0.9 0 1.9-0.9 2.3q-0.3 0.2-0.7 0.2c-0.7 0-1.3-0.4-1.6-1zm38.2 0.8c-0.9-0.4-1.3-1.5-0.9-2.4 0.5-0.9 1.5-1.3 2.4-0.9 0.9 0.5 1.3 1.5 0.9 2.4-0.3 0.7-1 1-1.6 1q-0.4 0-0.8-0.1zm-29.3-4.3c-0.2-0.9 0.4-1.9 1.3-2.1 1-0.2 2 0.4 2.2 1.3 0.2 1-0.4 2-1.4 2.2q-0.2 0-0.4 0c-0.8 0-1.5-0.5-1.7-1.4zm20.6 1.3c-1-0.2-1.6-1.1-1.4-2.1 0.2-0.9 1.2-1.6 2.1-1.3 1 0.2 1.6 1.1 1.4 2.1-0.2 0.8-0.9 1.4-1.7 1.4q-0.2 0-0.4-0.1zm-9.2-0.9q-0.1 0-0.1 0c-1 0-1.8-0.8-1.8-1.8 0-1 0.8-1.8 1.8-1.8q0 0 0.1 0 0 0 0.1 0 0 0 0 0c0.9 0 1.7 0.8 1.7 1.8 0 1-0.8 1.8-1.7 1.8q-0.1 0-0.1 0zm0.1 78.7h-0.1c-4.2 0-8.3-0.8-12.2-2.2-1-0.3-1.4-1.3-1.1-2.3 0.3-0.9 1.3-1.4 2.3-1 3.5 1.3 7.2 1.9 11 1.9 1 0 1.9 0.8 1.9 1.8 0 1-0.8 1.8-1.8 1.8zm9.5-1.4c-0.8 0-1.5-0.5-1.7-1.3-0.3-0.9 0.2-1.9 1.2-2.2 3.6-1 7.1-2.7 10.1-4.9 0.8-0.6 2-0.4 2.5 0.3 0.6 0.8 0.4 2-0.4 2.5-3.4 2.5-7.2 4.4-11.2 5.6q-0.3 0-0.5 0zm-29.7-5.1q-0.5 0-1-0.4c-3.5-2.5-6.4-5.5-8.8-9-0.5-0.8-0.3-1.9 0.5-2.5 0.8-0.5 1.9-0.3 2.5 0.5 2.1 3.2 4.8 5.9 7.9 8.1 0.7 0.6 0.9 1.7 0.4 2.5-0.4 0.5-0.9 0.8-1.5 0.8zm47.3-6.8q-0.6 0-1.1-0.4c-0.8-0.6-0.9-1.7-0.3-2.5 2.3-3 4.1-6.3 5.3-9.9 0.3-1 1.3-1.5 2.2-1.2 0.9 0.3 1.5 1.3 1.2 2.3-1.3 4-3.3 7.7-5.9 11-0.4 0.5-0.9 0.7-1.4 0.7zm-59.8-10.4c-0.8 0-1.5-0.5-1.7-1.2-1.2-3.6-1.8-7.4-1.8-11.3q0-0.6 0-1.1c0-1 0.9-1.8 1.9-1.8 0.9 0.1 1.7 0.9 1.7 1.9q0 0.5 0 1c0 3.5 0.5 6.9 1.6 10.2 0.3 0.9-0.2 1.9-1.2 2.2q-0.2 0.1-0.5 0.1zm67-9.5q0 0-0.1 0c-0.9-0.1-1.7-0.9-1.7-1.9q0-0.5 0-1.1c0-3.4-0.5-6.8-1.6-10.1-0.3-0.9 0.2-1.9 1.2-2.2 0.9-0.3 1.9 0.2 2.2 1.1 1.2 3.6 1.8 7.4 1.8 11.2q0 0.6 0 1.2c-0.1 1-0.8 1.8-1.8 1.8zm-67.1-11.7q-0.3 0-0.5-0.1c-1-0.3-1.5-1.3-1.2-2.2 1.3-4.1 3.3-7.8 5.9-11.1 0.6-0.8 1.7-1 2.5-0.4 0.8 0.6 0.9 1.8 0.3 2.5-2.3 3.1-4.1 6.4-5.3 10-0.2 0.8-0.9 1.3-1.7 1.3zm61.2-8.7c-0.5 0-1.1-0.3-1.4-0.8-2.2-3.2-4.8-5.9-7.9-8.2-0.8-0.5-1-1.6-0.4-2.4 0.6-0.8 1.7-1 2.5-0.4 3.4 2.5 6.3 5.5 8.7 9 0.6 0.8 0.3 1.9-0.5 2.5q-0.4 0.3-1 0.3zm-48.8-8.5c-0.5 0-1-0.3-1.4-0.8-0.6-0.8-0.4-1.9 0.4-2.5 3.4-2.5 7.2-4.3 11.2-5.5 1-0.3 2 0.3 2.3 1.2 0.2 1-0.3 1.9-1.3 2.2-3.6 1.1-7 2.8-10.1 5q-0.5 0.4-1.1 0.4zm32.1-4.6q-0.3 0-0.6-0.1c-3.6-1.3-7.3-2-11.2-2h-0.1c-1 0-1.8-0.8-1.8-1.8 0-0.9 0.8-1.7 1.8-1.7h0.1c4.3 0 8.5 0.7 12.4 2.1 0.9 0.4 1.4 1.4 1.1 2.3-0.3 0.7-1 1.2-1.7 1.2z"/></svg>